SplineFontDB: 3.0
FontName: LansburyFG
FullName: Lansbury FG
FamilyName: Lansbury FG
Weight: Book
Copyright: www.fontgrube.de
Version: 1.10
ItalicAngle: 0
UnderlinePosition: -54
UnderlineWidth: 50
Ascent: 800
Descent: 200
sfntRevision: 0x00010000
LayerCount: 2
Layer: 0 1 "Back"  1
Layer: 1 1 "Fore"  0
XUID: [1021 578 711364947 568429]
FSType: 0
OS2Version: 1
OS2_WeightWidthSlopeOnly: 0
OS2_UseTypoMetrics: 1
CreationTime: 1365236572
ModificationTime: 1416097782
PfmFamily: 81
TTFWeight: 400
TTFWidth: 5
LineGap: 150
VLineGap: 0
Panose: 4 0 4 0 0 0 0 0 0 0
OS2TypoAscent: 749
OS2TypoAOffset: 0
OS2TypoDescent: -319
OS2TypoDOffset: 0
OS2TypoLinegap: 150
OS2WinAscent: 749
OS2WinAOffset: 0
OS2WinDescent: 319
OS2WinDOffset: 0
HheadAscent: 643
HheadAOffset: 0
HheadDescent: -309
HheadDOffset: 0
OS2SubXSize: 700
OS2SubYSize: 650
OS2SubXOff: 0
OS2SubYOff: 143
OS2SupXSize: 700
OS2SupYSize: 650
OS2SupXOff: 0
OS2SupYOff: 453
OS2StrikeYSize: 50
OS2StrikeYPos: 259
OS2Vendor: 'FgAH'
OS2CodePages: 00000001.00000000
OS2UnicodeRanges: 00000003.00000000.00000000.00000000
Lookup: 258 0 0 "'kern' Horizontal Kerning in Latin lookup 0"  {"'kern' Horizontal Kerning in Latin lookup 0 subtable"  } ['kern' ('latn' <'dflt' > ) ]
DEI: 91125
TtTable: prep
NPUSHB
 23
 14
 14
 13
 13
 12
 12
 11
 11
 10
 10
 9
 9
 8
 8
 3
 3
 2
 2
 1
 1
 0
 0
 1
SCANTYPE
PUSHW_1
 511
SCANCTRL
RCVT
ROUND[Grey]
WCVTP
RCVT
ROUND[Grey]
WCVTP
RCVT
ROUND[Grey]
WCVTP
RCVT
ROUND[Grey]
WCVTP
RCVT
ROUND[Grey]
WCVTP
RCVT
ROUND[Grey]
WCVTP
RCVT
ROUND[Grey]
WCVTP
RCVT
ROUND[Grey]
WCVTP
RCVT
ROUND[Grey]
WCVTP
RCVT
ROUND[Grey]
WCVTP
RCVT
ROUND[Grey]
WCVTP
PUSHB_4
 5
 4
 70
 0
CALL
PUSHB_4
 7
 6
 70
 0
CALL
PUSHB_2
 4
 4
RCVT
ROUND[Grey]
WCVTP
PUSHB_2
 6
 6
RCVT
ROUND[Grey]
WCVTP
EndTTInstrs
TtTable: fpgm
NPUSHB
 1
 0
FDEF
SROUND
RCVT
DUP
PUSHB_1
 3
CINDEX
RCVT
SWAP
SUB
ROUND[Grey]
RTG
SWAP
ROUND[Grey]
ADD
WCVTP
ENDF
EndTTInstrs
ShortTable: cvt  21
  -289
  -2
  419
  592
  50
  62
  55
  76
  51
  169
  269
  406
  466
  364
  204

StartChar: .notdef
Encoding: 65536 -1 0
Width: 500
Flags: W
LayerCount: 2
Fore
SplineSet
63 0 m 1,0,-1
 63 643 l 1,1,-1
 438 643 l 1,2,-1
 438 0 l 1,3,-1
 63 0 l 1,0,-1
125 63 m 1,4,-1
 375 63 l 1,5,-1
 375 581 l 1,6,-1
 125 581 l 1,7,-1
 125 63 l 1,4,-1
EndSplineSet
EndChar

StartChar: exclam
Encoding: 33 33 4
Width: 127
Flags: W
LayerCount: 2
Fore
SplineSet
103 567 m 0,0,1
 103 504 103 504 98.5 379 c 128,-1,2
 94 254 94 254 94 192 c 128,-1,3
 94 130 94 130 88 97 c 1,4,-1
 75 117 l 1,5,6
 51 131 51 131 47 141 c 0,7,8
 46 145 46 145 46 176 c 0,9,10
 46 234 46 234 40.5 350 c 128,-1,11
 35 466 35 466 35 524 c 0,12,13
 35 538 35 538 57 560.5 c 128,-1,14
 79 583 79 583 93 583 c 0,15,16
 103 583 103 583 103 567 c 0,0,1
109 20 m 0,17,18
 109 -11 109 -11 71 -15 c 1,19,-1
 71 -16 l 1,20,-1
 70 -15 l 1,21,22
 53 -15 53 -15 39.5 -3 c 128,-1,23
 26 9 26 9 26 26 c 0,24,25
 26 41 26 41 38.5 50 c 128,-1,26
 51 59 51 59 67 59 c 2,27,-1
 76 59 l 2,28,29
 90 59 90 59 99.5 46.5 c 128,-1,30
 109 34 109 34 109 20 c 0,17,18
EndSplineSet
EndChar

StartChar: quotedbl
Encoding: 34 34 5
Width: 280
Flags: W
LayerCount: 2
Fore
SplineSet
247 590 m 1,0,1
 247 568 247 568 227 530 c 0,2,3
 206 488 206 488 188 487 c 1,4,-1
 184 496 l 1,5,6
 184 507 184 507 205 528 c 1,7,-1
 205 529 l 1,8,-1
 214 547 l 1,9,10
 214 553 214 553 188 563.5 c 128,-1,11
 162 574 162 574 162 592 c 0,12,13
 162 633 162 633 202 633 c 2,14,-1
 211 633 l 2,15,16
 231 633 231 633 247 590 c 1,0,1
111 590 m 1,17,18
 111 568 111 568 92 530 c 0,19,20
 71 487 71 487 53 487 c 0,21,22
 48 487 48 487 48 497 c 0,23,24
 48 506 48 506 69 528 c 1,25,-1
 69 529 l 1,26,-1
 78 547 l 1,27,28
 78 557 78 557 69 559 c 0,29,30
 66 559 66 559 52 558 c 1,31,32
 26 584 26 584 26 599 c 0,33,34
 26 601 26 601 27 604 c 128,-1,35
 28 607 28 607 28 609 c 0,36,37
 37 633 37 633 67 633 c 2,38,-1
 76 633 l 2,39,40
 95 633 95 633 111 590 c 1,17,18
EndSplineSet
EndChar

StartChar: numbersign
Encoding: 35 35 6
Width: 394
Flags: W
LayerCount: 2
Fore
SplineSet
368 198 m 0,0,1
 362 198 362 198 353.5 207 c 128,-1,2
 345 216 345 216 335 216 c 0,3,4
 327 216 327 216 279 204 c 1,5,6
 279 181 279 181 280 139 c 1,7,8
 280 96 280 96 280 74 c 0,9,10
 280 -8 280 -8 275 -19 c 1,11,12
 260 -5 260 -5 228 21 c 1,13,-1
 228 191 l 1,14,-1
 145 171 l 1,15,16
 145 152 145 152 145 118 c 0,17,18
 146 83 146 83 146 65 c 0,19,20
 146 -7 146 -7 141 -17 c 1,21,22
 125 -5 125 -5 94 23 c 1,23,-1
 94 157 l 1,24,25
 75 154 75 154 40 138 c 1,26,27
 31 131 31 131 27 131 c 0,28,29
 19 131 19 131 19 175 c 0,30,31
 19 212 19 212 26 212 c 0,32,33
 27 212 27 212 37 207 c 128,-1,34
 47 202 47 202 53 202 c 0,35,36
 54 202 54 202 94 211 c 1,37,-1
 94 289 l 1,38,39
 75 286 75 286 40 270 c 1,40,41
 31 263 31 263 27 263 c 0,42,43
 19 263 19 263 19 307 c 0,44,45
 19 344 19 344 26 344 c 0,46,47
 27 344 27 344 37 339 c 128,-1,48
 47 334 47 334 53 334 c 0,49,50
 54 334 54 334 94 343 c 1,51,-1
 94 528 l 2,52,53
 94 541 94 541 109.5 562.5 c 128,-1,54
 125 584 125 584 138 587 c 1,55,56
 148 576 148 576 148 497 c 0,57,58
 148 473 148 473 146.5 425.5 c 128,-1,59
 145 378 145 378 145 355 c 1,60,-1
 228 374 l 1,61,-1
 228 527 l 2,62,63
 228 540 228 540 244 561.5 c 128,-1,64
 260 583 260 583 272 586 c 1,65,66
 282 581 282 581 282 508 c 0,67,68
 282 488 282 488 280.5 447 c 128,-1,69
 279 406 279 406 279 387 c 1,70,71
 297 391 297 391 333 403 c 1,72,-1
 332 403 l 1,73,74
 344 410 344 410 369 423 c 1,75,76
 379 422 379 422 379 375 c 0,77,78
 379 330 379 330 368 330 c 0,79,80
 362 330 362 330 353.5 339 c 128,-1,81
 345 348 345 348 335 348 c 0,82,83
 327 348 327 348 279 336 c 1,84,-1
 279 255 l 1,85,86
 297 259 297 259 333 271 c 1,87,-1
 332 271 l 1,88,89
 344 278 344 278 369 291 c 1,90,91
 379 290 379 290 379 243 c 0,92,93
 379 198 379 198 368 198 c 0,0,1
228 242 m 1,94,-1
 228 323 l 1,95,-1
 145 303 l 1,96,-1
 145 223 l 1,97,-1
 228 242 l 1,94,-1
EndSplineSet
EndChar

StartChar: dollar
Encoding: 36 36 7
Width: 419
Flags: W
LayerCount: 2
Fore
SplineSet
392 155 m 0,0,1
 392 87 392 87 333 43 c 1,2,3
 280 5 280 5 209 1 c 1,4,5
 210 -62 210 -62 210 -51 c 1,6,7
 210 -80 210 -80 205 -89 c 1,8,9
 197 -81 197 -81 158 -49 c 1,10,-1
 158 1 l 1,11,12
 92 7 92 7 46 46 c 0,13,14
 -4 88 -4 88 -4 152 c 0,15,16
 -4 210 -4 210 38.5 248 c 128,-1,17
 81 286 81 286 138 286 c 0,18,19
 148 286 148 286 158 285 c 1,20,-1
 158 303 l 1,21,22
 31 371 31 371 31 424 c 0,23,24
 31 557 31 557 158 580 c 1,25,26
 158 604 158 604 169.5 627.5 c 128,-1,27
 181 651 181 651 202 657 c 1,28,29
 212 647 212 647 209 583 c 1,30,-1
 215 583 l 1,31,32
 247 584 247 584 285 568 c 1,33,34
 332 550 332 550 332 522 c 0,35,36
 332 471 332 471 313 457 c 1,37,-1
 309 460 l 1,38,-1
 307 466 l 1,39,-1
 305 467 l 1,40,41
 282 524 282 524 209 533 c 1,42,-1
 209 335 l 1,43,44
 299 294 299 294 330 270 c 0,45,46
 392 222 392 222 392 155 c 0,0,1
158 360 m 1,47,-1
 158 527 l 1,48,49
 87 501 87 501 87 449 c 0,50,51
 87 401 87 401 158 360 c 1,47,-1
337 153 m 0,52,53
 337 197 337 197 293 232 c 0,54,55
 267 252 267 252 209 278 c 1,56,-1
 209 44 l 1,57,58
 257 48 257 48 295 76 c 0,59,60
 337 108 337 108 337 153 c 0,52,53
158 46 m 1,61,-1
 158 239 l 1,62,63
 149 241 149 241 139 241 c 0,64,65
 94 241 94 241 68 215 c 128,-1,66
 42 189 42 189 42 145 c 0,67,68
 42 105 42 105 81 76 c 0,69,70
 115 51 115 51 158 46 c 1,61,-1
EndSplineSet
EndChar

StartChar: percent
Encoding: 37 37 8
Width: 621
Flags: W
LayerCount: 2
Fore
SplineSet
595 145 m 0,0,1
 595 87 595 87 565 46 c 0,2,3
 533 1 533 1 477 1 c 0,4,5
 420 1 420 1 386 46 c 0,6,7
 355 88 355 88 355 147 c 256,8,9
 355 206 355 206 386 246 c 0,10,11
 420 291 420 291 477 291 c 256,12,13
 534 291 534 291 566 245 c 0,14,15
 595 205 595 205 595 145 c 0,0,1
490 529 m 2,16,17
 490 524 490 524 335 258.5 c 128,-1,18
 180 -7 180 -7 172 -14 c 1,19,-1
 153 36 l 1,20,21
 178 85 178 85 221 155 c 0,22,23
 291 270 291 270 292 273 c 2,24,-1
 387 435 l 2,25,26
 405 467 405 467 423 499 c 1,27,28
 449 536 449 536 481 536 c 1,29,30
 481 536 481 536 489 535 c 1,31,32
 490 529 490 529 490 529 c 2,16,17
273 402 m 0,33,34
 273 344 273 344 243 303 c 0,35,36
 211 258 211 258 155 258 c 0,37,38
 98 258 98 258 64 303 c 0,39,40
 33 345 33 345 33 404 c 256,41,42
 33 463 33 463 64 503 c 0,43,44
 98 548 98 548 155 548 c 256,45,46
 212 548 212 548 244 502 c 0,47,48
 273 461 273 461 273 402 c 0,33,34
539 147 m 256,49,50
 539 181 539 181 526 207 c 1,51,52
 509 238 509 238 477 238 c 256,53,54
 445 238 445 238 427 207 c 0,55,56
 412 182 412 182 412 147 c 256,57,58
 412 112 412 112 427 87 c 1,59,60
 444 56 444 56 477 56 c 0,61,62
 508 56 508 56 525 87 c 0,63,64
 539 113 539 113 539 147 c 256,49,50
217 404 m 256,65,66
 217 438 217 438 204 463 c 0,67,68
 186 495 186 495 155 495 c 0,69,70
 123 495 123 495 105 464 c 0,71,72
 90 439 90 439 90 404 c 256,73,74
 90 369 90 369 105 344 c 1,75,76
 122 313 122 313 155 313 c 0,77,78
 186 313 186 313 203 344 c 0,79,80
 217 370 217 370 217 404 c 256,65,66
EndSplineSet
EndChar

StartChar: ampersand
Encoding: 38 38 9
Width: 509
Flags: W
LayerCount: 2
Fore
SplineSet
351 106 m 1,0,1
 328 55 328 55 276 27 c 1,2,3
 228 0 228 0 168 0 c 0,4,5
 100 0 100 0 56 51 c 128,-1,6
 12 102 12 102 13 171 c 0,7,8
 13 233 13 233 140 328 c 1,9,10
 93 368 93 368 78 384 c 0,11,12
 46 418 46 418 46 445 c 0,13,14
 46 502 46 502 85 540 c 128,-1,15
 124 578 124 578 181 578 c 0,16,17
 245 578 245 578 283 547 c 0,18,19
 323 513 323 513 323 450 c 0,20,21
 323 403 323 403 300 375 c 1,22,23
 285 359 285 359 232 324 c 1,24,25
 274 280 274 280 348 201 c 1,26,27
 368 236 368 236 403 295 c 1,28,29
 417 316 417 316 426.5 322 c 128,-1,30
 436 328 436 328 460 329 c 1,31,32
 465 318 465 318 465 312 c 0,33,34
 465 302 465 302 424 237 c 0,35,36
 399 197 399 197 374 157 c 1,37,-1
 474 49 l 2,38,39
 483 40 483 40 493 32 c 1,40,41
 500 25 500 25 501 9 c 1,42,43
 487 2 487 2 477 1 c 0,44,45
 454 -2 454 -2 430 26 c 1,46,47
 403 53 403 53 351 106 c 1,0,1
275 449 m 0,48,49
 275 522 275 522 171 522 c 0,50,51
 97 522 97 522 97 448 c 1,52,53
 116 412 116 412 150 385 c 0,54,55
 170 370 170 370 190 354 c 1,56,57
 242 382 242 382 252 391 c 0,58,59
 275 412 275 412 275 449 c 0,48,49
323 157 m 1,60,61
 287 195 287 195 252 234 c 1,62,63
 206 282 206 282 183 300 c 1,64,65
 64 230 64 230 64 170 c 1,66,67
 63 118 63 118 97 86 c 128,-1,68
 131 54 131 54 183 54 c 0,69,70
 234 54 234 54 272.5 80.5 c 128,-1,71
 311 107 311 107 323 157 c 1,60,61
EndSplineSet
EndChar

StartChar: quotesingle
Encoding: 39 39 10
Width: 149
Flags: W
LayerCount: 2
Fore
SplineSet
111 590 m 1,0,1
 111 568 111 568 92 530 c 0,2,3
 71 487 71 487 53 487 c 0,4,5
 48 487 48 487 48 497 c 0,6,7
 48 506 48 506 69 528 c 1,8,-1
 69 529 l 1,9,-1
 78 547 l 1,10,11
 78 557 78 557 69 559 c 0,12,13
 66 559 66 559 52 558 c 1,14,15
 26 584 26 584 26 599 c 0,16,17
 26 601 26 601 27 604 c 128,-1,18
 28 607 28 607 28 609 c 0,19,20
 37 633 37 633 67 633 c 2,21,-1
 76 633 l 2,22,23
 95 633 95 633 111 590 c 1,0,1
EndSplineSet
EndChar

StartChar: parenleft
Encoding: 40 40 11
Width: 200
Flags: W
LayerCount: 2
Fore
SplineSet
173 -195 m 0,0,1
 173 -201 173 -201 159 -223 c 1,2,3
 142 -247 142 -247 140 -254 c 1,4,-1
 139 -255 l 1,5,6
 108 -190 108 -190 85 -38 c 0,7,8
 64 97 64 97 64 189 c 0,9,10
 64 403 64 403 126 608 c 0,11,12
 131 623 131 623 136 623 c 0,13,14
 150 623 150 623 161.5 601.5 c 128,-1,15
 173 580 173 580 173 565 c 0,16,17
 173 545 173 545 163 512 c 0,18,19
 155 486 155 486 147 460 c 1,20,21
 121 354 121 354 121 182 c 0,22,23
 121 91 121 91 135 1 c 0,24,25
 138 -18 138 -18 158 -97 c 0,26,27
 173 -157 173 -157 173 -195 c 0,0,1
EndSplineSet
EndChar

StartChar: parenright
Encoding: 41 41 12
Width: 165
Flags: W
LayerCount: 2
Fore
SplineSet
158 172 m 0,0,1
 158 84 158 84 138 -24 c 0,2,3
 128 -78 128 -78 95 -217 c 0,4,5
 92 -230 92 -230 82 -255 c 1,6,7
 80 -248 80 -248 73 -234 c 0,8,9
 73 -233 73 -233 58 -215 c 0,10,11
 48 -204 48 -204 48 -194 c 0,12,13
 48 -171 48 -171 58 -137 c 0,14,15
 73 -86 73 -86 74 -82 c 0,16,17
 100 37 100 37 100 186 c 0,18,19
 100 261 100 261 79 376 c 0,20,21
 52 528 52 528 48 565 c 1,22,-1
 48 568 l 2,23,24
 48 582 48 582 60.5 602.5 c 128,-1,25
 73 623 73 623 86 623 c 0,26,27
 91 623 91 623 95 608 c 0,28,29
 158 392 158 392 158 172 c 0,0,1
EndSplineSet
EndChar

StartChar: asterisk
Encoding: 42 42 13
Width: 328
Flags: W
LayerCount: 2
Fore
SplineSet
283 348 m 0,0,1
 276 348 276 348 267.5 357 c 128,-1,2
 259 366 259 366 250 366 c 0,3,4
 236 366 236 366 217 360 c 1,5,6
 228 348 228 348 252 330 c 1,7,-1
 252 331 l 1,8,9
 265 327 265 327 292 318 c 1,10,11
 298 311 298 311 263 277 c 0,12,13
 237 252 237 252 229 252 c 0,14,15
 222 252 222 252 222 261 c 128,-1,16
 222 270 222 270 214 290 c 1,17,18
 205 300 205 300 186 320 c 1,19,-1
 187 268 l 2,20,21
 187 227 187 227 181 215 c 1,22,23
 160 226 160 226 135 242 c 1,24,-1
 135 310 l 1,25,26
 125 300 125 300 105 280.5 c 128,-1,27
 85 261 85 261 54 238 c 1,28,-1
 54 238 l 1,29,30
 53 255 53 255 50 292 c 1,31,32
 68 304 68 304 98 329 c 1,33,34
 59 318 59 318 48.5 310 c 128,-1,35
 38 302 38 302 34 302 c 0,36,37
 25 302 25 302 25 345 c 0,38,39
 25 383 25 383 33 383 c 0,40,41
 34 383 34 383 43.5 378 c 128,-1,42
 53 373 53 373 60 373 c 0,43,44
 76 373 76 373 100 379 c 1,45,46
 79 396 79 396 71 402 c 0,47,48
 54 414 54 414 44 415 c 0,49,50
 29 417 29 417 29 422 c 0,51,52
 29 430 29 430 55.5 456 c 128,-1,53
 82 482 82 482 87 476 c 1,54,55
 89 467 89 467 99 450 c 1,56,57
 119 429 119 429 134 417 c 1,58,59
 134 436 134 436 134 446 c 0,60,61
 134 471 134 471 145 496 c 0,62,63
 158 526 158 526 179 531 c 1,64,65
 188 526 188 526 188 474 c 0,66,67
 188 462 188 462 187 433 c 1,68,69
 191 438 191 438 195 441 c 1,70,71
 209 457 209 457 223 473 c 1,72,73
 242 492 242 492 256 492 c 0,74,75
 262 492 262 492 268 488 c 1,76,77
 271 481 271 481 254 451.5 c 128,-1,78
 237 422 237 422 230 415 c 2,79,-1
 229 414 l 1,80,81
 239 417 239 417 248 421 c 1,82,-1
 247 421 l 1,83,84
 259 428 259 428 284 441 c 1,85,86
 293 440 293 440 293 392 c 0,87,88
 293 348 293 348 283 348 c 0,0,1
EndSplineSet
EndChar

StartChar: plus
Encoding: 43 43 14
Width: 353
Flags: W
LayerCount: 2
Fore
SplineSet
308 247 m 0,0,1
 302 247 302 247 293.5 256 c 128,-1,2
 285 265 285 265 275 265 c 256,3,4
 265 265 265 265 211 250 c 1,5,6
 211 236 211 236 212 209 c 1,7,8
 212 181 212 181 212 168 c 0,9,10
 212 112 212 112 207 102 c 1,11,-1
 207 103 l 1,12,13
 191 116 191 116 160 142 c 1,14,-1
 160 237 l 1,15,16
 124 228 124 228 114 226 c 0,17,18
 83 217 83 217 73 209 c 128,-1,19
 63 201 63 201 59 201 c 0,20,21
 51 201 51 201 51 245 c 0,22,23
 51 282 51 282 58 282 c 0,24,25
 59 282 59 282 68.5 277 c 128,-1,26
 78 272 78 272 85 272 c 0,27,28
 101 272 101 272 123 278 c 0,29,30
 142 284 142 284 161 289 c 1,31,32
 161 299 161 299 160 317.5 c 128,-1,33
 159 336 159 336 159 345 c 0,34,35
 159 370 159 370 170 395 c 0,36,37
 184 425 184 425 205 430 c 1,38,39
 214 426 214 426 214 374 c 0,40,41
 214 361 214 361 213 337 c 128,-1,42
 212 313 212 313 212 302 c 1,43,44
 232 307 232 307 273 320 c 1,45,-1
 272 320 l 1,46,47
 284 327 284 327 309 340 c 1,48,49
 319 339 319 339 319 291 c 0,50,51
 319 247 319 247 308 247 c 0,0,1
EndSplineSet
EndChar

StartChar: comma
Encoding: 44 44 15
Width: 127
Flags: W
LayerCount: 2
Fore
SplineSet
183 53 m 0,0,-1
111 6 m 0,1,2
 111 -12 111 -12 90 -49 c 0,3,4
 68 -89 68 -89 53 -89 c 0,5,6
 48 -89 48 -89 48 -77 c 0,7,8
 48 -67 48 -67 55 -48.5 c 128,-1,9
 62 -30 62 -30 63 -20 c 1,10,11
 26 -14 26 -14 26 19 c 0,12,13
 26 56 26 56 67 56 c 2,14,-1
 76 56 l 2,15,16
 111 56 111 56 111 6 c 0,1,2
EndSplineSet
EndChar

StartChar: hyphen
Encoding: 45 45 16
AltUni2: 002010.ffffffff.0
Width: 342
Flags: W
LayerCount: 2
Fore
SplineSet
308 247 m 0,0,1
 302 247 302 247 293.5 256 c 128,-1,2
 285 265 285 265 275 265 c 0,3,4
 238 265 238 265 181 247 c 0,5,6
 135 232 135 232 90 218 c 0,7,8
 85 216 85 216 74 208.5 c 128,-1,9
 63 201 63 201 59 201 c 0,10,11
 51 201 51 201 51 235 c 2,12,-1
 51 252 l 2,13,14
 51 282 51 282 58 282 c 0,15,16
 59 282 59 282 68.5 277 c 128,-1,17
 78 272 78 272 85 272 c 0,18,19
 101 272 101 272 178 292 c 0,20,21
 251 311 251 311 273 320 c 1,22,-1
 272 320 l 1,23,24
 284 327 284 327 309 340 c 1,25,26
 318 339 318 339 318 298 c 1,27,-1
 319 279 l 1,28,29
 319 247 319 247 308 247 c 0,0,1
EndSplineSet
EndChar

StartChar: period
Encoding: 46 46 17
Width: 127
Flags: W
LayerCount: 2
Fore
SplineSet
109 18 m 0,0,1
 109 -11 109 -11 68 -21 c 1,2,3
 25 -14 25 -14 25 22 c 0,4,5
 25 56 25 56 72 56 c 0,6,7
 90 56 90 56 100 40 c 1,8,-1
 101 40 l 1,9,10
 109 29 109 29 109 18 c 0,0,1
EndSplineSet
EndChar

StartChar: slash
Encoding: 47 47 18
Width: 288
Flags: W
LayerCount: 2
Fore
SplineSet
305 590 m 0,0,1
 307 581 307 581 190 290 c 0,2,3
 91 46 91 46 51 -49 c 1,4,5
 40 -18 40 -18 18 4 c 1,6,-1
 17 8 l 1,7,8
 36 65 36 65 131 306 c 0,9,10
 231 559 231 559 241 568 c 0,11,12
 271 598 271 598 297 598 c 1,13,14
 297 598 297 598 302 597 c 1,15,16
 304 594 304 594 305 590 c 0,0,1
EndSplineSet
EndChar

StartChar: zero
Encoding: 48 48 19
Width: 318
Flags: W
LayerCount: 2
Fore
SplineSet
306 207 m 0,0,1
 306 130 306 130 274 72 c 0,2,3
 235 1 235 1 165 1 c 0,4,5
 91 1 91 1 51 75 c 0,6,7
 19 134 19 134 19 215 c 0,8,9
 19 292 19 292 53 351 c 0,10,11
 93 421 93 421 165 421 c 0,12,13
 239 421 239 421 276 347 c 0,14,15
 306 289 306 289 306 207 c 0,0,1
255 214 m 0,16,17
 255 270 255 270 237 311 c 0,18,19
 213 365 213 365 165 365 c 0,20,21
 116 365 116 365 91 310 c 0,22,23
 72 268 72 268 72 212 c 0,24,25
 72 158 72 158 92 115 c 0,26,27
 117 61 117 61 165 61 c 256,28,29
 213 61 213 61 237 117 c 0,30,31
 255 159 255 159 255 214 c 0,16,17
EndSplineSet
EndChar

StartChar: one
Encoding: 49 49 20
Width: 145
Flags: W
LayerCount: 2
Fore
SplineSet
118 1 m 1,0,1
 112 0 112 0 105 0 c 2,2,-1
 31 0 l 1,3,4
 31 1 31 1 41 41 c 1,5,-1
 43 43 l 1,6,7
 51 69 51 69 51 159 c 0,8,9
 51 189 51 189 50 249 c 128,-1,10
 49 309 49 309 49 340 c 0,11,12
 49 345 49 345 40.5 351.5 c 128,-1,13
 32 358 32 358 32 364 c 0,14,15
 32 373 32 373 58.5 398 c 128,-1,16
 85 423 85 423 96 425 c 1,17,-1
 100 420 l 1,18,-1
 99 62 l 2,19,20
 99 55 99 55 108.5 37 c 128,-1,21
 118 19 118 19 118 1 c 1,0,1
EndSplineSet
EndChar

StartChar: two
Encoding: 50 50 21
Width: 297
Flags: W
LayerCount: 2
Fore
SplineSet
287 294 m 0,0,1
 287 230 287 230 245 179 c 0,2,3
 223 152 223 152 166 110 c 0,4,5
 123 78 123 78 121 61 c 1,6,-1
 122 61 l 1,7,8
 128 57 128 57 138 57 c 0,9,10
 228 57 228 57 273 89 c 1,11,12
 278 82 278 82 278 55 c 0,13,14
 278 20 278 20 272.5 13.5 c 128,-1,15
 267 7 267 7 223 3 c 0,16,17
 187 0 187 0 169 0 c 2,18,-1
 11 0 l 1,19,20
 13 16 13 16 24 46 c 1,21,22
 45 75 45 75 105 123 c 0,23,24
 173 177 173 177 196 203 c 0,25,26
 239 252 239 252 239 302 c 0,27,28
 239 362 239 362 157 362 c 0,29,30
 98 362 98 362 68 278 c 1,31,-1
 67 277 l 1,32,33
 56 282 56 282 42 302.5 c 128,-1,34
 28 323 28 323 28 335 c 0,35,36
 28 358 28 358 81 388 c 0,37,38
 131 416 131 416 157 416 c 0,39,40
 287 416 287 416 287 294 c 0,0,1
EndSplineSet
EndChar

StartChar: three
Encoding: 51 51 22
Width: 300
Flags: W
LayerCount: 2
Fore
SplineSet
288 -71 m 0,0,1
 288 -156 288 -156 241 -212 c 0,2,3
 191 -272 191 -272 107 -272 c 0,4,5
 65 -272 65 -272 27 -252 c 128,-1,6
 -11 -232 -11 -232 -30 -197 c 1,7,8
 -25 -184 -25 -184 -7 -168 c 128,-1,9
 11 -152 11 -152 25 -149 c 1,10,11
 34 -213 34 -213 107 -213 c 0,12,13
 162 -213 162 -213 197 -166 c 0,14,15
 229 -123 229 -123 229 -66 c 0,16,17
 229 -15 229 -15 203 26 c 0,18,19
 173 73 173 73 124 73 c 0,20,21
 94 73 94 73 65 53 c 1,22,-1
 63 54 l 1,23,-1
 63 116 l 1,24,25
 73 127 73 127 96.5 141.5 c 128,-1,26
 120 156 120 156 128 163 c 0,27,28
 194 218 194 218 194 297 c 0,29,30
 194 326 194 326 176.5 344 c 128,-1,31
 159 362 159 362 130 362 c 0,32,33
 67 362 67 362 40 278 c 1,34,35
 30 281 30 281 15.5 300.5 c 128,-1,36
 1 320 1 320 1 331 c 0,37,38
 1 363 1 363 61 393 c 1,39,40
 114 418 114 418 151 418 c 0,41,42
 196 418 196 418 223 377 c 1,43,44
 248 341 248 341 248 295 c 0,45,46
 248 246 248 246 226 198 c 0,47,48
 202 145 202 145 162 124 c 1,49,50
 184 112 184 112 225 83 c 1,51,52
 288 27 288 27 288 -71 c 0,0,1
EndSplineSet
EndChar

StartChar: four
Encoding: 52 52 23
Width: 360
Flags: W
LayerCount: 2
Fore
SplineSet
329 0 m 1,0,-1
 274 0 l 1,1,-1
 274 -255 l 2,2,3
 274 -279 274 -279 268 -279 c 0,4,5
 261 -279 261 -279 234 -254 c 128,-1,6
 207 -229 207 -229 207 -223 c 0,7,8
 207 -218 207 -218 212 -208.5 c 128,-1,9
 217 -199 217 -199 217 -193 c 2,10,-1
 217 0 l 1,11,-1
 14 0 l 1,12,13
 8 9 8 9 8 18 c 0,14,15
 8 23 8 23 59 111 c 1,16,17
 116 207 116 207 121 217 c 0,18,19
 159 293 159 293 192 399 c 1,20,21
 196 416 196 416 209 448 c 1,22,23
 216 459 216 459 237 468.5 c 128,-1,24
 258 478 258 478 272 478 c 1,25,26
 275 477 275 477 279 476 c 1,27,28
 280 471 280 471 280 471 c 1,29,30
 280 451 280 451 190 238 c 0,31,32
 177 206 177 206 97 70 c 1,33,34
 99 54 99 54 118 54 c 2,35,-1
 217 54 l 1,36,-1
 217 208 l 2,37,38
 217 213 217 213 274 259 c 1,39,-1
 274 54 l 1,40,-1
 329 54 l 1,41,-1
 329 0 l 1,0,-1
EndSplineSet
EndChar

StartChar: five
Encoding: 53 53 24
Width: 339
Flags: W
LayerCount: 2
Fore
SplineSet
306 364 m 1,0,-1
 304 361 l 1,1,-1
 147 361 l 1,2,3
 131 314 131 314 99 160 c 1,4,5
 109 165 109 165 126 165 c 0,6,7
 155 165 155 165 190 149 c 0,8,9
 249 122 249 122 274 76 c 0,10,11
 296 36 296 36 296 -33 c 0,12,13
 296 -127 296 -127 247 -199 c 0,14,15
 192 -280 192 -280 103 -280 c 0,16,17
 68 -280 68 -280 30 -267 c 0,18,19
 -20 -250 -20 -250 -20 -223 c 0,20,21
 -20 -214 -20 -214 1 -194 c 0,22,23
 17 -178 17 -178 30 -169 c 1,24,-1
 31 -170 l 1,25,26
 30 -174 30 -174 28 -180 c 1,27,28
 28 -197 28 -197 57 -209 c 0,29,30
 81 -219 81 -219 100 -219 c 0,31,32
 168 -219 168 -219 206 -148 c 0,33,34
 237 -91 237 -91 237 -16 c 0,35,36
 237 40 237 40 196 76 c 1,37,38
 156 109 156 109 99 109 c 0,39,40
 82 109 82 109 66 102 c 1,41,-1
 65 102 l 1,42,-1
 48 94 l 1,43,-1
 45 94 l 2,44,45
 23 94 23 94 23 116 c 0,46,47
 23 125 23 125 58 259 c 0,48,49
 91 389 91 389 100 416 c 1,50,-1
 273 416 l 1,51,52
 285 402 285 402 306 370 c 1,53,-1
 306 364 l 1,0,-1
EndSplineSet
EndChar

StartChar: six
Encoding: 54 54 25
Width: 348
Flags: W
LayerCount: 2
Fore
SplineSet
327 192 m 0,0,1
 327 110 327 110 290 59 c 0,2,3
 248 1 248 1 169 1 c 0,4,5
 100 1 100 1 57 67 c 0,6,7
 20 124 20 124 20 197 c 0,8,9
 20 328 20 328 96 454 c 0,10,11
 167 570 167 570 281 650 c 1,12,13
 289 626 289 626 289 602 c 0,14,15
 289 595 289 595 288 571 c 1,16,17
 246 556 246 556 194 503 c 0,18,19
 137 446 137 446 134 406 c 1,20,-1
 151 414 l 1,21,-1
 152 414 l 1,22,23
 162 421 162 421 173 421 c 0,24,25
 247 421 247 421 291 340 c 0,26,27
 327 273 327 273 327 192 c 0,0,1
279 200 m 0,28,29
 279 254 279 254 251 305 c 0,30,31
 218 366 218 366 169 366 c 0,32,33
 118 366 118 366 90 306 c 0,34,35
 69 259 69 259 69 200 c 0,36,37
 69 145 69 145 91 105 c 0,38,39
 119 55 119 55 169 55 c 0,40,41
 279 55 279 55 279 200 c 0,28,29
EndSplineSet
EndChar

StartChar: seven
Encoding: 55 55 26
Width: 284
Flags: W
LayerCount: 2
Fore
SplineSet
291 409 m 1,0,1
 290 396 290 396 276 365 c 0,2,3
 205 203 205 203 174 1 c 1,4,5
 165 -79 165 -79 156 -158 c 0,6,7
 144 -271 144 -271 130 -306 c 1,8,-1
 125 -308 l 1,9,10
 113 -300 113 -300 100.5 -268 c 128,-1,11
 88 -236 88 -236 88 -219 c 0,12,13
 88 -199 88 -199 95 -168 c 0,14,15
 105 -124 105 -124 106 -117 c 0,16,17
 116 -46 116 -46 126 25 c 0,18,19
 138 108 138 108 153 165 c 0,20,21
 156 177 156 177 184 253 c 0,22,23
 210 322 210 322 210 330 c 0,24,25
 210 343 210 343 188 343 c 2,26,-1
 37 343 l 2,27,28
 23 343 23 343 17 335 c 1,29,-1
 13 333 l 1,30,31
 12 340 12 340 12 340 c 1,32,33
 12 358 12 358 19 384 c 1,34,35
 29 416 29 416 42 416 c 2,36,-1
 284 416 l 1,37,-1
 291 409 l 1,0,1
EndSplineSet
EndChar

StartChar: eight
Encoding: 56 56 27
Width: 342
Flags: W
LayerCount: 2
Fore
SplineSet
334 177 m 0,0,1
 334 104 334 104 287.5 52 c 128,-1,2
 241 0 241 0 168 0 c 0,3,4
 100 0 100 0 58 60 c 0,5,6
 20 114 20 114 20 185 c 0,7,8
 20 220 20 220 43 262 c 0,9,10
 47 269 47 269 88 330 c 1,11,12
 60 363 60 363 50 392 c 128,-1,13
 40 421 40 421 40 466 c 0,14,15
 40 523 40 523 80 565.5 c 128,-1,16
 120 608 120 608 177 608 c 0,17,18
 241 608 241 608 281.5 570 c 128,-1,19
 322 532 322 532 322 468 c 0,20,21
 322 416 322 416 312 392 c 0,22,23
 305 377 305 377 266 330 c 1,24,25
 334 227 334 227 334 177 c 0,0,1
274 467 m 256,26,27
 274 510 274 510 241 533 c 0,28,29
 212 552 212 552 167 552 c 0,30,31
 130 552 130 552 106 522 c 128,-1,32
 82 492 82 492 82 455 c 0,33,34
 82 414 82 414 110.5 388 c 128,-1,35
 139 362 139 362 180 362 c 0,36,37
 222 362 222 362 248 393 c 128,-1,38
 274 424 274 424 274 467 c 256,26,27
286 170 m 0,39,40
 286 219 286 219 254.5 255 c 128,-1,41
 223 291 223 291 174 291 c 0,42,43
 131 291 131 291 98 255.5 c 128,-1,44
 65 220 65 220 65 177 c 0,45,46
 65 125 65 125 98 89.5 c 128,-1,47
 131 54 131 54 183 54 c 0,48,49
 230 54 230 54 258 88 c 128,-1,50
 286 122 286 122 286 170 c 0,39,40
EndSplineSet
EndChar

StartChar: nine
Encoding: 57 57 28
Width: 348
Flags: W
LayerCount: 2
Fore
SplineSet
324 222 m 0,0,1
 324 93 324 93 243 -27 c 0,2,3
 196 -96 196 -96 66 -226 c 1,4,5
 55 -209 55 -209 55 -153 c 1,6,7
 55 -153 55 -153 56 -149 c 1,8,9
 98 -134 98 -134 151 -81 c 1,10,11
 206 -24 206 -24 210 16 c 1,12,13
 181 0 181 0 170 0 c 0,14,15
 97 0 97 0 53 81 c 0,16,17
 17 148 17 148 17 229 c 0,18,19
 17 308 17 308 55 359 c 0,20,21
 97 416 97 416 174 416 c 0,22,23
 246 416 246 416 288 353 c 0,24,25
 324 298 324 298 324 222 c 0,0,1
274 220 m 0,26,27
 274 279 274 279 253 318 c 0,28,29
 227 366 227 366 172 366 c 256,30,31
 117 366 117 366 89 326 c 0,32,33
 64 290 64 290 64 233 c 256,34,35
 64 176 64 176 91 121 c 0,36,37
 123 55 123 55 174 55 c 0,38,39
 224 55 224 55 252 115 c 0,40,41
 274 163 274 163 274 220 c 0,26,27
EndSplineSet
EndChar

StartChar: colon
Encoding: 58 58 29
Width: 127
Flags: W
LayerCount: 2
Fore
SplineSet
104 296 m 0,0,1
 104 260 104 260 64 260 c 0,2,3
 47 260 47 260 34 273 c 128,-1,4
 21 286 21 286 21 302 c 0,5,6
 21 317 21 317 33.5 326 c 128,-1,7
 46 335 46 335 62 335 c 2,8,-1
 71 335 l 2,9,10
 85 335 85 335 94.5 323 c 128,-1,11
 104 311 104 311 104 296 c 0,0,1
109 17 m 0,12,13
 109 -14 109 -14 71 -18 c 1,14,-1
 71 -19 l 1,15,-1
 70 -18 l 1,16,17
 53 -18 53 -18 39.5 -6 c 128,-1,18
 26 6 26 6 26 23 c 0,19,20
 26 38 26 38 38.5 47 c 128,-1,21
 51 56 51 56 67 56 c 2,22,-1
 76 56 l 2,23,24
 90 56 90 56 99.5 43.5 c 128,-1,25
 109 31 109 31 109 17 c 0,12,13
EndSplineSet
EndChar

StartChar: semicolon
Encoding: 59 59 30
Width: 127
Flags: W
LayerCount: 2
Fore
SplineSet
104 296 m 0,0,1
 104 260 104 260 64 260 c 0,2,3
 47 260 47 260 34 273 c 128,-1,4
 21 286 21 286 21 302 c 0,5,6
 21 317 21 317 33.5 326 c 128,-1,7
 46 335 46 335 62 335 c 2,8,-1
 71 335 l 2,9,10
 85 335 85 335 94.5 323 c 128,-1,11
 104 311 104 311 104 296 c 0,0,1
111 6 m 2,12,13
 111 -12 111 -12 90 -49 c 0,14,15
 68 -89 68 -89 53 -89 c 0,16,17
 48 -89 48 -89 48 -77 c 0,18,19
 48 -60 48 -60 69 -49 c 1,20,-1
 69 -47 l 1,21,22
 78 -37 78 -37 78 -25 c 1,23,-1
 71 -18 l 1,24,-1
 71 -19 l 1,25,26
 26 -16 26 -16 26 25 c 1,27,-1
 28 30 l 1,28,-1
 28 32 l 1,29,30
 37 56 37 56 67 56 c 2,31,-1
 76 56 l 2,32,33
 90 56 90 56 99 40 c 0,34,35
 100 38 100 38 111 13 c 1,36,-1
 111 6 l 2,12,13
EndSplineSet
EndChar

StartChar: less
Encoding: 60 60 31
Width: 347
Flags: W
LayerCount: 2
Fore
SplineSet
338 72 m 1,0,1
 331 50 331 50 323 29 c 1,2,3
 310 0 310 0 296 0 c 2,4,-1
 33 0 l 1,5,-1
 28 8 l 1,6,7
 28 37 28 37 50 90 c 128,-1,8
 72 143 72 143 72 172 c 0,9,10
 72 212 72 212 43 285.5 c 128,-1,11
 14 359 14 359 14 399 c 0,12,13
 14 473 14 473 60.5 528.5 c 128,-1,14
 107 584 107 584 180 584 c 0,15,16
 271 584 271 584 305 529 c 1,17,18
 306 521 306 521 306 521 c 1,19,20
 306 509 306 509 293 491 c 128,-1,21
 280 473 280 473 268 470 c 1,22,-1
 262 475 l 1,23,24
 238 521 238 521 173 521 c 0,25,26
 128 521 128 521 100 483.5 c 128,-1,27
 72 446 72 446 72 400 c 0,28,29
 72 359 72 359 102 285 c 128,-1,30
 132 211 132 211 132 170 c 0,31,32
 132 147 132 147 125 111 c 0,33,34
 116 63 116 63 115 53 c 1,35,-1
 275 53 l 2,36,37
 296 53 296 53 307.5 63.5 c 128,-1,38
 319 74 319 74 331 86 c 1,39,-1
 338 72 l 1,0,1
EndSplineSet
EndChar

StartChar: equal
Encoding: 61 61 32
Width: 342
Flags: W
LayerCount: 2
Fore
SplineSet
308 317 m 0,0,1
 302 317 302 317 293.5 326 c 128,-1,2
 285 335 285 335 275 335 c 0,3,4
 238 335 238 335 181 317 c 0,5,6
 135 302 135 302 90 288 c 0,7,8
 85 286 85 286 74 278.5 c 128,-1,9
 63 271 63 271 59 271 c 0,10,11
 51 271 51 271 51 305 c 2,12,-1
 51 322 l 2,13,14
 51 352 51 352 58 352 c 0,15,16
 59 352 59 352 68.5 347 c 128,-1,17
 78 342 78 342 85 342 c 0,18,19
 101 342 101 342 178 362 c 0,20,21
 251 381 251 381 273 390 c 1,22,-1
 272 390 l 1,23,24
 284 397 284 397 309 410 c 1,25,26
 318 409 318 409 318 368 c 1,27,-1
 319 349 l 1,28,29
 319 317 319 317 308 317 c 0,0,1
308 185 m 0,30,31
 302 185 302 185 293.5 194 c 128,-1,32
 285 203 285 203 275 203 c 0,33,34
 238 203 238 203 181 185 c 0,35,36
 135 170 135 170 90 156 c 0,37,38
 85 154 85 154 74 146.5 c 128,-1,39
 63 139 63 139 59 139 c 0,40,41
 51 139 51 139 51 173 c 2,42,-1
 51 190 l 2,43,44
 51 220 51 220 58 220 c 0,45,46
 59 220 59 220 68.5 215 c 128,-1,47
 78 210 78 210 85 210 c 0,48,49
 101 210 101 210 178 230 c 0,50,51
 251 249 251 249 273 258 c 1,52,-1
 272 258 l 1,53,54
 284 265 284 265 309 278 c 1,55,56
 318 277 318 277 318 236 c 1,57,-1
 319 217 l 1,58,59
 319 185 319 185 308 185 c 0,30,31
EndSplineSet
EndChar

StartChar: greater
Encoding: 62 62 33
Width: 323
Flags: W
LayerCount: 2
Fore
SplineSet
441 -189 m 1,0,1
 436 -205 436 -205 416.5 -236 c 128,-1,2
 397 -267 397 -267 385 -276 c 1,3,4
 342 -197 342 -197 236 -90 c 0,5,6
 121 27 121 27 85 82 c 0,7,8
 16 187 16 187 16 313 c 0,9,10
 16 418 16 418 58 493 c 0,11,12
 110 584 110 584 207 584 c 0,13,14
 255 584 255 584 285 564 c 0,15,16
 306 549 306 549 342 505 c 1,17,-1
 344 504 l 1,18,19
 313 448 313 448 289 436 c 1,20,21
 279 470 279 470 268 505 c 1,22,23
 256 533 256 533 202 533 c 0,24,25
 135 533 135 533 100 443 c 0,26,27
 74 375 74 375 74 295 c 0,28,29
 74 208 74 208 109 164 c 1,30,-1
 115 161 l 1,31,32
 146 168 146 168 291 304 c 1,33,34
 294 289 294 289 294 232 c 0,35,36
 294 211 294 211 291 196 c 1,37,38
 253 196 253 196 199 168 c 0,39,40
 138 136 138 136 138 103 c 0,41,42
 138 88 138 88 250 -34 c 0,43,44
 358 -151 358 -151 385 -171 c 0,45,46
 398 -180 398 -180 440 -187 c 1,47,-1
 441 -189 l 1,0,1
EndSplineSet
EndChar

StartChar: question
Encoding: 63 63 34
Width: 297
Flags: W
LayerCount: 2
Fore
SplineSet
284 468 m 0,0,1
 284 389 284 389 253 356 c 1,2,-1
 253 355 l 1,3,4
 214 309 214 309 175 262 c 0,5,6
 126 204 126 204 126 157 c 0,7,8
 126 150 126 150 128.5 136.5 c 128,-1,9
 131 123 131 123 131 116 c 0,10,11
 131 103 131 103 102 103 c 0,12,13
 68 103 68 103 68 172 c 0,14,15
 68 181 68 181 79 216 c 0,16,17
 91 255 91 255 133 303 c 0,18,19
 199 378 199 378 203 383 c 0,20,21
 237 431 237 431 237 477 c 0,22,23
 237 531 237 531 157 531 c 0,24,25
 120 531 120 531 98 506 c 0,26,27
 84 490 84 490 68 448 c 1,28,-1
 67 447 l 1,29,30
 56 450 56 450 42 471 c 128,-1,31
 28 492 28 492 28 504 c 0,32,33
 28 527 28 527 81 557 c 0,34,35
 130 584 130 584 157 584 c 0,36,37
 284 584 284 584 284 468 c 0,0,1
147 20 m 0,38,39
 147 -11 147 -11 109 -15 c 1,40,-1
 109 -16 l 1,41,-1
 108 -15 l 1,42,43
 92 -15 92 -15 78.5 -3 c 128,-1,44
 65 9 65 9 65 25 c 0,45,46
 65 59 65 59 105 59 c 2,47,-1
 114 59 l 2,48,49
 128 59 128 59 137.5 46.5 c 128,-1,50
 147 34 147 34 147 20 c 0,38,39
EndSplineSet
EndChar

StartChar: at
Encoding: 64 64 35
Width: 269
Flags: W
LayerCount: 2
Fore
SplineSet
256 203 m 0,0,1
 256 175 256 175 242 149 c 0,2,3
 225 119 225 119 199 119 c 2,4,-1
 129 119 l 2,5,6
 64 119 64 119 64 170 c 0,7,8
 64 206 64 206 114 233 c 128,-1,9
 164 260 164 260 164 279 c 0,10,11
 164 301 164 301 143 301 c 2,12,-1
 105 301 l 2,13,14
 98 301 98 301 87 285 c 1,15,-1
 87 290 l 2,16,17
 87 292 87 292 84 320 c 1,18,-1
 87 327 l 1,19,20
 94 328 94 328 102 328 c 2,21,-1
 162 328 l 2,22,23
 194 328 194 328 194 275 c 0,24,25
 194 268 194 268 193 253.5 c 128,-1,26
 192 239 192 239 192 232 c 2,27,-1
 192 151 l 1,28,29
 198 149 198 149 206 149 c 0,30,31
 226 149 226 149 226 215 c 0,32,33
 226 364 226 364 133 364 c 256,34,35
 40 364 40 364 40 203 c 0,36,37
 40 156 40 156 62 114 c 0,38,39
 88 64 88 64 131 64 c 0,40,41
 158 64 158 64 185.5 86 c 128,-1,42
 213 108 213 108 231 112 c 1,43,-1
 236 110 l 1,44,-1
 236 109 l 1,45,46
 200 32 200 32 131 32 c 0,47,48
 70 32 70 32 36 94 c 0,49,50
 8 145 8 145 8 212 c 256,51,52
 8 279 8 279 36 330 c 0,53,54
 69 392 69 392 131 392 c 0,55,56
 256 392 256 392 256 203 c 0,0,1
161 146 m 1,57,-1
 161 225 l 1,58,-1
 158 225 l 2,59,60
 138 225 138 225 113 206 c 128,-1,61
 88 187 88 187 88 168 c 0,62,63
 88 167 88 167 89 155 c 1,64,65
 115 141 115 141 131 141 c 2,66,-1
 143 141 l 2,67,68
 156 141 156 141 161 146 c 1,57,-1
EndSplineSet
EndChar

StartChar: A
Encoding: 65 65 36
Width: 373
Flags: W
LayerCount: 2
Fore
SplineSet
366 1 m 1,0,1
 360 0 360 0 353 0 c 2,2,-1
 279 0 l 1,3,4
 279 1 279 1 289 41 c 1,5,-1
 291 43 l 1,6,7
 296 55 296 55 296 62 c 2,8,-1
 296 176 l 2,9,10
 296 205 296 205 273 205 c 0,11,12
 268 205 268 205 192 181.5 c 128,-1,13
 116 158 116 158 112 155 c 0,14,15
 98 146 98 146 82 50 c 0,16,17
 71 -11 71 -11 61 -72 c 1,18,19
 55 -95 55 -95 26 -170 c 0,20,21
 7 -219 7 -219 5 -223 c 0,22,23
 -11 -262 -11 -262 -20 -268 c 1,24,-1
 -25 -266 l 1,25,26
 -64 -219 -64 -219 -64 -164 c 1,27,28
 -56 -157 -56 -157 -29 -144 c 1,29,30
 16 -80 16 -80 41 117 c 1,31,32
 55 258 55 258 69 400 c 1,33,34
 76 458 76 458 109 514 c 0,35,36
 149 584 149 584 198 584 c 0,37,38
 260 584 260 584 296 518 c 0,39,40
 323 467 323 467 328 396 c 1,41,42
 331 304 331 304 334 211 c 1,43,44
 340 83 340 83 356 38 c 1,45,46
 367 25 367 25 366 1 c 1,0,1
203 529 m 0,47,48
 148 529 148 529 122 415 c 0,49,50
 105 341 105 341 105 255 c 0,51,52
 105 232 105 232 109 213 c 1,53,54
 171 232 171 232 195 240 c 0,55,56
 263 263 263 263 270 273 c 0,57,58
 279 287 279 287 279 322 c 0,59,60
 279 392 279 392 267 444 c 0,61,62
 248 529 248 529 203 529 c 0,47,48
EndSplineSet
EndChar

StartChar: B
Encoding: 66 66 37
Width: 373
Flags: W
LayerCount: 2
Fore
SplineSet
356 78 m 1,0,1
 330 30 330 30 276 11 c 1,2,3
 233 -3 233 -3 159 -3 c 0,4,5
 137 -3 137 -3 89 -1.5 c 128,-1,6
 41 0 41 0 15 0 c 1,7,8
 15 15 15 15 21 32 c 0,9,10
 32 63 32 63 32 62 c 2,11,-1
 32 523 l 2,12,13
 32 533 32 533 21 550 c 128,-1,14
 10 567 10 567 10 577 c 0,15,16
 10 584 10 584 22 584 c 0,17,18
 35 584 35 584 61 576 c 128,-1,19
 87 568 87 568 100 568 c 0,20,21
 188 568 188 568 248 536 c 0,22,23
 324 496 324 496 324 416 c 0,24,25
 324 345 324 345 256 310 c 1,26,27
 370 246 370 246 370 162 c 0,28,29
 370 152 370 152 368 142 c 1,30,31
 368 121 368 121 356 78 c 1,0,1
302 147 m 0,32,33
 302 210 302 210 248 247 c 0,34,35
 201 280 201 280 135 280 c 0,36,37
 117 280 117 280 102 275 c 1,38,39
 102 282 102 282 102 295 c 0,40,41
 101 309 101 309 101 315 c 0,42,43
 101 340 101 340 106 354 c 1,44,45
 116 345 116 345 126 335 c 0,46,47
 133 329 133 329 154 329 c 0,48,49
 194 329 194 329 228.5 353 c 128,-1,50
 263 377 263 377 263 415 c 0,51,52
 263 468 263 468 202 495 c 0,53,54
 156 516 156 516 95 516 c 1,55,-1
 83 507 l 1,56,-1
 83 67 l 1,57,58
 100 59 100 59 109 59 c 2,59,-1
 165 59 l 2,60,61
 302 59 302 59 302 147 c 0,32,33
EndSplineSet
EndChar

StartChar: C
Encoding: 67 67 38
Width: 323
Flags: W
LayerCount: 2
Fore
SplineSet
425 -228 m 0,0,1
 425 -276 425 -276 397 -318 c 1,2,-1
 395 -319 l 1,3,4
 387 -306 387 -306 364 -258 c 1,5,6
 348 -221 348 -221 326 -198 c 0,7,8
 257 -128 257 -128 188 -58 c 1,9,10
 107 27 107 27 68 96 c 0,11,12
 16 188 16 188 16 283 c 0,13,14
 16 397 16 397 56 479 c 0,15,16
 107 584 107 584 209 584 c 0,17,18
 246 584 246 584 284.5 556 c 128,-1,19
 323 528 323 528 323 493 c 0,20,21
 323 478 323 478 306 461 c 128,-1,22
 289 444 289 444 274 440 c 1,23,-1
 272 443 l 1,24,25
 272 446 272 446 273 454 c 0,26,27
 273 462 273 462 273 466 c 0,28,29
 273 493 273 493 252.5 510.5 c 128,-1,30
 232 528 232 528 205 528 c 0,31,32
 182 528 182 528 149 505 c 0,33,34
 67 447 67 447 67 283 c 0,35,36
 67 182 67 182 160 62 c 0,37,38
 211 -4 211 -4 332 -118 c 0,39,40
 425 -206 425 -206 425 -228 c 0,0,1
EndSplineSet
EndChar

StartChar: D
Encoding: 68 68 39
Width: 406
Flags: W
LayerCount: 2
Fore
SplineSet
400 249 m 0,0,1
 400 110 400 110 306 49 c 0,2,3
 229 0 229 0 81 0 c 2,4,-1
 23 0 l 1,5,6
 23 13 23 13 31.5 34 c 128,-1,7
 40 55 40 55 40 62 c 2,8,-1
 40 521 l 2,9,10
 40 534 40 534 29 545 c 0,11,12
 14 559 14 559 14 577 c 1,13,14
 14 577 14 577 16 583 c 1,15,16
 23 584 23 584 23 584 c 1,17,18
 35 584 35 584 57 574.5 c 128,-1,19
 79 565 79 565 91 565 c 0,20,21
 207 565 207 565 303.5 465 c 128,-1,22
 400 365 400 365 400 249 c 0,0,1
336 249 m 0,23,24
 336 369 336 369 214 455 c 0,25,26
 164 490 164 490 127 490 c 0,27,28
 91 490 91 490 91 456 c 2,29,-1
 91 104 l 2,30,31
 91 72 91 72 163 72 c 0,32,33
 241 72 241 72 288.5 121.5 c 128,-1,34
 336 171 336 171 336 249 c 0,23,24
EndSplineSet
EndChar

StartChar: E
Encoding: 69 69 40
Width: 347
Flags: W
LayerCount: 2
Fore
SplineSet
351 96 m 1,0,1
 351 77 351 77 315 0 c 1,2,-1
 15 0 l 1,3,4
 15 10 15 10 23.5 28.5 c 128,-1,5
 32 47 32 47 32 57 c 2,6,-1
 32 525 l 2,7,8
 32 539 32 539 23 567 c 1,9,10
 15 572 15 572 15 583 c 1,11,12
 43 583 43 583 105 585 c 0,13,14
 164 587 164 587 196 587 c 0,15,16
 250 587 250 587 291 582 c 1,17,18
 297 570 297 570 304 556 c 0,19,20
 313 537 313 537 322 497 c 1,21,-1
 321 495 l 1,22,23
 314 499 314 499 292 518 c 0,24,25
 279 529 279 529 253 529 c 2,26,-1
 100 529 l 2,27,28
 83 529 83 529 83 507 c 2,29,-1
 83 350 l 2,30,31
 83 308 83 308 106 308 c 0,32,33
 121 308 121 308 177 337.5 c 128,-1,34
 233 367 233 367 253 367 c 0,35,36
 263 367 263 367 263 310 c 0,37,38
 263 266 263 266 254 264 c 1,39,40
 253 265 253 265 237 280 c 0,41,42
 230 287 230 287 214 287 c 0,43,44
 185 287 185 287 136 260 c 0,45,46
 83 230 83 230 83 204 c 2,47,-1
 83 87 l 2,48,49
 83 53 83 53 105 53 c 2,50,-1
 280 53 l 2,51,52
 296 53 296 53 312 66 c 0,53,54
 321 74 321 74 330 83 c 0,55,56
 336 90 336 90 350 101 c 1,57,58
 351 96 351 96 351 96 c 1,0,1
EndSplineSet
EndChar

StartChar: F
Encoding: 70 70 41
Width: 295
Flags: W
LayerCount: 2
Fore
SplineSet
319 497 m 1,0,-1
 318 495 l 1,1,2
 311 499 311 499 289 518 c 0,3,4
 277 529 277 529 250 529 c 2,5,-1
 97 529 l 2,6,7
 80 529 80 529 80 507 c 2,8,-1
 80 280 l 2,9,10
 80 238 80 238 103 238 c 0,11,12
 118 238 118 238 174 267.5 c 128,-1,13
 230 297 230 297 250 297 c 0,14,15
 260 297 260 297 260 241 c 0,16,17
 260 197 260 197 251 195 c 1,18,19
 251 195 251 195 234 211 c 0,20,21
 225 219 225 219 211 219 c 0,22,23
 182 219 182 219 133 191 c 0,24,25
 80 161 80 161 80 135 c 2,26,-1
 80 -193 l 2,27,28
 80 -205 80 -205 97 -236 c 1,29,30
 95 -242 95 -242 87 -243 c 1,31,-1
 87 -244 l 1,32,33
 65 -244 65 -244 12 -165 c 1,34,35
 12 -156 12 -156 20.5 -138.5 c 128,-1,36
 29 -121 29 -121 29 -108 c 2,37,-1
 29 523 l 2,38,39
 29 550 29 550 20 567 c 1,40,41
 16 572 16 572 12 583 c 1,42,43
 39 583 39 583 102 585 c 0,44,45
 161 587 161 587 193 587 c 0,46,47
 247 587 247 587 288 582 c 1,48,49
 298 561 298 561 307 539 c 0,50,51
 319 510 319 510 319 497 c 1,0,-1
EndSplineSet
EndChar

StartChar: G
Encoding: 71 71 42
Width: 390
Flags: W
LayerCount: 2
Fore
SplineSet
374 291 m 1,0,1
 375 273 375 273 361 249 c 0,2,3
 355 239 355 239 354 155 c 0,4,5
 353 95 353 95 354 -6 c 0,6,7
 355 -137 355 -137 355 -121 c 1,8,9
 345 -105 345 -105 249 -65 c 0,10,11
 142 -20 142 -20 90 32 c 0,12,13
 8 113 8 113 8 241 c 256,14,15
 8 369 8 369 74 476 c 0,16,17
 145 593 145 593 262 624 c 1,18,19
 271 614 271 614 293 581 c 128,-1,20
 315 548 315 548 319 537 c 1,21,-1
 318 536 l 1,22,23
 294 542 294 542 265 542 c 0,24,25
 261 542 261 542 253 540 c 0,26,27
 155 515 155 515 107 426 c 0,28,29
 67 351 67 351 67 241 c 0,30,31
 67 99 67 99 186 25 c 0,32,33
 239 -8 239 -8 280 -8 c 0,34,35
 304 -8 304 -8 304 4 c 2,36,-1
 304 229 l 2,37,38
 304 239 304 239 295.5 259 c 128,-1,39
 287 279 287 279 287 291 c 1,40,41
 294 292 294 292 302 292 c 2,42,-1
 363 292 l 2,43,44
 365 292 365 292 374 291 c 1,0,1
EndSplineSet
EndChar

StartChar: H
Encoding: 72 72 43
Width: 342
Flags: W
LayerCount: 2
Fore
SplineSet
342 1 m 1,0,1
 336 0 336 0 329 0 c 2,2,-1
 255 0 l 1,3,4
 255 14 255 14 263.5 34 c 128,-1,5
 272 54 272 54 272 62 c 2,6,-1
 272 266 l 1,7,-1
 270 271 l 1,8,-1
 261 272 l 1,9,10
 251 267 251 267 164 235 c 0,11,12
 90 207 90 207 82.5 195.5 c 128,-1,13
 75 184 75 184 75 175 c 2,14,-1
 75 -47 l 2,15,16
 75 -171 75 -171 13 -254 c 0,17,18
 -6 -279 -6 -279 -18 -279 c 0,19,20
 -28 -279 -28 -279 -37 -250 c 0,21,22
 -44 -226 -44 -226 -44 -212 c 0,23,24
 -44 -205 -44 -205 -21.5 -191 c 128,-1,25
 1 -177 1 -177 10 -155 c 0,26,27
 24 -122 24 -122 24 -62 c 2,28,-1
 24 520 l 2,29,30
 24 528 24 528 15.5 548 c 128,-1,31
 7 568 7 568 7 582 c 1,32,-1
 81 582 l 2,33,34
 88 582 88 582 94 581 c 1,35,36
 94 565 94 565 84.5 545.5 c 128,-1,37
 75 526 75 526 75 519 c 2,38,-1
 75 264 l 1,39,40
 75 264 75 264 77 258 c 1,41,-1
 81 256 l 1,42,43
 99 259 99 259 171 288 c 1,44,45
 240 317 240 317 260 329 c 1,46,-1
 262 329 l 1,47,48
 275 336 275 336 275 428 c 0,49,50
 275 449 275 449 273.5 491 c 128,-1,51
 272 533 272 533 272 552 c 1,52,53
 287 573 287 573 294 583 c 0,54,55
 311 604 311 604 320 606 c 1,56,-1
 323 600 l 1,57,-1
 323 62 l 2,58,59
 323 55 323 55 332.5 36 c 128,-1,60
 342 17 342 17 342 1 c 1,0,1
EndSplineSet
EndChar

StartChar: I
Encoding: 73 73 44
Width: 132
Flags: W
LayerCount: 2
Fore
SplineSet
118 1 m 1,0,1
 113 0 113 0 106 0 c 2,2,-1
 31 0 l 1,3,4
 31 12 31 12 34 22 c 0,5,6
 40 38 40 38 41 41 c 1,7,-1
 43 43 l 1,8,9
 48 57 48 57 48 62 c 2,10,-1
 48 521 l 2,11,12
 48 518 48 518 40 546 c 1,13,14
 31 555 31 555 31 578 c 2,15,-1
 31 583 l 1,16,17
 41 584 41 584 42 584 c 2,18,-1
 105 584 l 2,19,20
 112 584 112 584 118 582 c 1,21,22
 118 566 118 566 108.5 547 c 128,-1,23
 99 528 99 528 99 521 c 2,24,-1
 99 62 l 2,25,26
 99 55 99 55 108.5 37 c 128,-1,27
 118 19 118 19 118 1 c 1,0,1
EndSplineSet
EndChar

StartChar: J
Encoding: 74 74 45
Width: 168
Flags: W
LayerCount: 2
Fore
SplineSet
142 582 m 1,0,1
 142 566 142 566 132.5 547 c 128,-1,2
 123 528 123 528 123 521 c 2,3,-1
 123 16 l 2,4,5
 123 -95 123 -95 -21 -198 c 0,6,7
 -110 -262 -110 -262 -162 -262 c 1,8,9
 -199 -241 -199 -241 -199 -183 c 0,10,11
 -199 -169 -199 -169 -191 -166 c 1,12,-1
 -172 -178 l 1,13,14
 -161 -180 -161 -180 -152 -180 c 0,15,16
 -89 -180 -89 -180 -8.5 -112.5 c 128,-1,17
 72 -45 72 -45 72 16 c 2,18,-1
 72 521 l 2,19,20
 72 530 72 530 63.5 549.5 c 128,-1,21
 55 569 55 569 55 583 c 1,22,23
 64 584 64 584 66 584 c 2,24,-1
 129 584 l 2,25,26
 136 584 136 584 142 582 c 1,0,1
EndSplineSet
EndChar

StartChar: K
Encoding: 75 75 46
Width: 351
Flags: W
LayerCount: 2
Fore
SplineSet
435 -255 m 1,0,-1
 432 -256 l 1,1,2
 413 -251 413 -251 373 -228 c 0,3,4
 328 -203 328 -203 328 -191 c 0,5,6
 328 -94 328 -94 281 73 c 0,7,8
 232 245 232 245 179 318 c 1,9,10
 166 314 166 314 130 264 c 0,11,12
 101 224 101 224 86 197 c 1,13,-1
 86 61 l 2,14,15
 86 54 86 54 95.5 37 c 128,-1,16
 105 20 105 20 105 1 c 1,17,18
 99 0 99 0 92 0 c 2,19,-1
 18 0 l 1,20,21
 18 25 18 25 30 43 c 0,22,23
 35 50 35 50 35 62 c 2,24,-1
 35 498 l 2,25,26
 35 505 35 505 27 511 c 1,27,28
 18 514 18 514 18 523 c 0,29,30
 18 536 18 536 77 582 c 1,31,-1
 84 584 l 1,32,-1
 88 579 l 1,33,-1
 88 328 l 2,34,35
 88 309 88 309 100 304 c 1,36,37
 117 317 117 317 195.5 421.5 c 128,-1,38
 274 526 274 526 281 546 c 1,39,-1
 271 555 l 1,40,41
 255 561 255 561 255 584 c 1,42,-1
 374 584 l 1,43,-1
 374 581 l 1,44,-1
 373 568 l 1,45,46
 361 557 361 557 340 534 c 0,47,48
 329 521 329 521 224 376 c 1,49,50
 296 223 296 223 324 108 c 1,51,52
 345 15 345 15 366 -78 c 1,53,54
 393 -185 393 -185 435 -255 c 1,0,-1
EndSplineSet
EndChar

StartChar: L
Encoding: 76 76 47
Width: 423
Flags: W
LayerCount: 2
Fore
SplineSet
469 -150 m 0,0,1
 469 -177 469 -177 452 -194.5 c 128,-1,2
 435 -212 435 -212 408 -212 c 0,3,4
 386 -212 386 -212 317 -157 c 0,5,6
 219 -78 219 -78 184 -55 c 0,7,8
 99 0 99 0 37 0 c 0,9,10
 30 0 30 0 26 3 c 1,11,-1
 24 9 l 1,12,-1
 30 29 l 1,13,14
 36 39 36 39 48 60 c 1,15,-1
 48 521 l 2,16,17
 48 526 48 526 40 546 c 1,18,19
 31 556 31 556 31 577 c 2,20,-1
 31 583 l 1,21,22
 40 584 40 584 42 584 c 2,23,-1
 105 584 l 2,24,25
 112 584 112 584 118 582 c 1,26,27
 118 566 118 566 108.5 547 c 128,-1,28
 99 528 99 528 99 521 c 2,29,-1
 99 60 l 1,30,31
 138 43 138 43 213 5 c 0,32,33
 219 1 219 1 321 -82 c 0,34,35
 394 -142 394 -142 434 -142 c 0,36,37
 448 -142 448 -142 463 -136 c 1,38,-1
 468 -139 l 1,39,40
 469 -148 469 -148 469 -150 c 0,0,1
EndSplineSet
EndChar

StartChar: M
Encoding: 77 77 48
Width: 663
Flags: W
LayerCount: 2
Fore
SplineSet
699 -237 m 1,0,-1
 693 -241 l 1,1,2
 644 -236 644 -236 605 -184 c 1,3,4
 599 -19 599 -19 559 222 c 1,5,6
 506 550 506 550 440 550 c 0,7,8
 412 550 412 550 394 520 c 0,9,10
 379 494 379 494 379 464 c 2,11,-1
 379 62 l 2,12,13
 379 52 379 52 387 32 c 0,14,15
 397 9 397 9 398 1 c 1,16,17
 392 0 392 0 385 0 c 2,18,-1
 311 0 l 1,19,-1
 311 7 l 1,20,21
 310 20 310 20 319 36 c 128,-1,22
 328 52 328 52 328 62 c 2,23,-1
 328 464 l 2,24,25
 328 494 328 494 313 520 c 1,26,27
 294 550 294 550 266 550 c 0,28,29
 208 550 208 550 153 273 c 0,30,31
 113 74 113 74 103 -71 c 1,32,33
 102 -122 102 -122 93 -188 c 1,34,35
 86 -203 86 -203 47 -220.5 c 128,-1,36
 8 -238 8 -238 -10 -238 c 0,37,38
 -11 -238 -11 -238 -13 -237 c 1,39,40
 23 -185 23 -185 60 44 c 0,41,42
 107 338 107 338 130 420 c 0,43,44
 181 608 181 608 259 608 c 0,45,46
 313 608 313 608 351 553 c 1,47,48
 373 585 373 585 391.5 596.5 c 128,-1,49
 410 608 410 608 446 608 c 0,50,51
 523 608 523 608 574 421 c 0,52,53
 603 315 603 315 641 48 c 1,54,55
 675 -183 675 -183 697 -230 c 1,56,-1
 697 -231 l 1,57,58
 699 -234 699 -234 699 -237 c 1,0,-1
EndSplineSet
EndChar

StartChar: N
Encoding: 78 78 49
Width: 314
Flags: W
LayerCount: 2
Fore
SplineSet
377 559 m 1,0,-1
 375 557 l 1,1,-1
 372 560 l 1,2,-1
 365 560 l 1,3,4
 334 562 334 562 307 525 c 128,-1,5
 280 488 280 488 280 455 c 2,6,-1
 280 39 l 2,7,8
 280 0 280 0 268 0 c 0,9,10
 253 0 253 0 241 28 c 1,11,12
 207 133 207 133 172 238 c 0,13,14
 115 405 115 405 84 408 c 1,15,-1
 79 400 l 1,16,-1
 80 -218 l 2,17,18
 80 -235 80 -235 25 -260 c 1,19,-1
 21 -260 l 1,20,-1
 19 -261 l 1,21,-1
 15 -258 l 1,22,23
 16 -250 16 -250 23.5 -235.5 c 128,-1,24
 31 -221 31 -221 31 -212 c 2,25,-1
 31 523 l 2,26,27
 31 535 31 535 24 552 c 0,28,29
 19 566 19 566 13 580 c 1,30,-1
 12 581 l 1,31,-1
 14 582 l 1,32,33
 43 571 43 571 98 545 c 1,34,35
 106 540 106 540 163.5 385.5 c 128,-1,36
 221 231 221 231 232 231 c 0,37,38
 237 231 237 231 237 253 c 2,39,-1
 237 455 l 2,40,41
 237 501 237 501 259 547 c 0,42,43
 283 597 283 597 321 615 c 0,44,45
 323 616 323 616 324 616 c 0,46,47
 335 616 335 616 355 593 c 0,48,49
 372 572 372 572 377 559 c 1,0,-1
EndSplineSet
EndChar

StartChar: O
Encoding: 79 79 50
Width: 378
Flags: W
LayerCount: 2
Fore
SplineSet
379 290 m 0,0,1
 379 184 379 184 344 105 c 0,2,3
 297 1 297 1 204 1 c 0,4,5
 110 1 110 1 61 105 c 0,6,7
 23 185 23 185 23 292 c 256,8,9
 23 399 23 399 60 478 c 0,10,11
 109 581 109 581 204 581 c 0,12,13
 297 581 297 581 344 476 c 0,14,15
 379 397 379 397 379 290 c 0,0,1
331 297 m 0,16,17
 331 378 331 378 306 440 c 0,18,19
 273 525 273 525 204 525 c 0,20,21
 129 525 129 525 92 440 c 0,22,23
 65 376 65 376 65 289 c 0,24,25
 65 208 65 208 95 144 c 0,26,27
 133 61 133 61 204 61 c 256,28,29
 275 61 275 61 308 149 c 0,30,31
 331 211 331 211 331 297 c 0,16,17
EndSplineSet
EndChar

StartChar: P
Encoding: 80 80 51
Width: 375
Flags: W
LayerCount: 2
Fore
SplineSet
376 392 m 0,0,1
 376 320 376 320 306 246 c 0,2,3
 280 218 280 218 176 134 c 0,4,5
 106 78 106 78 106 50 c 2,6,-1
 106 -198 l 2,7,8
 106 -213 106 -213 51 -240 c 1,9,-1
 47 -240 l 1,10,-1
 45 -241 l 1,11,-1
 41 -238 l 1,12,-1
 41 -239 l 1,13,-1
 46 -222 l 1,14,-1
 48 -221 l 1,15,16
 56 -205 56 -205 56 -191 c 2,17,-1
 56 541 l 1,18,19
 36 562 36 562 36 571 c 0,20,21
 36 584 36 584 100 584 c 2,22,-1
 141 584 l 2,23,24
 376 584 376 584 376 392 c 0,0,1
328 388 m 0,25,26
 328 459 328 459 277 496 c 0,27,28
 232 529 232 529 159 529 c 0,29,30
 124 529 124 529 107 520 c 1,31,-1
 106 518 l 1,32,-1
 106 184 l 1,33,34
 110 183 110 183 116 181 c 1,35,36
 166 181 166 181 247 259.5 c 128,-1,37
 328 338 328 338 328 388 c 0,25,26
EndSplineSet
EndChar

StartChar: Q
Encoding: 81 81 52
Width: 388
Flags: W
LayerCount: 2
Fore
SplineSet
392 291 m 0,0,1
 392 181 392 181 340 98 c 1,2,3
 280 0 280 0 177 0 c 1,4,5
 169 -14 169 -14 157 -53 c 1,6,7
 166 -51 166 -51 177 -51 c 0,8,9
 234 -51 234 -51 273 -85.5 c 128,-1,10
 312 -120 312 -120 312 -177 c 0,11,12
 312 -230 312 -230 264 -264 c 1,13,-1
 226 -221 l 1,14,15
 244 -199 244 -199 244 -174 c 0,16,17
 244 -142 244 -142 214 -123 c 0,18,19
 188 -107 188 -107 154 -107 c 0,20,21
 123 -107 123 -107 112 -122 c 1,22,23
 101 -113 101 -113 97 -109 c 0,24,25
 89 -101 89 -101 87 -92 c 1,26,27
 130 -32 130 -32 130 15 c 1,28,29
 76 31 76 31 43 131 c 0,30,31
 16 211 16 211 16 284 c 0,32,33
 16 361 16 361 31 407 c 0,34,35
 58 487 58 487 92 528 c 0,36,37
 138 584 138 584 210 584 c 0,38,39
 313 584 313 584 359 483 c 0,40,41
 392 409 392 409 392 291 c 0,0,1
336 319 m 0,42,43
 336 394 336 394 311 447 c 0,44,45
 278 516 278 516 212 516 c 0,46,47
 135 516 135 516 100 434 c 0,48,49
 75 375 75 375 75 285 c 0,50,51
 75 234 75 234 97 167 c 0,52,53
 125 84 125 84 163 83 c 1,54,55
 167 109 167 109 172 136 c 0,56,57
 179 175 179 175 187 183 c 1,58,59
 226 165 226 165 226 133 c 0,60,61
 226 121 226 121 218.5 101 c 128,-1,62
 211 81 211 81 210 72 c 1,63,64
 336 71 336 71 336 319 c 0,42,43
EndSplineSet
EndChar

StartChar: R
Encoding: 82 82 53
Width: 361
Flags: W
LayerCount: 2
Fore
SplineSet
465 -263 m 1,0,-1
 463 -264 l 1,1,2
 449 -262 449 -262 394.5 -231 c 128,-1,3
 340 -200 340 -200 337 -191 c 0,4,5
 332 -175 332 -175 327 -135 c 0,6,7
 322 -98 322 -98 314 -79 c 2,8,-1
 203 200 l 2,9,10
 185 246 185 246 142 246 c 0,11,12
 126 246 126 246 110 238 c 1,13,-1
 109 238 l 1,14,15
 123 270 123 270 123 300 c 0,16,17
 123 307 123 307 120.5 319 c 128,-1,18
 118 331 118 331 118 336 c 1,19,-1
 121 340 l 1,20,21
 130 339 130 339 156 317.5 c 128,-1,22
 182 296 182 296 200 296 c 0,23,24
 314 296 314 296 314 395 c 0,25,26
 314 463 314 463 243 501 c 0,27,28
 185 532 185 532 110 532 c 0,29,30
 83 532 83 532 83 527 c 2,31,-1
 83 62 l 2,32,33
 83 54 83 54 92.5 36.5 c 128,-1,34
 102 19 102 19 102 1 c 1,35,36
 96 0 96 0 89 0 c 2,37,-1
 15 0 l 1,38,39
 15 13 15 13 23.5 33.5 c 128,-1,40
 32 54 32 54 32 62 c 2,41,-1
 32 522 l 2,42,43
 32 531 32 531 23.5 547.5 c 128,-1,44
 15 564 15 564 15 578 c 2,45,-1
 15 584 l 1,46,-1
 72 584 l 2,47,48
 184 584 184 584 260 548 c 0,49,50
 360 500 360 500 360 400 c 0,51,52
 360 335 360 335 325 301 c 0,53,54
 304 280 304 280 233 247 c 1,55,56
 278 175 278 175 323 54 c 1,57,58
 393 -128 393 -128 400 -145 c 0,59,60
 409 -165 409 -165 432.5 -203.5 c 128,-1,61
 456 -242 456 -242 465 -263 c 1,0,-1
EndSplineSet
EndChar

StartChar: S
Encoding: 83 83 54
Width: 359
Flags: W
LayerCount: 2
Fore
SplineSet
351 71 m 0,0,1
 351 -33 351 -33 255 -117 c 0,2,3
 206 -160 206 -160 69 -236 c 0,4,5
 29 -258 29 -258 2 -290 c 1,6,7
 -4 -291 -4 -291 -4 -291 c 1,8,9
 -21 -291 -21 -291 -39 -254 c 0,10,11
 -54 -222 -54 -222 -54 -202 c 0,12,13
 -54 -186 -54 -186 -42 -186 c 0,14,15
 -38 -186 -38 -186 -30 -188 c 128,-1,16
 -22 -190 -22 -190 -18 -190 c 0,17,18
 69 -190 69 -190 177 -103 c 0,19,20
 290 -12 290 -12 290 73 c 0,21,22
 290 147 290 147 222 186 c 0,23,24
 160 222 160 222 98 258 c 1,25,26
 31 317 31 317 32 437 c 0,27,28
 32 498 32 498 73.5 541 c 128,-1,29
 115 584 115 584 178 584 c 0,30,31
 211 584 211 584 252 554 c 0,32,33
 296 521 296 521 296 490 c 0,34,35
 296 477 296 477 282.5 459 c 128,-1,36
 269 441 269 441 255 433 c 1,37,-1
 254 433 l 2,38,39
 251 433 251 433 250 442 c 0,40,41
 249 448 249 448 249 454 c 1,42,43
 242 483 242 483 218.5 506 c 128,-1,44
 195 529 195 529 166 529 c 0,45,46
 126 529 126 529 106 490 c 0,47,48
 90 460 90 460 90 416 c 0,49,50
 90 332 90 332 158 291 c 1,51,52
 220 259 220 259 283 226 c 1,53,54
 351 176 351 176 351 71 c 0,0,1
EndSplineSet
EndChar

StartChar: T
Encoding: 84 84 55
Width: 342
Flags: W
LayerCount: 2
Fore
SplineSet
327 505 m 1,0,1
 299 532 299 532 219 532 c 0,2,3
 191 532 191 532 191 501 c 2,4,-1
 191 -97 l 2,5,6
 191 -123 191 -123 206 -134 c 0,7,8
 228 -151 228 -151 230 -154 c 1,9,10
 181 -168 181 -168 163 -179 c 0,11,12
 138 -194 138 -194 114 -230 c 1,13,14
 113 -223 113 -223 113 -211 c 0,15,16
 113 -186 113 -186 128.5 -167.5 c 128,-1,17
 144 -149 144 -149 144 -138 c 2,18,-1
 144 504 l 2,19,20
 144 532 144 532 119 532 c 0,21,22
 61 532 61 532 16 505 c 1,23,24
 30 533 30 533 64 584 c 1,25,-1
 288 584 l 1,26,-1
 294 581 l 1,27,28
 295 577 295 577 327 505 c 1,0,1
EndSplineSet
EndChar

StartChar: U
Encoding: 85 85 56
Width: 391
Flags: W
LayerCount: 2
Fore
SplineSet
381 7 m 2,0,1
 381 0 381 0 363 0 c 0,2,3
 332 0 332 0 271.5 1 c 128,-1,4
 211 2 211 2 180 2 c 0,5,6
 114 2 114 2 67 52 c 0,7,8
 16 107 16 107 16 173 c 0,9,10
 16 223 16 223 60.5 303 c 128,-1,11
 105 383 105 383 105 416 c 0,12,13
 105 459 105 459 63 501 c 1,14,15
 87 554 87 554 105 554 c 256,16,17
 123 554 123 554 140 501 c 0,18,19
 155 456 155 456 155 432 c 0,20,21
 155 383 155 383 112 298.5 c 128,-1,22
 69 214 69 214 69 172 c 256,23,24
 69 130 69 130 103.5 92 c 128,-1,25
 138 54 138 54 180 54 c 2,26,-1
 268 54 l 2,27,28
 299 54 299 54 312 59 c 1,29,-1
 312 513 l 2,30,31
 312 517 312 517 303 538 c 1,32,33
 292 549 292 549 293 574 c 1,34,35
 298 576 298 576 304 576 c 2,36,-1
 372 576 l 1,37,38
 372 576 372 576 380 575 c 1,39,-1
 380 559 l 2,40,41
 380 551 380 551 371.5 536.5 c 128,-1,42
 363 522 363 522 363 514 c 2,43,-1
 363 28 l 2,44,45
 363 22 363 22 381 9 c 1,46,-1
 381 7 l 2,0,1
EndSplineSet
EndChar

StartChar: V
Encoding: 86 86 57
Width: 508
Flags: W
LayerCount: 2
Fore
SplineSet
536 587 m 1,0,1
 422 547 422 547 379 392 c 1,2,3
 354 262 354 262 330 131 c 1,4,5
 299 0 299 0 211 0 c 0,6,7
 173 0 173 0 135 42 c 1,8,9
 98 81 98 81 92 120 c 2,10,-1
 32 517 l 1,11,12
 25 537 25 537 16 579 c 1,13,14
 24 580 24 580 26 580 c 2,15,-1
 89 580 l 2,16,17
 96 580 96 580 102 578 c 1,18,19
 101 571 101 571 91.5 547.5 c 128,-1,20
 82 524 82 524 83 518 c 2,21,-1
 142 121 l 2,22,23
 145 99 145 99 168 77.5 c 128,-1,24
 191 56 191 56 213 56 c 0,25,26
 259 56 259 56 283 168 c 0,27,28
 332 402 332 402 333 407 c 0,29,30
 379 557 379 557 474 624 c 1,31,32
 522 616 522 616 536 587 c 1,0,1
EndSplineSet
EndChar

StartChar: W
Encoding: 87 87 58
Width: 673
Flags: W
LayerCount: 2
Fore
SplineSet
725 588 m 1,0,-1
 722 585 l 1,1,2
 609 547 609 547 567 393 c 1,3,4
 543 262 543 262 519 131 c 1,5,6
 488 0 488 0 399 0 c 0,7,8
 369 0 369 0 348 14 c 0,9,10
 334 23 334 23 310 50 c 1,11,12
 284 0 284 0 213 0 c 0,13,14
 167 0 167 0 133 38 c 0,15,16
 102 72 102 72 93 120 c 0,17,18
 90 134 90 134 63 339 c 0,19,20
 41 505 41 505 26 536 c 1,21,-1
 26 538 l 1,22,23
 16 549 16 549 16 571 c 2,24,-1
 16 579 l 1,25,26
 64 580 64 580 90 580 c 0,27,28
 97 580 97 580 103 578 c 1,29,30
 102 563 102 563 93 545 c 128,-1,31
 84 527 84 527 84 524 c 0,32,33
 84 491 84 491 106 353 c 1,34,35
 116 269 116 269 146 114 c 1,36,37
 161 56 161 56 216 56 c 0,38,39
 244 56 244 56 262 74.5 c 128,-1,40
 280 93 280 93 280 121 c 2,41,-1
 280 518 l 2,42,43
 280 527 280 527 271.5 543 c 128,-1,44
 263 559 263 559 263 573 c 2,45,-1
 263 579 l 1,46,47
 311 580 311 580 337 580 c 0,48,49
 344 580 344 580 350 578 c 1,50,51
 350 563 350 563 340.5 543.5 c 128,-1,52
 331 524 331 524 331 518 c 2,53,-1
 331 121 l 2,54,55
 331 92 331 92 352 74 c 128,-1,56
 373 56 373 56 402 56 c 0,57,58
 446 56 446 56 470 169 c 0,59,60
 519 397 519 397 523 409 c 0,61,62
 570 559 570 559 663 624 c 1,63,64
 711 613 711 613 725 588 c 1,0,-1
EndSplineSet
EndChar

StartChar: X
Encoding: 88 88 59
Width: 415
Flags: W
LayerCount: 2
Fore
SplineSet
400 1 m 1,0,1
 394 0 394 0 387 0 c 2,2,-1
 313 0 l 1,3,4
 313 29 313 29 331 45 c 1,5,-1
 333 53 l 1,6,7
 328 67 328 67 281 144 c 128,-1,8
 234 221 234 221 220 239 c 1,9,-1
 217 239 l 1,10,11
 95 7 95 7 70 -37 c 0,12,13
 -36 -219 -36 -219 -111 -276 c 0,14,15
 -116 -280 -116 -280 -123 -280 c 0,16,17
 -135 -280 -135 -280 -153 -257.5 c 128,-1,18
 -171 -235 -171 -235 -171 -222 c 0,19,20
 -171 -211 -171 -211 -162 -212 c 1,21,-1
 -163 -213 l 1,22,23
 -45 -199 -45 -199 190 289 c 1,24,-1
 44 526 l 1,25,26
 32 540 32 540 32 569 c 2,27,-1
 32 578 l 1,28,29
 41 579 41 579 43 579 c 2,30,-1
 106 579 l 2,31,32
 113 579 113 579 119 577 c 1,33,34
 119 559 119 559 108 543.5 c 128,-1,35
 97 528 97 528 97 525 c 0,36,37
 97 515 97 515 151 428.5 c 128,-1,38
 205 342 205 342 215 336 c 1,39,40
 237 357 237 357 276.5 439 c 128,-1,41
 316 521 316 521 321 553 c 1,42,43
 322 571 322 571 327 607 c 1,44,-1
 328 608 l 1,45,46
 347 569 347 569 376 534 c 1,47,-1
 376 531 l 2,48,49
 376 495 376 495 242 286 c 1,50,51
 277 224 277 224 311 163 c 0,52,53
 353 88 353 88 391 47 c 1,54,-1
 391 46 l 1,55,56
 401 28 401 28 400 1 c 1,0,1
EndSplineSet
EndChar

StartChar: Y
Encoding: 89 89 60
Width: 437
Flags: W
LayerCount: 2
Fore
SplineSet
460 571 m 1,0,1
 455 571 455 571 444 571 c 1,2,3
 390 566 390 566 324 443 c 0,4,5
 282 364 282 364 250 268 c 0,6,7
 232 214 232 214 232 186 c 0,8,9
 232 61 232 61 241 43 c 0,10,11
 254 18 254 18 254 1 c 1,12,13
 248 0 248 0 167 0 c 1,14,15
 167 12 167 12 175.5 28.5 c 128,-1,16
 184 45 184 45 184 52 c 2,17,-1
 180 204 l 1,18,-1
 32 523 l 2,19,20
 16 558 16 558 16 585 c 1,21,22
 25 586 25 586 27 586 c 2,23,-1
 90 586 l 2,24,25
 97 586 97 586 103 584 c 1,26,27
 103 557 103 557 84 539 c 1,28,-1
 82 531 l 1,29,30
 130 418 130 418 139 396 c 0,31,32
 184 295 184 295 202 276 c 1,33,34
 209 283 209 283 217 314 c 0,35,36
 233 379 233 379 298.5 491 c 128,-1,37
 364 603 364 603 396 617 c 1,38,39
 414 607 414 607 432 597 c 1,40,41
 456 581 456 581 460 571 c 1,0,1
EndSplineSet
EndChar

StartChar: Z
Encoding: 90 90 61
Width: 382
Flags: W
LayerCount: 2
Fore
SplineSet
312 0 m 2,0,-1
 13 0 l 1,1,-1
 10 5 l 1,2,3
 14 19 14 19 41 69 c 0,4,5
 65 113 65 113 170 310 c 0,6,7
 281 518 281 518 281 520 c 0,8,9
 281 533 281 533 168 533 c 0,10,11
 113 533 113 533 69 498 c 1,12,13
 64 504 64 504 64 521 c 0,14,15
 64 560 64 560 73 572 c 128,-1,16
 82 584 82 584 119 584 c 2,17,-1
 343 584 l 2,18,19
 368 584 368 584 368 575 c 0,20,21
 368 555 368 555 243 323 c 128,-1,22
 118 91 118 91 118 70 c 0,23,24
 118 55 118 55 175 55 c 0,25,26
 192 55 192 55 231 56 c 0,27,28
 270 56 270 56 290 56 c 0,29,30
 342 56 342 56 372 89 c 1,31,32
 377 82 377 82 377 69 c 0,33,34
 377 22 377 22 367 11 c 128,-1,35
 357 0 357 0 312 0 c 2,0,-1
EndSplineSet
EndChar

StartChar: bracketleft
Encoding: 91 91 62
Width: 251
Flags: W
LayerCount: 2
Fore
SplineSet
195 1 m 1,0,1
 190 1 190 1 182 1 c 0,2,3
 173 0 173 0 169 0 c 2,4,-1
 15 0 l 1,5,6
 15 10 15 10 23.5 28 c 128,-1,7
 32 46 32 46 32 57 c 2,8,-1
 32 524 l 2,9,10
 32 540 32 540 23 567 c 1,11,12
 15 572 15 572 15 583 c 1,13,14
 20 583 20 583 31 584 c 0,15,16
 41 584 41 584 46 584 c 2,17,-1
 189 584 l 1,18,19
 180 568 180 568 180 554 c 0,20,21
 180 544 180 544 185 529 c 1,22,-1
 100 529 l 2,23,24
 83 529 83 529 83 512 c 2,25,-1
 83 85 l 2,26,27
 83 53 83 53 105 53 c 2,28,-1
 192 53 l 1,29,30
 185 40 185 40 185 29 c 0,31,32
 185 17 185 17 195 1 c 1,0,1
EndSplineSet
EndChar

StartChar: backslash
Encoding: 92 92 63
Width: 421
Flags: W
LayerCount: 2
Fore
SplineSet
404 4 m 1,0,1
 385 -18 385 -18 382 -50 c 1,2,3
 355 -19 355 -19 320 43 c 0,4,5
 292 93 292 93 265 144 c 1,6,7
 130 376 130 376 9 590 c 1,8,-1
 11 597 l 1,9,10
 18 598 18 598 20 598 c 0,11,12
 31 598 31 598 53 588 c 1,13,-1
 54 586 l 1,14,15
 68 579 68 579 78 568 c 0,16,17
 114 527 114 527 164 433 c 0,18,19
 239 291 239 291 241 288 c 0,20,21
 297 196 297 196 404 8 c 1,22,-1
 404 4 l 1,0,1
EndSplineSet
EndChar

StartChar: bracketright
Encoding: 93 93 64
Width: 267
Flags: W
LayerCount: 2
Fore
SplineSet
220 0 m 1,0,1
 201 0 201 0 130 1 c 0,2,3
 74 2 74 2 40 1 c 1,4,5
 50 17 50 17 50 29 c 0,6,7
 50 40 50 40 43 53 c 1,8,-1
 130 53 l 2,9,10
 152 53 152 53 152 85 c 2,11,-1
 152 505 l 2,12,13
 152 529 152 529 135 529 c 2,14,-1
 50 529 l 1,15,16
 55 544 55 544 55 554 c 0,17,18
 55 568 55 568 46 584 c 1,19,-1
 189 584 l 2,20,21
 194 584 194 584 204 584 c 0,22,23
 215 583 215 583 220 583 c 1,24,25
 220 577 220 577 211.5 557.5 c 128,-1,26
 203 538 203 538 203 523 c 2,27,-1
 203 57 l 2,28,29
 203 42 203 42 211.5 25.5 c 128,-1,30
 220 9 220 9 220 0 c 1,0,1
EndSplineSet
EndChar

StartChar: asciicircum
Encoding: 94 94 65
Width: 311
Flags: W
LayerCount: 2
Fore
SplineSet
305 229 m 1,0,-1
 274 211 l 1,1,-1
 160 333 l 1,2,-1
 51 214 l 1,3,-1
 20 231 l 1,4,-1
 120 375 l 1,5,-1
 118 376 l 1,6,-1
 122 377 l 1,7,-1
 135 397 l 1,8,-1
 162 403 l 1,9,-1
 185 397 l 1,10,-1
 198 378 l 1,11,-1
 202 377 l 1,12,-1
 200 375 l 1,13,-1
 305 229 l 1,0,-1
EndSplineSet
EndChar

StartChar: grave
Encoding: 96 96 67
Width: 311
Flags: W
LayerCount: 2
Fore
SplineSet
211 490 m 1,0,-1
 187 476 l 1,1,-1
 90 578 l 1,2,-1
 142 594 l 1,3,-1
 211 490 l 1,0,-1
EndSplineSet
EndChar

StartChar: a
Encoding: 97 97 68
Width: 298
Flags: W
LayerCount: 2
Fore
SplineSet
288 7 m 1,0,-1
 279 0 l 1,1,-1
 144 0 l 2,2,3
 93 0 93 0 57 25 c 0,4,5
 16 53 16 53 16 102 c 0,6,7
 16 157 16 157 68 197 c 1,8,9
 116 225 116 225 166.5 255 c 128,-1,10
 217 285 217 285 217 319 c 0,11,12
 217 333 217 333 202.5 347 c 128,-1,13
 188 361 188 361 174 361 c 2,14,-1
 98 361 l 2,15,16
 85 361 85 361 77 350 c 128,-1,17
 69 339 69 339 62 328 c 1,18,19
 54 357 54 357 54 398 c 0,20,21
 54 416 54 416 81 416 c 2,22,-1
 207 416 l 2,23,24
 267 416 267 416 267 301 c 0,25,26
 267 288 267 288 265.5 262.5 c 128,-1,27
 264 237 264 237 264 224 c 2,28,-1
 264 74 l 2,29,30
 264 56 264 56 275.5 35.5 c 128,-1,31
 287 15 287 15 288 7 c 1,0,-1
217 58 m 1,32,-1
 217 213 l 1,33,-1
 215 216 l 1,34,-1
 210 216 l 2,35,36
 169 216 169 216 119 180 c 0,37,38
 65 142 65 142 65 103 c 0,39,40
 65 98 65 98 65 89 c 0,41,42
 66 80 66 80 66 75 c 1,43,44
 130 47 130 47 167 47 c 0,45,46
 202 47 202 47 216 56 c 1,47,-1
 217 58 l 1,32,-1
EndSplineSet
EndChar

StartChar: b
Encoding: 98 98 69
Width: 310
Flags: W
LayerCount: 2
Fore
SplineSet
304 140 m 0,0,1
 304 58 304 58 246 25 c 0,2,3
 201 -1 201 -1 113 -1 c 1,4,-1
 33 0 l 1,5,-1
 32 484 l 2,6,7
 32 488 32 488 24.5 493 c 128,-1,8
 17 498 17 498 17 504 c 0,9,10
 17 514 17 514 44 541 c 128,-1,11
 71 568 71 568 81 568 c 0,12,13
 87 568 87 568 87 515 c 2,14,-1
 87 404 l 2,15,16
 87 385 87 385 143 345 c 0,17,18
 221 289 221 289 248 261 c 0,19,20
 304 202 304 202 304 140 c 0,0,1
259 137 m 0,21,22
 259 173 259 173 194.5 241.5 c 128,-1,23
 130 310 130 310 94 310 c 0,24,25
 83 310 83 310 83 298 c 2,26,-1
 83 62 l 2,27,28
 83 53 83 53 127 53 c 0,29,30
 177 53 177 53 213 70 c 0,31,32
 259 93 259 93 259 137 c 0,21,22
EndSplineSet
EndChar

StartChar: c
Encoding: 99 99 70
Width: 310
Flags: W
LayerCount: 2
Fore
SplineSet
304 108 m 0,0,1
 304 68 304 68 251 32 c 1,2,3
 202 0 202 0 159 0 c 0,4,5
 83 0 83 0 45 74 c 0,6,7
 16 132 16 132 16 225 c 0,8,9
 16 297 16 297 58 354 c 0,10,11
 104 416 104 416 173 416 c 0,12,13
 228 416 228 416 256 381 c 128,-1,14
 284 346 284 346 284 290 c 0,15,16
 284 252 284 252 264 229 c 0,17,18
 242 203 242 203 203 203 c 0,19,20
 132 203 132 203 131 240 c 1,21,22
 136 257 136 257 150 291 c 1,23,24
 153 293 153 293 157 293 c 1,25,26
 166 279 166 279 176 266 c 128,-1,27
 186 253 186 253 207 253 c 0,28,29
 239 253 239 253 239 308 c 0,30,31
 239 335 239 335 216.5 352 c 128,-1,32
 194 369 194 369 166 369 c 0,33,34
 113 369 113 369 85 314 c 0,35,36
 64 271 64 271 64 212 c 0,37,38
 64 158 64 158 85 113 c 0,39,40
 112 57 112 57 161 57 c 0,41,42
 201 57 201 57 223 87 c 0,43,44
 238 108 238 108 249 153 c 0,45,46
 251 162 251 162 258 160 c 1,47,48
 271 152 271 152 286 137 c 0,49,50
 304 118 304 118 304 108 c 0,0,1
EndSplineSet
EndChar

StartChar: d
Encoding: 100 100 71
Width: 303
Flags: W
LayerCount: 2
Fore
SplineSet
288 0 m 1,0,1
 275 0 275 0 254 0 c 0,2,3
 229 0 229 0 220 0 c 0,4,5
 123 0 123 0 76 22 c 0,6,7
 8 54 8 54 8 140 c 0,8,9
 8 202 8 202 66 260 c 0,10,11
 94 288 94 288 175 344 c 0,12,13
 233 385 233 385 233 404 c 2,14,-1
 233 493 l 1,15,-1
 220 504 l 1,16,17
 263 545 263 545 288 570 c 1,18,-1
 288 0 l 1,0,1
238 62 m 2,19,-1
 238 298 l 2,20,21
 238 310 238 310 227 310 c 0,22,23
 190 310 190 310 121 242 c 128,-1,24
 52 174 52 174 52 137 c 0,25,26
 52 91 52 91 103 69 c 0,27,28
 140 53 140 53 193 53 c 0,29,30
 238 53 238 53 238 62 c 2,19,-1
EndSplineSet
EndChar

StartChar: e
Encoding: 101 101 72
Width: 335
Flags: W
LayerCount: 2
Fore
SplineSet
324 123 m 1,0,1
 322 80 322 80 268.5 40 c 128,-1,2
 215 0 215 0 171 0 c 0,3,4
 18 0 18 0 18 205 c 0,5,6
 18 293 18 293 52 348 c 0,7,8
 93 416 93 416 175 416 c 0,9,10
 226 416 226 416 271 367.5 c 128,-1,11
 316 319 316 319 319 267 c 1,12,13
 242 217 242 217 90 115 c 1,14,15
 94 91 94 91 119 75 c 128,-1,16
 144 59 144 59 170 59 c 0,17,18
 224 59 224 59 245 92 c 1,19,20
 260 131 260 131 275 171 c 1,21,-1
 279 173 l 1,22,23
 305 161 305 161 324 123 c 1,0,1
258 288 m 1,24,25
 256 321 256 321 221 345 c 1,26,27
 190 368 190 368 155 368 c 0,28,29
 111 368 111 368 84 310 c 0,30,31
 63 264 63 264 63 213 c 0,32,33
 63 170 63 170 77 166 c 1,34,35
 137 205 137 205 256 284 c 1,36,-1
 258 288 l 1,24,25
EndSplineSet
EndChar

StartChar: f
Encoding: 102 102 73
Width: 272
Flags: W
LayerCount: 2
Fore
SplineSet
298 526 m 1,0,-1
 297 527 l 2,1,2
 280 544 280 544 256 544 c 0,3,4
 213 544 213 544 176 511 c 128,-1,5
 139 478 139 478 139 436 c 0,6,7
 139 413 139 413 177 413 c 0,8,9
 184 413 184 413 198 414.5 c 128,-1,10
 212 416 212 416 219 416 c 0,11,12
 263 416 263 416 263 377 c 0,13,14
 263 369 263 369 262 353 c 128,-1,15
 261 337 261 337 261 329 c 1,16,17
 259 345 259 345 224 345 c 2,18,-1
 161 345 l 2,19,20
 139 345 139 345 139 331 c 2,21,-1
 139 -117 l 2,22,23
 139 -150 139 -150 118 -209 c 0,24,25
 94 -278 94 -278 69 -279 c 1,26,-1
 68 -280 l 1,27,28
 54 -267 54 -267 41 -254 c 0,29,30
 24 -237 24 -237 24 -223 c 1,31,-1
 26 -218 l 1,32,33
 88 -179 88 -179 88 -111 c 2,34,-1
 88 331 l 2,35,36
 88 347 88 347 53 347 c 0,37,38
 46 347 46 347 34 346 c 128,-1,39
 22 345 22 345 16 345 c 1,40,41
 14 354 14 354 14 368 c 0,42,43
 14 403 14 403 16 416 c 1,44,45
 21 416 21 416 33 415 c 128,-1,46
 45 414 45 414 51 414 c 0,47,48
 76 414 76 414 80 417 c 0,49,50
 88 421 88 421 88 442 c 0,51,52
 88 495 88 495 139.5 559.5 c 128,-1,53
 191 624 191 624 242 624 c 0,54,55
 252 624 252 624 276 575 c 2,56,-1
 293 541 l 2,57,58
 297 533 297 533 298 527 c 1,59,-1
 298 526 l 1,0,-1
EndSplineSet
EndChar

StartChar: g
Encoding: 103 103 74
Width: 331
Flags: W
LayerCount: 2
Fore
SplineSet
313 218 m 0,0,1
 313 136 313 136 277 79 c 0,2,3
 235 13 235 13 158 9 c 1,4,5
 151 -7 151 -7 150 -40 c 1,6,7
 204 -41 204 -41 238 -75 c 128,-1,8
 272 -109 272 -109 272 -163 c 0,9,10
 272 -226 272 -226 227 -261 c 0,11,12
 187 -293 187 -293 122 -293 c 1,13,14
 122 -293 122 -293 117 -292 c 1,15,-1
 117 -232 l 1,16,17
 137 -233 137 -233 143 -233 c 0,18,19
 176 -233 176 -233 195.5 -211 c 128,-1,20
 215 -189 215 -189 215 -155 c 0,21,22
 215 -119 215 -119 178 -100 c 0,23,24
 148 -85 148 -85 108 -85 c 0,25,26
 90 -85 90 -85 75 -88 c 1,27,28
 108 -30 108 -30 108 21 c 1,29,30
 64 29 64 29 37 88 c 0,31,32
 14 137 14 137 14 188 c 0,33,34
 14 272 14 272 43 335 c 0,35,36
 81 416 81 416 156 416 c 0,37,38
 169 416 169 416 185 410 c 1,39,40
 187 436 187 436 189 461 c 0,41,42
 193 497 193 497 199 509 c 1,43,44
 205 510 205 510 205 510 c 1,45,46
 225 510 225 510 240.5 497.5 c 128,-1,47
 256 485 256 485 257 467 c 1,48,49
 243 436 243 436 224 391 c 1,50,51
 313 338 313 338 313 218 c 0,0,1
263 207 m 0,52,53
 263 326 263 326 208 343 c 1,54,55
 202 323 202 323 185 285 c 1,56,-1
 184 285 l 2,57,58
 158 285 158 285 147 294 c 1,59,-1
 146 296 l 1,60,61
 153 316 153 316 164 357 c 1,62,-1
 162 357 l 2,63,64
 114 357 114 357 90 297 c 1,65,66
 74 253 74 253 74 195 c 0,67,68
 74 161 74 161 85 133 c 0,69,70
 100 96 100 96 128 96 c 1,71,72
 131 115 131 115 135 134 c 0,73,74
 140 162 140 162 151 162 c 0,75,76
 188 162 188 162 188 137 c 0,77,78
 188 127 188 127 184 112 c 0,79,80
 179 92 179 92 178 87 c 1,81,82
 263 87 263 87 263 207 c 0,52,53
EndSplineSet
EndChar

StartChar: h
Encoding: 104 104 75
Width: 335
Flags: W
LayerCount: 2
Fore
SplineSet
328 250 m 0,0,1
 328 175 328 175 272 29.5 c 128,-1,2
 216 -116 216 -116 216 -203 c 1,3,-1
 212 -212 l 1,4,5
 170 -179 170 -179 170 -129 c 0,6,7
 170 -67 170 -67 222 61 c 128,-1,8
 274 189 274 189 274 267 c 0,9,10
 274 304 274 304 261 332 c 0,11,12
 244 369 244 369 211 369 c 0,13,14
 133 369 133 369 110 302 c 0,15,16
 98 267 98 267 98 169 c 0,17,18
 98 60 98 60 106 43 c 0,19,20
 119 14 119 14 119 1 c 1,21,22
 113 0 113 0 106 0 c 2,23,-1
 34 0 l 1,24,-1
 34 16 l 1,25,26
 51 59 51 59 51 62 c 2,27,-1
 51 497 l 2,28,29
 51 505 51 505 42.5 510.5 c 128,-1,30
 34 516 34 516 34 522 c 0,31,32
 34 535 34 535 93 581 c 1,33,-1
 100 583 l 1,34,-1
 104 578 l 1,35,-1
 104 369 l 1,36,37
 142 416 142 416 213 416 c 0,38,39
 273 416 273 416 304 360 c 0,40,41
 328 316 328 316 328 250 c 0,0,1
EndSplineSet
EndChar

StartChar: i
Encoding: 105 105 76
Width: 152
Flags: W
LayerCount: 2
Fore
SplineSet
119 527 m 0,0,1
 119 487 119 487 71 487 c 0,2,3
 57 487 57 487 47 500.5 c 128,-1,4
 37 514 37 514 37 527 c 0,5,6
 37 545 37 545 49 556.5 c 128,-1,7
 61 568 61 568 79 568 c 0,8,9
 96 568 96 568 107.5 556 c 128,-1,10
 119 544 119 544 119 527 c 0,0,1
125 0 m 1,11,12
 119 -1 119 -1 112 -1 c 2,13,-1
 38 -1 l 1,14,15
 38 10 38 10 48 40 c 0,16,17
 55 61 55 61 55 60 c 2,18,-1
 55 353 l 2,19,20
 55 362 55 362 46.5 381 c 128,-1,21
 38 400 38 400 38 415 c 1,22,-1
 90 415 l 1,23,24
 90 415 90 415 125 414 c 1,25,26
 125 388 125 388 112 373 c 0,27,28
 109 370 109 370 106 353 c 1,29,-1
 106 60 l 2,30,31
 106 54 106 54 115.5 36 c 128,-1,32
 125 18 125 18 125 0 c 1,11,12
EndSplineSet
EndChar

StartChar: j
Encoding: 106 106 77
Width: 160
Flags: W
LayerCount: 2
Fore
SplineSet
122 415 m 1,0,1
 123 391 123 391 112 378 c 1,2,-1
 111 375 l 1,3,4
 99 360 99 360 99 194 c 0,5,6
 99 151 99 151 100.5 65 c 128,-1,7
 102 -21 102 -21 102 -64 c 0,8,9
 102 -133 102 -133 62 -183 c 0,10,11
 39 -211 39 -211 -12 -245 c 0,12,13
 -52 -272 -52 -272 -52 -285 c 1,14,-1
 -108 -224 l 1,15,16
 -108 -211 -108 -211 -66 -192 c 0,17,18
 -11 -166 -11 -166 11 -148 c 0,19,20
 52 -113 52 -113 52 -63 c 2,21,-1
 52 353 l 2,22,23
 52 360 52 360 45 376 c 1,24,-1
 43 378 l 1,25,26
 35 397 35 397 35 416 c 1,27,-1
 83 416 l 2,28,29
 87 416 87 416 122 415 c 1,0,1
119 527 m 0,30,31
 119 487 119 487 71 487 c 0,32,33
 57 487 57 487 47 500.5 c 128,-1,34
 37 514 37 514 37 527 c 0,35,36
 37 545 37 545 49 556.5 c 128,-1,37
 61 568 61 568 79 568 c 0,38,39
 96 568 96 568 107.5 556 c 128,-1,40
 119 544 119 544 119 527 c 0,30,31
EndSplineSet
EndChar

StartChar: k
Encoding: 107 107 78
Width: 302
Flags: W
LayerCount: 2
Fore
SplineSet
352 -171 m 1,0,1
 347 -172 347 -172 347 -172 c 1,2,3
 334 -172 334 -172 305.5 -160 c 128,-1,4
 277 -148 277 -148 272 -138 c 0,5,6
 258 -109 258 -109 213 34 c 0,7,8
 180 139 180 139 132 195 c 1,9,-1
 130 196 l 1,10,11
 119 195 119 195 104 178.5 c 128,-1,12
 89 162 89 162 83 149 c 1,13,-1
 83 61 l 2,14,15
 83 55 83 55 92.5 36 c 128,-1,16
 102 17 102 17 102 1 c 1,17,18
 96 0 96 0 89 0 c 2,19,-1
 15 0 l 1,20,21
 14 31 14 31 27 42 c 1,22,23
 32 54 32 54 32 61 c 2,24,-1
 32 491 l 2,25,26
 32 498 32 498 24 504 c 1,27,28
 15 507 15 507 15 516 c 0,29,30
 15 526 15 526 42 549.5 c 128,-1,31
 69 573 69 573 81 577 c 1,32,-1
 84 572 l 1,33,-1
 84 258 l 2,34,35
 84 237 84 237 95 237 c 0,36,37
 101 237 101 237 161.5 300 c 128,-1,38
 222 363 222 363 229 376 c 1,39,-1
 224 383 l 1,40,41
 201 390 201 390 202 416 c 1,42,-1
 320 416 l 1,43,-1
 320 411 l 2,44,45
 320 409 320 409 320 404 c 1,46,47
 319 400 319 400 319 398 c 1,48,49
 308 388 308 388 286 367 c 1,50,51
 286 367 286 367 169 239 c 1,52,53
 210 164 210 164 222 139 c 0,54,55
 251 82 251 82 267 35 c 1,56,57
 279 -7 279 -7 307 -90 c 1,58,59
 313 -104 313 -104 330 -130 c 128,-1,60
 347 -156 347 -156 352 -171 c 1,0,1
EndSplineSet
EndChar

StartChar: l
Encoding: 108 108 79
Width: 145
Flags: W
LayerCount: 2
Fore
SplineSet
118 1 m 1,0,1
 109 0 109 0 107 0 c 2,2,-1
 31 0 l 1,3,4
 31 3 31 3 41 41 c 1,5,-1
 43 43 l 1,6,7
 48 54 48 54 48 62 c 2,8,-1
 48 496 l 2,9,10
 48 503 48 503 40 509 c 1,11,12
 31 512 31 512 31 521 c 0,13,14
 31 531 31 531 57.5 554.5 c 128,-1,15
 84 578 84 578 96 582 c 1,16,17
 99 576 99 576 99 62 c 0,18,19
 99 54 99 54 108.5 36.5 c 128,-1,20
 118 19 118 19 118 1 c 1,0,1
EndSplineSet
EndChar

StartChar: m
Encoding: 109 109 80
Width: 573
Flags: W
LayerCount: 2
Fore
SplineSet
578 9 m 1,0,1
 578 9 578 9 577 3 c 1,2,3
 564 3 564 3 533 2 c 0,4,5
 504 2 504 2 489 2 c 1,6,7
 489 2 489 2 483 3 c 1,8,-1
 483 6 l 2,9,10
 483 21 483 21 488.5 28 c 128,-1,11
 494 35 494 35 500 43 c 1,12,13
 459 371 459 371 370 371 c 0,14,15
 334 371 334 371 323 352 c 0,16,17
 315 338 315 338 315 299 c 2,18,-1
 315 62 l 2,19,20
 315 54 315 54 324.5 36.5 c 128,-1,21
 334 19 334 19 334 1 c 1,22,23
 328 0 328 0 321 0 c 2,24,-1
 247 0 l 1,25,26
 247 -3 247 -3 257 41 c 1,27,-1
 259 43 l 1,28,29
 264 55 264 55 264 62 c 2,30,-1
 264 299 l 2,31,32
 264 334 264 334 255 350 c 0,33,34
 243 371 243 371 210 371 c 0,35,36
 158 371 158 371 127 229 c 0,37,38
 124 215 124 215 98 41 c 1,39,-1
 101 38 l 1,40,-1
 106 37 l 1,41,-1
 107 35 l 1,42,43
 116 28 116 28 116 7 c 2,44,-1
 116 3 l 1,45,46
 109 2 109 2 101 2 c 2,47,-1
 25 2 l 2,48,49
 23 2 23 2 14 3 c 1,50,-1
 14 15 l 2,51,52
 14 34 14 34 29 45 c 1,53,54
 32 68 32 68 43 104 c 0,55,56
 57 148 57 148 60 163 c 0,57,58
 83 269 83 269 103 317 c 0,59,60
 145 416 145 416 209 416 c 0,61,62
 257 416 257 416 287 385 c 1,63,64
 320 416 320 416 377 416 c 0,65,66
 439 416 439 416 482 327 c 0,67,68
 508 272 508 272 536 155 c 0,69,70
 560 51 560 51 571 40 c 1,71,-1
 571 37 l 1,72,73
 578 26 578 26 578 9 c 1,0,1
EndSplineSet
EndChar

StartChar: n
Encoding: 110 110 81
Width: 311
Flags: W
LayerCount: 2
Fore
SplineSet
304 250 m 0,0,1
 304 118 304 118 254 41 c 0,2,3
 230 3 230 3 219 -51 c 0,4,5
 215 -74 215 -74 208 -150 c 0,6,7
 207 -158 207 -158 203 -159 c 1,8,9
 187 -155 187 -155 172 -134.5 c 128,-1,10
 157 -114 157 -114 157 -97 c 0,11,12
 157 -40 157 -40 203.5 69.5 c 128,-1,13
 250 179 250 179 250 250 c 0,14,15
 250 293 250 293 220 331 c 128,-1,16
 190 369 190 369 148 369 c 2,17,-1
 107 369 l 2,18,19
 96 369 96 369 83 365 c 1,20,-1
 83 62 l 2,21,22
 83 54 83 54 92.5 36.5 c 128,-1,23
 102 19 102 19 102 1 c 1,24,25
 96 0 96 0 89 0 c 2,26,-1
 15 0 l 1,27,-1
 15 16 l 1,28,29
 32 56 32 56 32 61 c 2,30,-1
 32 392 l 2,31,32
 32 398 32 398 23 403.5 c 128,-1,33
 14 409 14 409 14 414 c 0,34,35
 14 420 14 420 36 420 c 0,36,37
 54 420 54 420 91.5 418.5 c 128,-1,38
 129 417 129 417 148 417 c 0,39,40
 215 417 215 417 259.5 367.5 c 128,-1,41
 304 318 304 318 304 250 c 0,0,1
EndSplineSet
EndChar

StartChar: o
Encoding: 111 111 82
Width: 318
Flags: W
LayerCount: 2
Fore
SplineSet
306 207 m 0,0,1
 306 130 306 130 274 72 c 0,2,3
 235 1 235 1 165 1 c 0,4,5
 91 1 91 1 51 75 c 0,6,7
 19 134 19 134 19 215 c 0,8,9
 19 292 19 292 53 351 c 0,10,11
 93 421 93 421 165 421 c 0,12,13
 239 421 239 421 276 347 c 0,14,15
 306 289 306 289 306 207 c 0,0,1
255 214 m 0,16,17
 255 270 255 270 237 311 c 0,18,19
 213 365 213 365 165 365 c 0,20,21
 116 365 116 365 91 310 c 0,22,23
 72 268 72 268 72 212 c 0,24,25
 72 158 72 158 92 115 c 0,26,27
 117 61 117 61 165 61 c 256,28,29
 213 61 213 61 237 117 c 0,30,31
 255 159 255 159 255 214 c 0,16,17
EndSplineSet
EndChar

StartChar: p
Encoding: 112 112 83
Width: 310
Flags: W
LayerCount: 2
Fore
SplineSet
312 277 m 0,0,1
 312 192 312 192 256 124 c 0,2,3
 225 87 225 87 151 32 c 0,4,5
 95 -10 95 -10 95 -30 c 2,6,-1
 95 -204 l 1,7,8
 88 -218 88 -218 66.5 -231.5 c 128,-1,9
 45 -245 45 -245 29 -247 c 1,10,-1
 25 -244 l 1,11,-1
 25 -245 l 1,12,-1
 30 -228 l 1,13,-1
 32 -227 l 1,14,15
 40 -210 40 -210 40 -197 c 2,16,-1
 40 375 l 1,17,-1
 28 389 l 1,18,-1
 28 391 l 1,19,-1
 19 403 l 1,20,21
 26 417 26 417 81 417 c 0,22,23
 106 417 106 417 149 416 c 0,24,25
 212 415 212 415 260 378 c 0,26,27
 312 338 312 338 312 277 c 0,0,1
268 278 m 0,28,29
 268 326 268 326 216 350 c 0,30,31
 177 368 177 368 123 368 c 0,32,33
 90 368 90 368 90 361 c 2,34,-1
 90 99 l 2,35,36
 90 71 90 71 104 71 c 0,37,38
 163 71 163 71 217 146 c 0,39,40
 268 217 268 217 268 278 c 0,28,29
EndSplineSet
EndChar

StartChar: q
Encoding: 113 113 84
Width: 310
Flags: W
LayerCount: 2
Fore
SplineSet
287 404 m 0,0,1
 287 394 287 394 266 375 c 1,2,-1
 267 -207 l 1,3,4
 273 -219 273 -219 282 -245 c 1,5,-1
 278 -248 l 1,6,-1
 276 -247 l 1,7,-1
 272 -247 l 1,8,9
 229 -229 229 -229 216 -205 c 1,10,-1
 216 -8 l 2,11,12
 216 10 216 10 166 45 c 0,13,14
 102 91 102 91 74 126 c 0,15,16
 24 190 24 190 24 277 c 0,17,18
 24 368 24 368 91 398 c 0,19,20
 133 417 133 417 237 417 c 0,21,22
 287 417 287 417 287 404 c 0,0,1
216 105 m 2,23,-1
 216 361 l 2,24,25
 216 368 216 368 187 368 c 0,26,27
 139 368 139 368 106 348 c 1,28,29
 68 323 68 323 68 278 c 0,30,31
 68 226 68 226 110 163 c 0,32,33
 156 94 156 94 205 94 c 0,34,35
 216 94 216 94 216 105 c 2,23,-1
EndSplineSet
EndChar

StartChar: r
Encoding: 114 114 85
Width: 265
Flags: W
LayerCount: 2
Fore
SplineSet
260 368 m 0,0,1
 260 359 260 359 255 337 c 1,2,3
 212 369 212 369 147 369 c 2,4,-1
 107 369 l 2,5,6
 97 369 97 369 83 365 c 1,7,-1
 83 62 l 2,8,9
 83 55 83 55 92.5 37 c 128,-1,10
 102 19 102 19 102 1 c 1,11,12
 96 0 96 0 89 0 c 2,13,-1
 15 0 l 1,14,-1
 15 16 l 2,15,16
 15 24 15 24 23.5 38 c 128,-1,17
 32 52 32 52 32 61 c 2,18,-1
 32 392 l 2,19,20
 32 398 32 398 23 404 c 128,-1,21
 14 410 14 410 14 414 c 0,22,23
 14 420 14 420 35 420 c 0,24,25
 236 420 236 420 252 407 c 0,26,27
 260 401 260 401 260 368 c 0,0,1
EndSplineSet
EndChar

StartChar: s
Encoding: 115 115 86
Width: 335
Flags: W
LayerCount: 2
Fore
SplineSet
320 127 m 0,0,1
 320 77 320 77 264 37 c 0,2,3
 212 0 212 0 160 0 c 0,4,5
 103 0 103 0 59.5 39.5 c 128,-1,6
 16 79 16 79 16 136 c 0,7,8
 16 212 16 212 97 212 c 0,9,10
 153 212 153 212 153 166 c 0,11,12
 153 146 153 146 144 140 c 1,13,14
 125 161 125 161 113 161 c 0,15,16
 98 161 98 161 85.5 151.5 c 128,-1,17
 73 142 73 142 73 127 c 0,18,19
 73 99 73 99 104 77 c 0,20,21
 132 58 132 58 162 58 c 0,22,23
 194 58 194 58 228 78 c 0,24,25
 266 100 266 100 266 130 c 0,26,27
 266 174 266 174 205 198 c 1,28,29
 148 217 148 217 91 236 c 1,30,31
 30 263 30 263 30 316 c 0,32,33
 30 380 30 380 79 402 c 0,34,35
 110 416 110 416 184 416 c 0,36,37
 209 416 209 416 244 402 c 0,38,39
 286 385 286 385 286 365 c 0,40,41
 286 325 286 325 266 304 c 1,42,-1
 259 306 l 1,43,44
 232 347 232 347 221 355 c 0,45,46
 203 369 203 369 160 369 c 0,47,48
 138 369 138 369 113 356 c 0,49,50
 85 341 85 341 85 321 c 0,51,52
 85 296 85 296 146 276 c 0,53,54
 235 246 235 246 259 231 c 0,55,56
 320 194 320 194 320 127 c 0,0,1
EndSplineSet
EndChar

StartChar: t
Encoding: 116 116 87
Width: 202
Flags: W
LayerCount: 2
Fore
SplineSet
211 333 m 1,0,1
 161 365 161 365 137 365 c 0,2,3
 131 365 131 365 101 363 c 1,4,5
 101 319 101 319 101 242 c 0,6,7
 100 156 100 156 100 122 c 0,8,9
 100 96 100 96 135 76 c 0,10,11
 165 59 165 59 193 59 c 1,12,13
 193 46 193 46 182 23 c 0,14,15
 170 -3 170 -3 159 -4 c 1,16,17
 48 40 48 40 48 122 c 2,18,-1
 48 519 l 1,19,20
 54 531 54 531 67 546 c 0,21,22
 88 569 88 569 89 571 c 1,23,24
 98 572 98 572 98 557 c 0,25,26
 98 541 98 541 97 508 c 0,27,28
 97 476 97 476 97 460 c 0,29,30
 97 422 97 422 100 413 c 1,31,32
 106 410 106 410 154 409 c 128,-1,33
 202 408 202 408 209 402 c 128,-1,34
 216 396 216 396 216 365 c 0,35,36
 216 337 216 337 211 333 c 1,0,1
EndSplineSet
EndChar

StartChar: u
Encoding: 117 117 88
Width: 311
Flags: W
LayerCount: 2
Fore
SplineSet
301 7 m 2,0,1
 301 -1 301 -1 265 -1 c 0,2,3
 153 -1 153 -1 104 15 c 0,4,5
 16 44 16 44 16 132 c 0,6,7
 16 165 16 165 41.5 213.5 c 128,-1,8
 67 262 67 262 67 286 c 0,9,10
 67 315 67 315 45 354 c 1,11,12
 47 372 47 372 83 406 c 1,13,-1
 90 408 l 1,14,-1
 96 406 l 1,15,16
 118 348 118 348 118 301 c 0,17,18
 118 266 118 266 94 210 c 128,-1,19
 70 154 70 154 70 131 c 0,20,21
 70 98 70 98 98 76.5 c 128,-1,22
 126 55 126 55 160 55 c 2,23,-1
 193 55 l 2,24,25
 218 55 218 55 232 58 c 1,26,-1
 232 353 l 2,27,28
 232 357 232 357 230 366 c 1,29,30
 213 390 213 390 213 415 c 1,31,32
 235 416 235 416 266 416 c 2,33,-1
 300 416 l 1,34,-1
 300 400 l 1,35,36
 283 364 283 364 283 354 c 2,37,-1
 283 28 l 2,38,39
 283 22 283 22 301 9 c 1,40,-1
 301 7 l 2,0,1
EndSplineSet
EndChar

StartChar: v
Encoding: 118 118 89
Width: 326
Flags: W
LayerCount: 2
Fore
SplineSet
329 405 m 0,0,1
 329 397 329 397 321 376 c 0,2,3
 310 347 310 347 310 347 c 1,4,5
 293 245 293 245 277 144 c 1,6,7
 246 0 246 0 173 0 c 0,8,9
 108 0 108 0 81 73 c 0,10,11
 68 108 68 108 52 224 c 0,12,13
 38 321 38 321 14 350 c 1,14,-1
 41 374 l 1,15,-1
 42 376 l 1,16,-1
 71 399 l 1,17,18
 85 377 85 377 96 284 c 1,19,20
 109 162 109 162 116 130 c 0,21,22
 133 53 133 53 165 53 c 0,23,24
 213 53 213 53 236 189 c 0,25,26
 251 278 251 278 251 374 c 1,27,28
 251 374 251 374 250 379 c 1,29,30
 233 391 233 391 234 409 c 1,31,-1
 234 416 l 1,32,-1
 328 416 l 1,33,34
 329 407 329 407 329 405 c 0,0,1
EndSplineSet
EndChar

StartChar: w
Encoding: 119 119 90
Width: 530
Flags: W
LayerCount: 2
Fore
SplineSet
542 402 m 0,0,1
 542 386 542 386 531 374 c 1,2,3
 505 264 505 264 480 155 c 1,4,5
 434 0 434 0 361 0 c 0,6,7
 333 0 333 0 311 14 c 0,8,9
 301 21 301 21 272 48 c 1,10,-1
 270 48 l 1,11,12
 240 2 240 2 169 2 c 0,13,14
 106 2 106 2 78 75 c 0,15,16
 64 111 64 111 47 226 c 0,17,18
 33 322 33 322 10 351 c 1,19,20
 19 363 19 363 37 374 c 1,21,-1
 38 376 l 1,22,-1
 67 399 l 1,23,24
 81 380 81 380 94 288 c 0,25,26
 110 167 110 167 118 133 c 0,27,28
 138 55 138 55 172 55 c 0,29,30
 199 55 199 55 223.5 72.5 c 128,-1,31
 248 90 248 90 248 116 c 2,32,-1
 248 355 l 2,33,34
 248 363 248 363 239.5 382 c 128,-1,35
 231 401 231 401 231 416 c 1,36,-1
 318 416 l 1,37,38
 319 391 319 391 306 377 c 1,39,40
 298 361 298 361 298 355 c 2,41,-1
 298 120 l 2,42,43
 298 95 298 95 317 75 c 128,-1,44
 336 55 336 55 361 55 c 0,45,46
 411 55 411 55 438 193 c 1,47,48
 451 284 451 284 465 375 c 1,49,50
 458 384 458 384 452 393 c 128,-1,51
 446 402 446 402 447 416 c 1,52,-1
 541 416 l 1,53,54
 542 411 542 411 542 402 c 0,0,1
EndSplineSet
EndChar

StartChar: x
Encoding: 120 120 91
Width: 324
Flags: W
LayerCount: 2
Fore
SplineSet
320 0 m 1,0,-1
 247 0 l 2,1,2
 239 0 239 0 233 1 c 1,3,4
 233 11 233 11 239 19 c 128,-1,5
 245 27 245 27 245 29 c 0,6,7
 245 34 245 34 166 166 c 1,8,9
 144 131 144 131 123 96 c 0,10,11
 90 41 90 41 89 29 c 1,12,13
 99 13 99 13 99 1 c 1,14,15
 79 0 79 0 52 0 c 2,16,-1
 12 0 l 1,17,18
 12 18 12 18 39 42 c 1,19,-1
 39 43 l 1,20,-1
 139 210 l 1,21,22
 118 247 118 247 98 284 c 1,23,24
 71 323 71 323 33 338 c 1,25,-1
 31 340 l 1,26,27
 33 352 33 352 55 373.5 c 128,-1,28
 77 395 77 395 89 396 c 1,29,30
 99 389 99 389 128 331 c 0,31,32
 146 293 146 293 165 255 c 1,33,34
 186 289 186 289 207 323 c 0,35,36
 239 376 239 376 239 387 c 0,37,38
 239 389 239 389 229.5 396 c 128,-1,39
 220 403 220 403 220 416 c 1,40,-1
 270 416 l 2,41,42
 272 416 272 416 307 415 c 1,43,44
 307 398 307 398 289 377 c 0,45,46
 268 353 268 353 238 297 c 0,47,48
 216 254 216 254 193 211 c 1,49,-1
 292 46 l 2,50,51
 294 43 294 43 310 26 c 0,52,53
 320 16 320 16 320 0 c 1,0,-1
EndSplineSet
EndChar

StartChar: y
Encoding: 121 121 92
Width: 300
Flags: W
LayerCount: 2
Fore
SplineSet
304 415 m 1,0,1
 304 400 304 400 297 391 c 0,2,3
 287 380 287 380 285 373 c 2,4,-1
 190 48 l 1,5,6
 189 39 189 39 187 21 c 0,7,8
 179 -37 179 -37 139 -107 c 1,9,-1
 139 -108 l 1,10,11
 129 -122 129 -122 83 -164 c 0,12,13
 43 -201 43 -201 35 -218 c 1,14,-1
 -20 -175 l 1,15,16
 -18 -159 -18 -159 20 -136 c 0,17,18
 68 -107 68 -107 87 -86 c 0,19,20
 123 -45 123 -45 123 16 c 0,21,22
 123 45 123 45 115 68 c 2,23,-1
 37 294 l 2,24,25
 25 329 25 329 -2 339 c 1,26,-1
 -1 341 l 1,27,28
 1 354 1 354 21 374 c 0,29,30
 38 391 38 391 53 398 c 1,31,-1
 55 396 l 1,32,33
 58 381 58 381 80 322 c 1,34,35
 107 244 107 244 161 87 c 1,36,37
 182 163 182 163 204 240 c 1,38,39
 234 352 234 352 234 384 c 0,40,41
 234 392 234 392 227 395 c 1,42,43
 216 405 216 405 217 416 c 1,44,-1
 267 416 l 2,45,46
 269 416 269 416 304 415 c 1,0,1
EndSplineSet
EndChar

StartChar: z
Encoding: 122 122 93
Width: 265
Flags: W
LayerCount: 2
Fore
SplineSet
286 405 m 0,0,1
 286 375 286 375 195 230.5 c 128,-1,2
 104 86 104 86 104 66 c 0,3,4
 104 53 104 53 138 53 c 0,5,6
 201 53 201 53 250 89 c 1,7,8
 255 81 255 81 255 61 c 0,9,10
 255 19 255 19 248 12 c 0,11,12
 236 0 236 0 158 0 c 2,13,-1
 1 0 l 1,14,15
 13 26 13 26 114 191 c 0,16,17
 209 346 209 346 209 354 c 0,18,19
 209 363 209 363 157 363 c 0,20,21
 83 363 83 363 49 329 c 1,22,23
 45 337 45 337 45 372 c 0,24,25
 45 398 45 398 53.5 407.5 c 128,-1,26
 62 417 62 417 196 417 c 0,27,28
 286 417 286 417 286 405 c 0,0,1
EndSplineSet
EndChar

StartChar: braceleft
Encoding: 123 123 94
Width: 349
Flags: W
LayerCount: 2
Fore
SplineSet
352 250 m 0,0,1
 352 175 352 175 303 74 c 1,2,3
 258 -11 258 -11 212 -95 c 1,4,5
 163 -191 163 -191 163 -252 c 0,6,7
 163 -259 163 -259 157 -260 c 1,8,-1
 156 -259 l 1,9,10
 139 -260 139 -260 122 -229 c 0,11,12
 108 -202 108 -202 106 -182 c 1,13,-1
 107 -180 l 1,14,15
 107 -163 107 -163 156 -73 c 1,16,17
 228 56 228 56 248 98 c 0,18,19
 298 201 298 201 298 250 c 0,20,21
 298 393 298 393 195 393 c 0,22,23
 148 393 148 393 115.5 359 c 128,-1,24
 83 325 83 325 83 278 c 2,25,-1
 83 62 l 2,26,27
 83 56 83 56 92.5 37 c 128,-1,28
 102 18 102 18 102 1 c 1,29,30
 96 0 96 0 89 0 c 2,31,-1
 15 0 l 1,32,-1
 15 16 l 1,33,34
 32 54 32 54 32 62 c 2,35,-1
 32 497 l 2,36,37
 32 504 32 504 24 510 c 1,38,39
 15 513 15 513 15 522 c 0,40,41
 15 535 15 535 74 581 c 1,42,-1
 81 583 l 1,43,-1
 85 578 l 1,44,-1
 85 392 l 1,45,46
 132 448 132 448 196 448 c 0,47,48
 287 448 287 448 323 391 c 0,49,50
 352 346 352 346 352 250 c 0,0,1
EndSplineSet
EndChar

StartChar: bar
Encoding: 124 124 95
Width: 394
Flags: W
LayerCount: 2
Fore
SplineSet
211 -73 m 1,0,1
 209 -79 209 -79 207 -87 c 1,2,3
 197 -75 197 -75 173 -56 c 1,4,5
 160 -50 160 -50 160 -47 c 2,6,-1
 160 599 l 2,7,8
 160 611 160 611 176 632.5 c 128,-1,9
 192 654 192 654 204 657 c 1,10,11
 211 654 211 654 211 641 c 2,12,-1
 211 -73 l 1,0,1
EndSplineSet
EndChar

StartChar: braceright
Encoding: 125 125 96
Width: 388
Flags: W
LayerCount: 2
Fore
SplineSet
376 -13 m 0,0,1
 376 -98 376 -98 329 -155 c 0,2,3
 279 -214 279 -214 195 -214 c 0,4,5
 153 -214 153 -214 115 -194.5 c 128,-1,6
 77 -175 77 -175 58 -139 c 1,7,8
 63 -126 63 -126 81.5 -110.5 c 128,-1,9
 100 -95 100 -95 113 -92 c 1,10,11
 123 -155 123 -155 195 -155 c 0,12,13
 250 -155 250 -155 285 -108 c 0,14,15
 317 -65 317 -65 317 -8 c 0,16,17
 317 45 317 45 290 84 c 0,18,19
 267 117 267 117 261 123 c 0,20,21
 246 140 246 140 222 151 c 0,22,23
 210 157 210 157 196 157 c 0,24,25
 188 157 188 157 174 155 c 128,-1,26
 160 153 160 153 155 154 c 1,27,28
 167 179 167 179 220 269 c 1,29,30
 268 348 268 348 268 357 c 1,31,32
 258 358 258 358 209 362 c 0,33,34
 171 365 171 365 137 365 c 0,35,36
 131 365 131 365 101 363 c 1,37,38
 101 319 101 319 101 243 c 0,39,40
 100 156 100 156 100 122 c 0,41,42
 100 96 100 96 135 76 c 0,43,44
 165 59 165 59 193 59 c 1,45,46
 193 46 193 46 182 23 c 0,47,48
 170 -3 170 -3 159 -4 c 1,49,50
 48 40 48 40 48 122 c 2,51,-1
 48 519 l 1,52,53
 54 531 54 531 67 546 c 0,54,55
 88 569 88 569 89 571 c 1,56,57
 98 572 98 572 98 557 c 0,58,59
 98 541 98 541 97 508 c 0,60,61
 97 476 97 476 97 460 c 0,62,63
 97 422 97 422 100 413 c 1,64,65
 105 410 105 410 126 410 c 1,66,67
 125 409 125 409 244 409 c 0,68,69
 349 409 349 409 349 397 c 0,70,71
 349 367 349 367 299 298.5 c 128,-1,72
 249 230 249 230 249 210 c 0,73,74
 249 198 249 198 288 166 c 0,75,76
 376 94 376 94 376 -13 c 0,0,1
EndSplineSet
EndChar

StartChar: asciitilde
Encoding: 126 126 97
Width: 366
Flags: W
LayerCount: 2
Fore
SplineSet
298 289 m 0,0,1
 298 282 298 282 285 263 c 1,2,3
 255 223 255 223 213 223 c 0,4,5
 178 223 178 223 157 238.5 c 128,-1,6
 136 254 136 254 101 254 c 0,7,8
 87 254 87 254 61.5 240 c 128,-1,9
 36 226 36 226 33 226 c 0,10,11
 26 226 26 226 26 239 c 0,12,13
 26 273 26 273 35 279 c 0,14,15
 76 307 76 307 99 307 c 0,16,17
 133 307 133 307 158 290 c 128,-1,18
 183 273 183 273 201 273 c 0,19,20
 213 273 213 273 229 277 c 0,21,22
 238 279 238 279 259.5 296.5 c 128,-1,23
 281 314 281 314 288 316 c 1,24,25
 298 309 298 309 298 289 c 0,0,1
EndSplineSet
EndChar

StartChar: Adieresis
Encoding: 196 196 98
Width: 373
Flags: W
LayerCount: 2
Fore
SplineSet
366 1 m 1,0,1
 360 0 360 0 353 0 c 2,2,-1
 279 0 l 1,3,4
 279 1 279 1 289 41 c 1,5,-1
 291 43 l 1,6,7
 296 55 296 55 296 62 c 2,8,-1
 296 176 l 2,9,10
 296 205 296 205 273 205 c 0,11,12
 268 205 268 205 192 181.5 c 128,-1,13
 116 158 116 158 112 155 c 0,14,15
 98 146 98 146 82 50 c 0,16,17
 71 -11 71 -11 61 -72 c 1,18,19
 55 -95 55 -95 26 -170 c 0,20,21
 7 -219 7 -219 5 -223 c 0,22,23
 -11 -262 -11 -262 -20 -268 c 1,24,-1
 -25 -266 l 1,25,26
 -64 -219 -64 -219 -64 -164 c 1,27,28
 -56 -157 -56 -157 -29 -144 c 1,29,30
 16 -80 16 -80 41 117 c 1,31,32
 55 258 55 258 69 400 c 1,33,34
 76 458 76 458 109 514 c 0,35,36
 149 584 149 584 198 584 c 0,37,38
 260 584 260 584 296 518 c 0,39,40
 323 467 323 467 328 396 c 1,41,42
 331 304 331 304 334 211 c 1,43,44
 340 83 340 83 356 38 c 1,45,46
 367 25 367 25 366 1 c 1,0,1
203 529 m 0,47,48
 148 529 148 529 122 415 c 0,49,50
 105 341 105 341 105 255 c 0,51,52
 105 232 105 232 109 213 c 1,53,54
 171 232 171 232 195 240 c 0,55,56
 263 263 263 263 270 273 c 0,57,58
 279 287 279 287 279 322 c 0,59,60
 279 392 279 392 267 444 c 0,61,62
 248 529 248 529 203 529 c 0,47,48
318 661 m 0,63,64
 318 632 318 632 277 622 c 1,65,66
 234 629 234 629 234 665 c 0,67,68
 234 699 234 699 281 699 c 0,69,70
 299 699 299 699 309 683 c 1,71,-1
 310 683 l 1,72,73
 318 672 318 672 318 661 c 0,63,64
172 661 m 0,74,75
 172 632 172 632 131 622 c 1,76,77
 88 629 88 629 88 665 c 0,78,79
 88 699 88 699 135 699 c 0,80,81
 153 699 153 699 163 683 c 1,82,-1
 164 683 l 1,83,84
 172 672 172 672 172 661 c 0,74,75
EndSplineSet
EndChar

StartChar: Aring
Encoding: 197 197 99
Width: 373
Flags: W
LayerCount: 2
Fore
SplineSet
366 1 m 1,0,1
 360 0 360 0 353 0 c 2,2,-1
 279 0 l 1,3,4
 279 1 279 1 289 41 c 1,5,-1
 291 43 l 1,6,7
 296 55 296 55 296 62 c 2,8,-1
 296 176 l 2,9,10
 296 205 296 205 273 205 c 0,11,12
 268 205 268 205 192 181.5 c 128,-1,13
 116 158 116 158 112 155 c 0,14,15
 98 146 98 146 82 50 c 0,16,17
 71 -11 71 -11 61 -72 c 1,18,19
 55 -95 55 -95 26 -170 c 0,20,21
 7 -219 7 -219 5 -223 c 0,22,23
 -11 -262 -11 -262 -20 -268 c 1,24,-1
 -25 -266 l 1,25,26
 -64 -219 -64 -219 -64 -164 c 1,27,28
 -56 -157 -56 -157 -29 -144 c 1,29,30
 16 -80 16 -80 41 117 c 1,31,32
 55 258 55 258 69 400 c 1,33,34
 76 458 76 458 109 514 c 0,35,36
 149 584 149 584 198 584 c 0,37,38
 260 584 260 584 296 518 c 0,39,40
 323 467 323 467 328 396 c 1,41,42
 331 304 331 304 334 211 c 1,43,44
 340 83 340 83 356 38 c 1,45,46
 367 25 367 25 366 1 c 1,0,1
203 529 m 0,47,48
 148 529 148 529 122 415 c 0,49,50
 105 341 105 341 105 255 c 0,51,52
 105 232 105 232 109 213 c 1,53,54
 171 232 171 232 195 240 c 0,55,56
 263 263 263 263 270 273 c 0,57,58
 279 287 279 287 279 322 c 0,59,60
 279 392 279 392 267 444 c 0,61,62
 248 529 248 529 203 529 c 0,47,48
287 676 m 0,63,64
 287 642 287 642 264 615 c 128,-1,65
 241 588 241 588 208 588 c 0,66,67
 172 588 172 588 146 621 c 0,68,69
 122 651 122 651 122 689 c 0,70,71
 122 722 122 722 145 745 c 128,-1,72
 168 768 168 768 201 768 c 0,73,74
 238 768 238 768 262.5 740 c 128,-1,75
 287 712 287 712 287 676 c 0,63,64
250 680 m 0,76,77
 250 699 250 699 235 713 c 128,-1,78
 220 727 220 727 200 727 c 0,79,80
 182 727 182 727 168 716 c 128,-1,81
 154 705 154 705 154 686 c 0,82,83
 154 666 154 666 169 650 c 128,-1,84
 184 634 184 634 204 634 c 0,85,86
 222 634 222 634 236 648 c 128,-1,87
 250 662 250 662 250 680 c 0,76,77
EndSplineSet
EndChar

StartChar: Odieresis
Encoding: 214 214 103
Width: 378
Flags: W
LayerCount: 2
Fore
SplineSet
379 290 m 0,0,1
 379 184 379 184 344 105 c 0,2,3
 297 1 297 1 204 1 c 0,4,5
 110 1 110 1 61 105 c 0,6,7
 23 185 23 185 23 292 c 256,8,9
 23 399 23 399 60 478 c 0,10,11
 109 581 109 581 204 581 c 0,12,13
 297 581 297 581 344 476 c 0,14,15
 379 397 379 397 379 290 c 0,0,1
331 297 m 0,16,17
 331 378 331 378 306 440 c 0,18,19
 273 525 273 525 204 525 c 0,20,21
 129 525 129 525 92 440 c 0,22,23
 65 376 65 376 65 289 c 0,24,25
 65 208 65 208 95 144 c 0,26,27
 133 61 133 61 204 61 c 256,28,29
 275 61 275 61 308 149 c 0,30,31
 331 211 331 211 331 297 c 0,16,17
318 661 m 0,32,33
 318 632 318 632 277 622 c 1,34,35
 234 629 234 629 234 665 c 0,36,37
 234 699 234 699 281 699 c 0,38,39
 299 699 299 699 309 683 c 1,40,-1
 310 683 l 1,41,42
 318 672 318 672 318 661 c 0,32,33
172 661 m 0,43,44
 172 632 172 632 131 622 c 1,45,46
 88 629 88 629 88 665 c 0,47,48
 88 699 88 699 135 699 c 0,49,50
 153 699 153 699 163 683 c 1,51,-1
 164 683 l 1,52,53
 172 672 172 672 172 661 c 0,43,44
EndSplineSet
EndChar

StartChar: Udieresis
Encoding: 220 220 104
Width: 391
Flags: W
LayerCount: 2
Fore
SplineSet
381 7 m 2,0,1
 381 0 381 0 363 0 c 0,2,3
 332 0 332 0 271.5 1 c 128,-1,4
 211 2 211 2 180 2 c 0,5,6
 114 2 114 2 67 52 c 0,7,8
 16 107 16 107 16 173 c 0,9,10
 16 223 16 223 60.5 303 c 128,-1,11
 105 383 105 383 105 416 c 0,12,13
 105 459 105 459 63 501 c 1,14,15
 87 554 87 554 105 554 c 256,16,17
 123 554 123 554 140 501 c 0,18,19
 155 456 155 456 155 432 c 0,20,21
 155 383 155 383 112 298.5 c 128,-1,22
 69 214 69 214 69 172 c 256,23,24
 69 130 69 130 103.5 92 c 128,-1,25
 138 54 138 54 180 54 c 2,26,-1
 268 54 l 2,27,28
 299 54 299 54 312 59 c 1,29,-1
 312 513 l 2,30,31
 312 517 312 517 303 538 c 1,32,33
 292 549 292 549 293 574 c 1,34,35
 298 576 298 576 304 576 c 2,36,-1
 372 576 l 1,37,38
 372 576 372 576 380 575 c 1,39,-1
 380 559 l 2,40,41
 380 551 380 551 371.5 536.5 c 128,-1,42
 363 522 363 522 363 514 c 2,43,-1
 363 28 l 2,44,45
 363 22 363 22 381 9 c 1,46,-1
 381 7 l 2,0,1
329 647 m 0,47,48
 329 617 329 617 288 608 c 1,49,50
 245 615 245 615 245 651 c 0,51,52
 245 685 245 685 292 685 c 0,53,54
 310 685 310 685 320 669 c 1,55,-1
 321 669 l 1,56,57
 329 658 329 658 329 647 c 0,47,48
183 647 m 0,58,59
 183 617 183 617 142 608 c 1,60,61
 99 615 99 615 99 651 c 0,62,63
 99 685 99 685 146 685 c 0,64,65
 164 685 164 685 174 669 c 1,66,-1
 175 669 l 1,67,68
 183 658 183 658 183 647 c 0,58,59
EndSplineSet
EndChar

StartChar: aacute
Encoding: 225 225 105
Width: 298
Flags: W
LayerCount: 2
Fore
SplineSet
288 7 m 1,0,-1
 279 0 l 1,1,-1
 144 0 l 2,2,3
 93 0 93 0 57 25 c 0,4,5
 16 53 16 53 16 102 c 0,6,7
 16 157 16 157 68 197 c 1,8,9
 116 225 116 225 166.5 255 c 128,-1,10
 217 285 217 285 217 319 c 0,11,12
 217 333 217 333 202.5 347 c 128,-1,13
 188 361 188 361 174 361 c 2,14,-1
 98 361 l 2,15,16
 85 361 85 361 77 350 c 128,-1,17
 69 339 69 339 62 328 c 1,18,19
 54 357 54 357 54 398 c 0,20,21
 54 416 54 416 81 416 c 2,22,-1
 207 416 l 2,23,24
 267 416 267 416 267 301 c 0,25,26
 267 288 267 288 265.5 262.5 c 128,-1,27
 264 237 264 237 264 224 c 2,28,-1
 264 74 l 2,29,30
 264 56 264 56 275.5 35.5 c 128,-1,31
 287 15 287 15 288 7 c 1,0,-1
217 58 m 1,32,-1
 217 213 l 1,33,-1
 215 216 l 1,34,-1
 210 216 l 2,35,36
 169 216 169 216 119 180 c 0,37,38
 65 142 65 142 65 103 c 0,39,40
 65 98 65 98 65 89 c 0,41,42
 66 80 66 80 66 75 c 1,43,44
 130 47 130 47 167 47 c 0,45,46
 202 47 202 47 216 56 c 1,47,-1
 217 58 l 1,32,-1
253 572 m 1,48,-1
 156 470 l 1,49,-1
 132 484 l 1,50,-1
 201 588 l 1,51,-1
 253 572 l 1,48,-1
EndSplineSet
EndChar

StartChar: agrave
Encoding: 224 224 106
Width: 298
Flags: W
LayerCount: 2
Fore
SplineSet
288 7 m 1,0,-1
 279 0 l 1,1,-1
 144 0 l 2,2,3
 93 0 93 0 57 25 c 0,4,5
 16 53 16 53 16 102 c 0,6,7
 16 157 16 157 68 197 c 1,8,9
 116 225 116 225 166.5 255 c 128,-1,10
 217 285 217 285 217 319 c 0,11,12
 217 333 217 333 202.5 347 c 128,-1,13
 188 361 188 361 174 361 c 2,14,-1
 98 361 l 2,15,16
 85 361 85 361 77 350 c 128,-1,17
 69 339 69 339 62 328 c 1,18,19
 54 357 54 357 54 398 c 0,20,21
 54 416 54 416 81 416 c 2,22,-1
 207 416 l 2,23,24
 267 416 267 416 267 301 c 0,25,26
 267 288 267 288 265.5 262.5 c 128,-1,27
 264 237 264 237 264 224 c 2,28,-1
 264 74 l 2,29,30
 264 56 264 56 275.5 35.5 c 128,-1,31
 287 15 287 15 288 7 c 1,0,-1
217 58 m 1,32,-1
 217 213 l 1,33,-1
 215 216 l 1,34,-1
 210 216 l 2,35,36
 169 216 169 216 119 180 c 0,37,38
 65 142 65 142 65 103 c 0,39,40
 65 98 65 98 65 89 c 0,41,42
 66 80 66 80 66 75 c 1,43,44
 130 47 130 47 167 47 c 0,45,46
 202 47 202 47 216 56 c 1,47,-1
 217 58 l 1,32,-1
186 488 m 1,48,-1
 162 474 l 1,49,-1
 65 576 l 1,50,-1
 117 592 l 1,51,-1
 186 488 l 1,48,-1
EndSplineSet
EndChar

StartChar: adieresis
Encoding: 228 228 108
Width: 298
Flags: W
LayerCount: 2
Fore
SplineSet
288 7 m 1,0,-1
 279 0 l 1,1,-1
 144 0 l 2,2,3
 93 0 93 0 57 25 c 0,4,5
 16 53 16 53 16 102 c 0,6,7
 16 157 16 157 68 197 c 1,8,9
 116 225 116 225 166.5 255 c 128,-1,10
 217 285 217 285 217 319 c 0,11,12
 217 333 217 333 202.5 347 c 128,-1,13
 188 361 188 361 174 361 c 2,14,-1
 98 361 l 2,15,16
 85 361 85 361 77 350 c 128,-1,17
 69 339 69 339 62 328 c 1,18,19
 54 357 54 357 54 398 c 0,20,21
 54 416 54 416 81 416 c 2,22,-1
 207 416 l 2,23,24
 267 416 267 416 267 301 c 0,25,26
 267 288 267 288 265.5 262.5 c 128,-1,27
 264 237 264 237 264 224 c 2,28,-1
 264 74 l 2,29,30
 264 56 264 56 275.5 35.5 c 128,-1,31
 287 15 287 15 288 7 c 1,0,-1
217 58 m 1,32,-1
 217 213 l 1,33,-1
 215 216 l 1,34,-1
 210 216 l 2,35,36
 169 216 169 216 119 180 c 0,37,38
 65 142 65 142 65 103 c 0,39,40
 65 98 65 98 65 89 c 0,41,42
 66 80 66 80 66 75 c 1,43,44
 130 47 130 47 167 47 c 0,45,46
 202 47 202 47 216 56 c 1,47,-1
 217 58 l 1,32,-1
263 511 m 0,48,49
 263 495 263 495 250 483.5 c 128,-1,50
 237 472 237 472 222 472 c 0,51,52
 204 472 204 472 191.5 484 c 128,-1,53
 179 496 179 496 179 515 c 0,54,55
 179 549 179 549 226 549 c 0,56,57
 240 549 240 549 251.5 537 c 128,-1,58
 263 525 263 525 263 511 c 0,48,49
137 511 m 0,59,60
 137 495 137 495 124 483.5 c 128,-1,61
 111 472 111 472 96 472 c 0,62,63
 78 472 78 472 65.5 484 c 128,-1,64
 53 496 53 496 53 515 c 0,65,66
 53 549 53 549 100 549 c 0,67,68
 114 549 114 549 125.5 537 c 128,-1,69
 137 525 137 525 137 511 c 0,59,60
EndSplineSet
EndChar

StartChar: aring
Encoding: 229 229 110
Width: 298
Flags: W
LayerCount: 2
Fore
SplineSet
288 7 m 1,0,-1
 279 0 l 1,1,-1
 144 0 l 2,2,3
 93 0 93 0 57 25 c 0,4,5
 16 53 16 53 16 102 c 0,6,7
 16 157 16 157 68 197 c 1,8,9
 116 225 116 225 166.5 255 c 128,-1,10
 217 285 217 285 217 319 c 0,11,12
 217 333 217 333 202.5 347 c 128,-1,13
 188 361 188 361 174 361 c 2,14,-1
 98 361 l 2,15,16
 85 361 85 361 77 350 c 128,-1,17
 69 339 69 339 62 328 c 1,18,19
 54 357 54 357 54 398 c 0,20,21
 54 416 54 416 81 416 c 2,22,-1
 207 416 l 2,23,24
 267 416 267 416 267 301 c 0,25,26
 267 288 267 288 265.5 262.5 c 128,-1,27
 264 237 264 237 264 224 c 2,28,-1
 264 74 l 2,29,30
 264 56 264 56 275.5 35.5 c 128,-1,31
 287 15 287 15 288 7 c 1,0,-1
217 58 m 1,32,-1
 217 213 l 1,33,-1
 215 216 l 1,34,-1
 210 216 l 2,35,36
 169 216 169 216 119 180 c 0,37,38
 65 142 65 142 65 103 c 0,39,40
 65 98 65 98 65 89 c 0,41,42
 66 80 66 80 66 75 c 1,43,44
 130 47 130 47 167 47 c 0,45,46
 202 47 202 47 216 56 c 1,47,-1
 217 58 l 1,32,-1
222 498 m 0,48,49
 222 470 222 470 201.5 448.5 c 128,-1,50
 181 427 181 427 154 427 c 0,51,52
 123 427 123 427 101 452 c 128,-1,53
 79 477 79 477 79 509 c 0,54,55
 79 536 79 536 99.5 554.5 c 128,-1,56
 120 573 120 573 148 573 c 0,57,58
 178 573 178 573 200 550.5 c 128,-1,59
 222 528 222 528 222 498 c 0,48,49
190 501 m 0,60,61
 190 518 190 518 176.5 529 c 128,-1,62
 163 540 163 540 146 540 c 0,63,64
 131 540 131 540 118.5 531 c 128,-1,65
 106 522 106 522 106 507 c 0,66,67
 106 490 106 490 119.5 477.5 c 128,-1,68
 133 465 133 465 150 465 c 0,69,70
 165 465 165 465 177.5 475.5 c 128,-1,71
 190 486 190 486 190 501 c 0,60,61
EndSplineSet
EndChar

StartChar: ccedilla
Encoding: 231 231 111
Width: 310
Flags: W
LayerCount: 2
Fore
SplineSet
304 108 m 0,0,1
 304 72 304 72 259 39 c 0,2,3
 221 11 221 11 180 2 c 1,4,5
 196 -18 196 -18 196 -39 c 0,6,7
 196 -56 196 -56 175 -95 c 128,-1,8
 154 -134 154 -134 138 -134 c 0,9,10
 133 -134 133 -134 133 -122 c 0,11,12
 133 -112 133 -112 148 -97.5 c 128,-1,13
 163 -83 163 -83 163 -70 c 0,14,15
 163 -64 163 -64 156 -63 c 1,16,-1
 156 -64 l 1,17,18
 110 -61 110 -61 111 -20 c 1,19,20
 110 -19 110 -19 126 4 c 1,21,22
 67 20 67 20 38 95 c 0,23,24
 16 152 16 152 16 225 c 0,25,26
 16 297 16 297 58 354 c 0,27,28
 104 416 104 416 173 416 c 0,29,30
 228 416 228 416 256 381 c 128,-1,31
 284 346 284 346 284 290 c 0,32,33
 284 251 284 251 264 224 c 0,34,35
 242 193 242 193 203 193 c 0,36,37
 179 193 179 193 157 204 c 0,38,39
 131 218 131 218 131 240 c 1,40,41
 135 255 135 255 148 286 c 1,42,43
 158 293 158 293 157 293 c 1,44,45
 166 279 166 279 176 266 c 128,-1,46
 186 253 186 253 207 253 c 0,47,48
 239 253 239 253 239 308 c 0,49,50
 239 335 239 335 216.5 352 c 128,-1,51
 194 369 194 369 166 369 c 0,52,53
 113 369 113 369 87 311 c 0,54,55
 67 266 67 266 67 206 c 0,56,57
 67 152 67 152 87 110 c 0,58,59
 113 57 113 57 161 57 c 0,60,61
 201 57 201 57 223 87 c 0,62,63
 237 107 237 107 249 153 c 0,64,65
 251 162 251 162 258 160 c 1,66,67
 270 153 270 153 286 137 c 0,68,69
 304 118 304 118 304 108 c 0,0,1
EndSplineSet
EndChar

StartChar: eacute
Encoding: 233 233 112
Width: 335
Flags: W
LayerCount: 2
Fore
SplineSet
324 123 m 1,0,1
 322 80 322 80 268.5 40 c 128,-1,2
 215 0 215 0 171 0 c 0,3,4
 18 0 18 0 18 205 c 0,5,6
 18 293 18 293 52 348 c 0,7,8
 93 416 93 416 175 416 c 0,9,10
 226 416 226 416 271 367.5 c 128,-1,11
 316 319 316 319 319 267 c 1,12,13
 242 217 242 217 90 115 c 1,14,15
 94 91 94 91 119 75 c 128,-1,16
 144 59 144 59 170 59 c 0,17,18
 224 59 224 59 245 92 c 1,19,20
 260 131 260 131 275 171 c 1,21,-1
 279 173 l 1,22,23
 305 161 305 161 324 123 c 1,0,1
258 288 m 1,24,25
 256 321 256 321 221 345 c 1,26,27
 190 368 190 368 155 368 c 0,28,29
 111 368 111 368 84 310 c 0,30,31
 63 264 63 264 63 213 c 0,32,33
 63 170 63 170 77 166 c 1,34,35
 137 205 137 205 256 284 c 1,36,-1
 258 288 l 1,24,25
253 572 m 1,37,-1
 156 470 l 1,38,-1
 132 484 l 1,39,-1
 201 588 l 1,40,-1
 253 572 l 1,37,-1
EndSplineSet
EndChar

StartChar: edieresis
Encoding: 235 235 115
Width: 335
Flags: W
LayerCount: 2
Fore
SplineSet
324 123 m 1,0,1
 322 80 322 80 268.5 40 c 128,-1,2
 215 0 215 0 171 0 c 0,3,4
 18 0 18 0 18 205 c 0,5,6
 18 293 18 293 52 348 c 0,7,8
 93 416 93 416 175 416 c 0,9,10
 226 416 226 416 271 367.5 c 128,-1,11
 316 319 316 319 319 267 c 1,12,13
 242 217 242 217 90 115 c 1,14,15
 94 91 94 91 119 75 c 128,-1,16
 144 59 144 59 170 59 c 0,17,18
 224 59 224 59 245 92 c 1,19,20
 260 131 260 131 275 171 c 1,21,-1
 279 173 l 1,22,23
 305 161 305 161 324 123 c 1,0,1
258 288 m 1,24,25
 256 321 256 321 221 345 c 1,26,27
 190 368 190 368 155 368 c 0,28,29
 111 368 111 368 84 310 c 0,30,31
 63 264 63 264 63 213 c 0,32,33
 63 170 63 170 77 166 c 1,34,35
 137 205 137 205 256 284 c 1,36,-1
 258 288 l 1,24,25
267 497 m 0,37,38
 267 467 267 467 226 458 c 1,39,40
 183 465 183 465 183 503 c 0,41,42
 183 535 183 535 230 535 c 0,43,44
 244 535 244 535 255.5 523 c 128,-1,45
 267 511 267 511 267 497 c 0,37,38
141 497 m 0,46,47
 141 467 141 467 100 458 c 1,48,49
 57 465 57 465 57 503 c 0,50,51
 57 535 57 535 104 535 c 0,52,53
 118 535 118 535 129.5 523 c 128,-1,54
 141 511 141 511 141 497 c 0,46,47
EndSplineSet
EndChar

StartChar: oacute
Encoding: 243 243 121
Width: 318
Flags: W
LayerCount: 2
Fore
SplineSet
246 578 m 1,0,-1
 149 476 l 1,1,-1
 125 490 l 1,2,-1
 194 594 l 1,3,-1
 246 578 l 1,0,-1
306 208 m 0,4,5
 306 131 306 131 274 73 c 1,6,7
 236 1 236 1 165 1 c 0,8,9
 91 1 91 1 51 74 c 0,10,11
 19 133 19 133 19 213 c 0,12,13
 19 291 19 291 53 350 c 0,14,15
 93 421 93 421 165 421 c 0,16,17
 238 421 238 421 276 347 c 0,18,19
 306 289 306 289 306 208 c 0,4,5
255 213 m 0,20,21
 255 268 255 268 237 310 c 0,22,23
 213 365 213 365 165 365 c 256,24,25
 117 365 117 365 92 310 c 0,26,27
 72 268 72 268 72 214 c 0,28,29
 72 158 72 158 91 116 c 0,30,31
 116 61 116 61 165 61 c 0,32,33
 211 61 211 61 236 116 c 0,34,35
 255 159 255 159 255 213 c 0,20,21
EndSplineSet
EndChar

StartChar: ograve
Encoding: 242 242 122
Width: 318
Flags: W
LayerCount: 2
Fore
SplineSet
197 484 m 1,0,-1
 173 470 l 1,1,-1
 76 572 l 1,2,-1
 128 588 l 1,3,-1
 197 484 l 1,0,-1
306 207 m 0,4,5
 306 130 306 130 274 72 c 0,6,7
 235 1 235 1 165 1 c 0,8,9
 91 1 91 1 51 75 c 0,10,11
 19 134 19 134 19 215 c 0,12,13
 19 292 19 292 53 351 c 0,14,15
 93 421 93 421 165 421 c 0,16,17
 239 421 239 421 276 347 c 0,18,19
 306 289 306 289 306 207 c 0,4,5
255 214 m 0,20,21
 255 270 255 270 237 311 c 0,22,23
 213 365 213 365 165 365 c 0,24,25
 116 365 116 365 91 310 c 0,26,27
 72 268 72 268 72 212 c 0,28,29
 72 158 72 158 92 115 c 0,30,31
 117 61 117 61 165 61 c 256,32,33
 213 61 213 61 237 117 c 0,34,35
 255 159 255 159 255 214 c 0,20,21
EndSplineSet
EndChar

StartChar: ocircumflex
Encoding: 244 244 123
Width: 318
Flags: W
LayerCount: 2
Fore
SplineSet
258 491 m 1,0,-1
 234 477 l 1,1,-1
 169 545 l 1,2,-1
 105 478 l 1,3,-1
 81 492 l 1,4,-1
 150 596 l 1,5,-1
 171 600 l 1,6,-1
 189 595 l 1,7,-1
 258 491 l 1,0,-1
306 207 m 0,8,9
 306 130 306 130 274 72 c 0,10,11
 235 1 235 1 165 1 c 0,12,13
 91 1 91 1 51 75 c 0,14,15
 19 134 19 134 19 215 c 0,16,17
 19 292 19 292 53 351 c 0,18,19
 93 421 93 421 165 421 c 0,20,21
 239 421 239 421 276 347 c 0,22,23
 306 289 306 289 306 207 c 0,8,9
255 214 m 0,24,25
 255 270 255 270 237 311 c 0,26,27
 213 365 213 365 165 365 c 0,28,29
 116 365 116 365 91 310 c 0,30,31
 72 268 72 268 72 212 c 0,32,33
 72 158 72 158 92 115 c 0,34,35
 117 61 117 61 165 61 c 256,36,37
 213 61 213 61 237 117 c 0,38,39
 255 159 255 159 255 214 c 0,24,25
EndSplineSet
EndChar

StartChar: odieresis
Encoding: 246 246 124
Width: 318
Flags: W
LayerCount: 2
Fore
SplineSet
267 510 m 0,0,1
 267 481 267 481 226 471 c 1,2,3
 183 478 183 478 183 514 c 0,4,5
 183 548 183 548 230 548 c 0,6,7
 244 548 244 548 255.5 536 c 128,-1,8
 267 524 267 524 267 510 c 0,0,1
141 510 m 0,9,10
 141 481 141 481 100 471 c 1,11,12
 57 478 57 478 57 514 c 0,13,14
 57 548 57 548 104 548 c 0,15,16
 118 548 118 548 129.5 536 c 128,-1,17
 141 524 141 524 141 510 c 0,9,10
306 209 m 0,18,19
 306 131 306 131 274 73 c 1,20,21
 236 1 236 1 165 1 c 0,22,23
 91 1 91 1 51 74 c 0,24,25
 19 133 19 133 19 213 c 0,26,27
 19 291 19 291 53 350 c 0,28,29
 93 421 93 421 165 421 c 0,30,31
 238 421 238 421 276 347 c 0,32,33
 306 289 306 289 306 209 c 0,18,19
255 213 m 0,34,35
 255 268 255 268 237 310 c 0,36,37
 213 365 213 365 165 365 c 256,38,39
 117 365 117 365 92 310 c 0,40,41
 72 268 72 268 72 214 c 0,42,43
 72 158 72 158 91 116 c 0,44,45
 116 61 116 61 165 61 c 0,46,47
 211 61 211 61 236 116 c 0,48,49
 255 159 255 159 255 213 c 0,34,35
EndSplineSet
EndChar

StartChar: otilde
Encoding: 245 245 125
Width: 318
Flags: W
LayerCount: 2
Fore
SplineSet
306 207 m 0,0,1
 306 130 306 130 274 72 c 0,2,3
 235 1 235 1 165 1 c 0,4,5
 91 1 91 1 51 75 c 0,6,7
 19 134 19 134 19 215 c 0,8,9
 19 292 19 292 53 351 c 0,10,11
 93 421 93 421 165 421 c 0,12,13
 239 421 239 421 276 347 c 0,14,15
 306 289 306 289 306 207 c 0,0,1
255 214 m 0,16,17
 255 270 255 270 237 311 c 0,18,19
 213 365 213 365 165 365 c 0,20,21
 116 365 116 365 91 310 c 0,22,23
 72 268 72 268 72 212 c 0,24,25
 72 158 72 158 92 115 c 0,26,27
 117 61 117 61 165 61 c 256,28,29
 213 61 213 61 237 117 c 0,30,31
 255 159 255 159 255 214 c 0,16,17
271 534 m 0,32,33
 271 528 271 528 257 511 c 0,34,35
 228 474 228 474 202 474 c 0,36,37
 175 474 175 474 159 488 c 128,-1,38
 143 502 143 502 116 502 c 0,39,40
 105 502 105 502 89.5 490.5 c 128,-1,41
 74 479 74 479 71 479 c 0,42,43
 65 479 65 479 63 498 c 0,44,45
 60 519 60 519 70 527 c 0,46,47
 100 550 100 550 114 550 c 0,48,49
 140 550 140 550 159.5 534.5 c 128,-1,50
 179 519 179 519 193 519 c 0,51,52
 202 519 202 519 214 523 c 0,53,54
 221 525 221 525 237 539 c 128,-1,55
 253 553 253 553 258 555 c 1,56,57
 271 544 271 544 271 534 c 0,32,33
EndSplineSet
EndChar

StartChar: uacute
Encoding: 250 250 126
Width: 311
Flags: W
LayerCount: 2
Fore
SplineSet
246 578 m 1,0,-1
 149 476 l 1,1,-1
 125 490 l 1,2,-1
 194 594 l 1,3,-1
 246 578 l 1,0,-1
301 7 m 2,4,5
 301 -1 301 -1 265 -1 c 0,6,7
 153 -1 153 -1 104 15 c 0,8,9
 16 44 16 44 16 132 c 0,10,11
 16 165 16 165 41.5 213.5 c 128,-1,12
 67 262 67 262 67 286 c 0,13,14
 67 315 67 315 45 354 c 1,15,16
 47 372 47 372 83 406 c 1,17,-1
 90 408 l 1,18,-1
 96 406 l 1,19,20
 118 348 118 348 118 301 c 0,21,22
 118 266 118 266 94 210 c 128,-1,23
 70 154 70 154 70 131 c 0,24,25
 70 98 70 98 98 76.5 c 128,-1,26
 126 55 126 55 160 55 c 2,27,-1
 193 55 l 2,28,29
 218 55 218 55 232 58 c 1,30,-1
 232 353 l 2,31,32
 232 357 232 357 230 366 c 1,33,34
 213 390 213 390 213 415 c 1,35,36
 235 416 235 416 266 416 c 2,37,-1
 300 416 l 1,38,-1
 300 400 l 1,39,40
 283 364 283 364 283 354 c 2,41,-1
 283 28 l 2,42,43
 283 22 283 22 301 9 c 1,44,-1
 301 7 l 2,4,5
EndSplineSet
EndChar

StartChar: ugrave
Encoding: 249 249 127
Width: 311
Flags: W
LayerCount: 2
Fore
SplineSet
211 490 m 1,0,-1
 187 476 l 1,1,-1
 90 578 l 1,2,-1
 142 594 l 1,3,-1
 211 490 l 1,0,-1
301 7 m 2,4,5
 301 -1 301 -1 265 -1 c 0,6,7
 153 -1 153 -1 104 15 c 0,8,9
 16 44 16 44 16 132 c 0,10,11
 16 165 16 165 41.5 213.5 c 128,-1,12
 67 262 67 262 67 286 c 0,13,14
 67 315 67 315 45 354 c 1,15,16
 47 372 47 372 83 406 c 1,17,-1
 90 408 l 1,18,-1
 96 406 l 1,19,20
 118 348 118 348 118 301 c 0,21,22
 118 266 118 266 94 210 c 128,-1,23
 70 154 70 154 70 131 c 0,24,25
 70 98 70 98 98 76.5 c 128,-1,26
 126 55 126 55 160 55 c 2,27,-1
 193 55 l 2,28,29
 218 55 218 55 232 58 c 1,30,-1
 232 353 l 2,31,32
 232 357 232 357 230 366 c 1,33,34
 213 390 213 390 213 415 c 1,35,36
 235 416 235 416 266 416 c 2,37,-1
 300 416 l 1,38,-1
 300 400 l 1,39,40
 283 364 283 364 283 354 c 2,41,-1
 283 28 l 2,42,43
 283 22 283 22 301 9 c 1,44,-1
 301 7 l 2,4,5
EndSplineSet
EndChar

StartChar: udieresis
Encoding: 252 252 129
Width: 311
Flags: W
LayerCount: 2
Fore
SplineSet
266 531 m 0,0,1
 266 502 266 502 225 492 c 1,2,3
 182 499 182 499 182 535 c 0,4,5
 182 569 182 569 229 569 c 0,6,7
 243 569 243 569 254.5 557 c 128,-1,8
 266 545 266 545 266 531 c 0,0,1
140 531 m 0,9,10
 140 502 140 502 99 492 c 1,11,12
 56 499 56 499 56 535 c 0,13,14
 56 569 56 569 103 569 c 0,15,16
 117 569 117 569 128.5 557 c 128,-1,17
 140 545 140 545 140 531 c 0,9,10
301 7 m 2,18,19
 301 -1 301 -1 265 -1 c 0,20,21
 153 -1 153 -1 104 15 c 0,22,23
 16 44 16 44 16 132 c 0,24,25
 16 165 16 165 41.5 213.5 c 128,-1,26
 67 262 67 262 67 286 c 0,27,28
 67 315 67 315 45 354 c 1,29,30
 47 372 47 372 83 406 c 1,31,-1
 90 408 l 1,32,-1
 96 406 l 1,33,34
 118 348 118 348 118 301 c 0,35,36
 118 266 118 266 94 210 c 128,-1,37
 70 154 70 154 70 131 c 0,38,39
 70 98 70 98 98 76.5 c 128,-1,40
 126 55 126 55 160 55 c 2,41,-1
 193 55 l 2,42,43
 218 55 218 55 232 58 c 1,44,-1
 232 353 l 2,45,46
 232 357 232 357 230 366 c 1,47,48
 213 390 213 390 213 415 c 1,49,50
 235 416 235 416 266 416 c 2,51,-1
 300 416 l 1,52,-1
 300 400 l 1,53,54
 283 364 283 364 283 354 c 2,55,-1
 283 28 l 2,56,57
 283 22 283 22 301 9 c 1,58,-1
 301 7 l 2,18,19
EndSplineSet
EndChar

StartChar: dagger
Encoding: 8224 8224 130
Width: 343
Flags: W
LayerCount: 2
Fore
SplineSet
288 441 m 1,0,-1
 263 387 l 1,1,-1
 171 385 l 1,2,-1
 169 16 l 2,3,4
 169 -3 169 -3 163 -6 c 1,5,6
 112 43 112 43 112 50 c 0,7,8
 112 53 112 53 114.5 58 c 128,-1,9
 117 63 117 63 117 65 c 1,10,11
 125 74 125 74 125 199 c 0,12,13
 125 228 125 228 124 292 c 0,14,15
 124 352 124 352 124 385 c 1,16,17
 116 389 116 389 86 389 c 0,18,19
 65 389 65 389 27 387 c 1,20,-1
 34 436 l 1,21,22
 67 441 67 441 124 439 c 1,23,24
 124 450 124 450 123 468 c 1,25,26
 123 489 123 489 123 498 c 0,27,28
 123 525 123 525 136 542 c 0,29,30
 141 549 141 549 171 573 c 1,31,-1
 171 439 l 1,32,-1
 288 441 l 1,0,-1
EndSplineSet
EndChar

StartChar: degree
Encoding: 176 176 131
Width: 233
Flags: W
LayerCount: 2
Fore
SplineSet
217 495 m 0,0,1
 217 455 217 455 189 423.5 c 128,-1,2
 161 392 161 392 121 392 c 0,3,4
 77 392 77 392 45.5 429 c 128,-1,5
 14 466 14 466 14 511 c 0,6,7
 14 551 14 551 43 577.5 c 128,-1,8
 72 604 72 604 112 604 c 0,9,10
 156 604 156 604 186.5 571.5 c 128,-1,11
 217 539 217 539 217 495 c 0,0,1
171 500 m 0,12,13
 171 524 171 524 153 540 c 128,-1,14
 135 556 135 556 110 556 c 0,15,16
 88 556 88 556 72 543 c 1,17,18
 53 530 53 530 53 508 c 0,19,20
 53 484 53 484 72 465.5 c 128,-1,21
 91 447 91 447 115 447 c 0,22,23
 137 447 137 447 154 462.5 c 128,-1,24
 171 478 171 478 171 500 c 0,12,13
EndSplineSet
EndChar

StartChar: cent
Encoding: 162 162 132
Width: 310
Flags: W
LayerCount: 2
Fore
SplineSet
169 406 m 1,0,1
 67 400 67 400 67 255 c 0,2,3
 67 208 67 208 85 167 c 1,4,5
 121 271 121 271 169 406 c 1,0,1
292 338 m 0,6,7
 292 301 292 301 259 301 c 0,8,9
 241 301 241 301 241 312 c 0,10,11
 241 319 241 319 244.5 333 c 128,-1,12
 248 347 248 347 248 354 c 0,13,14
 248 377 248 377 213 395 c 1,15,16
 182 305 182 305 123 124 c 1,17,18
 137 115 137 115 152 115 c 0,19,20
 184 115 184 115 210 133.5 c 128,-1,21
 236 152 236 152 236 182 c 0,22,23
 236 190 236 190 245 189 c 1,24,25
 257 181 257 181 272 167 c 0,26,27
 290 150 290 150 290 140 c 0,28,29
 290 107 290 107 240 83 c 0,30,31
 197 62 197 62 157 62 c 0,32,33
 130 62 130 62 107 73 c 1,34,35
 90 20 90 20 70 -12 c 1,36,37
 62 18 62 18 44 35 c 1,38,-1
 43 39 l 1,39,40
 53 72 53 72 65 109 c 1,41,42
 17 171 17 171 17 272 c 0,43,44
 17 339 17 339 58 392 c 1,45,46
 104 449 104 449 172 449 c 0,47,48
 179 449 179 449 185 449 c 1,49,50
 199 491 199 491 203 499 c 0,51,52
 216 520 216 520 245 527 c 1,53,-1
 251 519 l 1,54,55
 240 482 240 482 228 441 c 1,56,57
 292 417 292 417 292 338 c 0,6,7
EndSplineSet
EndChar

StartChar: sterling
Encoding: 163 163 133
Width: 387
Flags: W
LayerCount: 2
Fore
SplineSet
373 79 m 1,0,1
 365 57 365 57 358 35 c 1,2,3
 346 4 346 4 331 4 c 2,4,-1
 68 4 l 1,5,-1
 63 12 l 1,6,7
 63 38 63 38 87 92.5 c 128,-1,8
 111 147 111 147 111 182 c 1,9,10
 63 179 63 179 48 179 c 0,11,12
 43 179 43 179 34 175 c 128,-1,13
 25 171 25 171 20 171 c 0,14,15
 12 171 12 171 12 181 c 0,16,17
 12 233 12 233 26 233 c 0,18,19
 27 233 27 233 36.5 227 c 128,-1,20
 46 221 46 221 51 221 c 2,21,-1
 108 222 l 1,22,23
 103 250 103 250 92 281 c 1,24,25
 83 281 83 281 64 276.5 c 128,-1,26
 45 272 45 272 34 272 c 0,27,28
 26 272 26 272 26 283 c 0,29,30
 26 335 26 335 40 335 c 0,31,32
 41 335 41 335 50.5 329 c 128,-1,33
 60 323 60 323 66 323 c 2,34,-1
 77 323 l 1,35,36
 64 364 64 364 64 395 c 0,37,38
 64 471 64 471 114.5 529 c 128,-1,39
 165 587 165 587 239 587 c 0,40,41
 330 587 330 587 362 532 c 1,42,43
 362 524 362 524 362 524 c 2,44,45
 362 513 362 513 347 493.5 c 128,-1,46
 332 474 332 474 322 473 c 1,47,-1
 316 478 l 1,48,49
 294 525 294 525 229 525 c 0,50,51
 182 525 182 525 152 484.5 c 128,-1,52
 122 444 122 444 122 396 c 0,53,54
 122 364 122 364 135 323 c 1,55,56
 177 323 177 323 259 329 c 1,57,-1
 258 329 l 1,58,59
 271 333 271 333 297 339 c 1,60,61
 303 336 303 336 303 326 c 0,62,63
 303 313 303 313 299 293 c 0,64,65
 295 267 295 267 288 267 c 0,66,67
 282 267 282 267 271 277 c 128,-1,68
 260 287 260 287 239 287 c 1,69,70
 249 287 249 287 149 284 c 1,71,72
 157 264 157 264 168 223 c 1,73,74
 194 223 194 223 244 228 c 1,75,-1
 243 228 l 2,76,77
 249 228 249 228 262 232.5 c 128,-1,78
 275 237 275 237 282 237 c 0,79,80
 288 237 288 237 288 223 c 0,81,82
 288 211 288 211 285 191 c 0,83,84
 280 166 280 166 274 166 c 256,85,86
 268 166 268 166 256.5 176 c 128,-1,87
 245 186 245 186 224 186 c 0,88,89
 217 186 217 186 172 184 c 1,90,91
 171 159 171 159 162 120 c 0,92,93
 152 73 152 73 150 57 c 1,94,-1
 310 57 l 2,95,96
 332 57 332 57 343 67.5 c 128,-1,97
 354 78 354 78 366 90 c 1,98,-1
 373 79 l 1,0,1
EndSplineSet
EndChar

StartChar: section
Encoding: 167 167 134
Width: 418
Flags: W
LayerCount: 2
Fore
SplineSet
412 155 m 0,0,1
 412 81 412 81 345 37 c 0,2,3
 287 0 287 0 208 0 c 0,4,5
 130 0 130 0 72 37 c 0,6,7
 6 79 6 79 6 152 c 0,8,9
 6 210 6 210 51 245 c 0,10,11
 92 277 92 277 154 277 c 0,12,13
 205 277 205 277 243.5 245.5 c 128,-1,14
 282 214 282 214 282 165 c 0,15,16
 282 144 282 144 262 115 c 128,-1,17
 242 86 242 86 222 86 c 0,18,19
 210 86 210 86 200 99 c 128,-1,20
 190 112 190 112 188 125 c 1,21,-1
 195 132 l 1,22,23
 231 129 231 129 231 170 c 0,24,25
 231 199 231 199 207.5 215.5 c 128,-1,26
 184 232 184 232 152 232 c 0,27,28
 52 232 52 232 52 145 c 0,29,30
 52 94 52 94 111 66 c 0,31,32
 157 44 157 44 215 44 c 0,33,34
 267 44 267 44 309 72 c 0,35,36
 357 104 357 104 357 153 c 0,37,38
 357 209 357 209 278 253 c 1,39,40
 205 291 205 291 131 329 c 1,41,42
 52 379 52 379 52 448 c 0,43,44
 52 520 52 520 130 564 c 0,45,46
 166 584 166 584 234 584 c 0,47,48
 267 584 267 584 305 569 c 0,49,50
 352 551 352 551 352 523 c 0,51,52
 352 474 352 474 333 457 c 1,53,-1
 329 460 l 1,54,-1
 327 466 l 1,55,-1
 325 467 l 1,56,57
 312 498 312 498 280.5 516 c 128,-1,58
 249 534 249 534 213 534 c 0,59,60
 178 534 178 534 144 509 c 0,61,62
 107 483 107 483 107 449 c 0,63,64
 107 396 107 396 186 355 c 1,65,66
 259 319 259 319 333 282 c 1,67,68
 412 231 412 231 412 155 c 0,0,1
EndSplineSet
EndChar

StartChar: bullet
Encoding: 8226 8226 135
Width: 233
Flags: W
LayerCount: 2
Fore
SplineSet
218 252 m 0,0,1
 218 212 218 212 189.5 180.5 c 128,-1,2
 161 149 161 149 121 149 c 0,3,4
 77 149 77 149 46 186 c 128,-1,5
 15 223 15 223 15 267 c 0,6,7
 15 308 15 308 43.5 334 c 128,-1,8
 72 360 72 360 113 360 c 0,9,10
 156 360 156 360 187 328 c 128,-1,11
 218 296 218 296 218 252 c 0,0,1
EndSplineSet
EndChar

StartChar: paragraph
Encoding: 182 182 136
Width: 253
Flags: W
LayerCount: 2
Fore
SplineSet
264 345 m 0,0,1
 264 329 264 329 247.5 310.5 c 128,-1,2
 231 292 231 292 215 289 c 1,3,-1
 213 292 l 1,4,5
 213 330 213 330 208 343 c 0,6,7
 198 365 198 365 164 365 c 0,8,9
 122 365 122 365 93 319 c 0,10,11
 67 278 67 278 67 234 c 0,12,13
 67 159 67 159 116 82 c 0,14,15
 140 44 140 44 207 -32 c 0,16,17
 256 -87 256 -87 256 -109 c 0,18,19
 256 -127 256 -127 244 -153 c 1,20,-1
 242 -155 l 1,21,22
 236 -174 236 -174 223 -185 c 1,23,-1
 222 -184 l 1,24,25
 219 -140 219 -140 166 -71 c 0,26,27
 81 39 81 39 68 60 c 0,28,29
 16 145 16 145 16 231 c 0,30,31
 16 303 16 303 54 356 c 0,32,33
 97 416 97 416 166 416 c 0,34,35
 200 416 200 416 230 398 c 0,36,37
 264 377 264 377 264 345 c 0,0,1
EndSplineSet
EndChar

StartChar: germandbls
Encoding: 223 223 137
Width: 373
Flags: W
LayerCount: 2
Fore
SplineSet
363 120 m 0,0,1
 363 68 363 68 337 29 c 1,2,3
 308 -17 308 -17 258 -17 c 256,4,5
 208 -17 208 -17 170 15 c 128,-1,6
 132 47 132 47 132 96 c 0,7,8
 132 123 132 123 159 123 c 0,9,10
 169 123 169 123 184 117 c 0,11,12
 203 110 203 110 203 102 c 0,13,14
 203 97 203 97 198 87.5 c 128,-1,15
 193 78 193 78 193 72 c 0,16,17
 193 58 193 58 210 46.5 c 128,-1,18
 227 35 227 35 242 35 c 0,19,20
 275 35 275 35 293 58.5 c 128,-1,21
 311 82 311 82 311 115 c 0,22,23
 311 150 311 150 271 180 c 0,24,25
 235 206 235 206 198 232 c 1,26,27
 158 266 158 266 158 309 c 0,28,29
 158 334 158 334 200 384.5 c 128,-1,30
 242 435 242 435 242 459 c 0,31,32
 242 482 242 482 214 499 c 0,33,34
 190 514 190 514 165 514 c 0,35,36
 124 514 124 514 98.5 482 c 128,-1,37
 73 450 73 450 73 408 c 2,38,-1
 72 -121 l 2,39,40
 72 -154 72 -154 51 -214 c 0,41,42
 27 -283 27 -283 2 -283 c 0,43,44
 -5 -283 -5 -283 -24 -258.5 c 128,-1,45
 -43 -234 -43 -234 -43 -227 c 1,46,47
 -43 -227 -43 -227 -42 -221 c 1,48,49
 -5 -189 -5 -189 4 -177 c 0,50,51
 21 -153 21 -153 21 -115 c 2,52,-1
 22 424 l 2,53,54
 22 479 22 479 67 524 c 128,-1,55
 112 569 112 569 167 569 c 0,56,57
 290 569 290 569 290 470 c 0,58,59
 290 427 290 427 251 377.5 c 128,-1,60
 212 328 212 328 212 308 c 0,61,62
 212 294 212 294 252 265 c 0,63,64
 307 224 307 224 324 205 c 0,65,66
 363 164 363 164 363 120 c 0,0,1
EndSplineSet
EndChar

StartChar: registered
Encoding: 174 174 138
Width: 512
Flags: W
LayerCount: 2
Fore
SplineSet
256 11 m 256,0,1
 155 11 155 11 87 92 c 0,2,3
 23 168 23 168 23 271 c 256,4,5
 23 374 23 374 87 450 c 0,6,7
 155 531 155 531 256 531 c 256,8,9
 357 531 357 531 425 450 c 0,10,11
 489 374 489 374 489 271 c 256,12,13
 489 168 489 168 425 92 c 0,14,15
 357 11 357 11 256 11 c 256,0,1
369 93 m 1,16,17
 314 117 314 117 313 124 c 0,18,19
 311 140 311 140 278 241 c 0,20,21
 270 266 270 266 233 266 c 0,22,23
 223 266 223 266 213 262 c 1,24,-1
 212 262 l 1,25,26
 221 279 221 279 221 291 c 0,27,28
 221 294 221 294 219.5 301 c 128,-1,29
 218 308 218 308 218 311 c 1,30,-1
 220 313 l 1,31,32
 224 312 224 312 243 304 c 0,33,34
 259 297 259 297 270 298 c 0,35,36
 341 305 341 305 341 354 c 0,37,38
 341 391 341 391 297 402 c 0,39,40
 272 409 272 409 213 409 c 0,41,42
 196 409 196 409 196 406 c 2,43,-1
 196 159 l 2,44,45
 196 155 196 155 202 145 c 128,-1,46
 208 135 208 135 208 125 c 1,47,48
 204 125 204 125 200 125 c 2,49,-1
 153 125 l 1,50,51
 153 132 153 132 158 143.5 c 128,-1,52
 163 155 163 155 163 159 c 2,53,-1
 163 403 l 2,54,55
 163 409 163 409 157.5 418 c 128,-1,56
 152 427 152 427 153 434 c 1,57,-1
 153 438 l 1,58,-1
 189 438 l 2,59,60
 273 438 273 438 308 428 c 0,61,62
 370 411 370 411 370 357 c 0,63,64
 370 321 370 321 349 302 c 0,65,66
 335 289 335 289 291 271 c 1,67,68
 319 233 319 233 327 212 c 0,69,70
 342 172 342 172 353 149 c 0,71,72
 355 145 355 145 382 105 c 1,73,74
 448 173 448 173 448 273 c 0,75,76
 448 361 448 361 395 426 c 0,77,78
 338 497 338 497 253 497 c 0,79,80
 167 497 167 497 110 426 c 0,81,82
 57 361 57 361 57 273 c 0,83,84
 57 186 57 186 110 120 c 0,85,86
 167 49 167 49 253 49 c 0,87,88
 318 49 318 49 369 93 c 1,16,17
EndSplineSet
EndChar

StartChar: copyright
Encoding: 169 169 139
Width: 512
Flags: W
LayerCount: 2
Fore
SplineSet
256 11 m 256,0,1
 155 11 155 11 87 92 c 0,2,3
 23 168 23 168 23 271 c 256,4,5
 23 374 23 374 87 450 c 0,6,7
 155 531 155 531 256 531 c 256,8,9
 357 531 357 531 425 450 c 0,10,11
 489 374 489 374 489 271 c 256,12,13
 489 168 489 168 425 92 c 0,14,15
 357 11 357 11 256 11 c 256,0,1
253 497 m 0,16,17
 167 497 167 497 110 426 c 0,18,19
 57 361 57 361 57 273 c 0,20,21
 57 186 57 186 110 120 c 0,22,23
 167 49 167 49 253 49 c 0,24,25
 338 49 338 49 395 120 c 0,26,27
 448 186 448 186 448 273 c 0,28,29
 448 361 448 361 395 426 c 0,30,31
 338 497 338 497 253 497 c 0,16,17
242 92 m 0,32,33
 173 92 173 92 140 157 c 0,34,35
 115 208 115 208 115 285 c 0,36,37
 115 347 115 347 154.5 397.5 c 128,-1,38
 194 448 194 448 254 448 c 0,39,40
 302 448 302 448 327 421 c 128,-1,41
 352 394 352 394 351 352 c 0,42,43
 350 319 350 319 331 299 c 128,-1,44
 312 279 312 279 279 279 c 0,45,46
 266 279 266 279 236 294 c 1,47,48
 246 310 246 310 257 328 c 1,49,50
 271 317 271 317 283 317 c 0,51,52
 316 318 316 318 316 357 c 0,53,54
 316 382 316 382 295 397 c 128,-1,55
 274 412 274 412 248 412 c 0,56,57
 200 412 200 412 174 365 c 0,58,59
 153 326 153 326 153 274 c 0,60,61
 153 224 153 224 174 185 c 0,62,63
 199 136 199 136 244 136 c 0,64,65
 280 136 280 136 296 156 c 0,66,67
 306 169 306 169 318 210 c 0,68,69
 319 214 319 214 320 214 c 0,70,71
 327 214 327 214 344.5 196.5 c 128,-1,72
 362 179 362 179 362 172 c 0,73,74
 362 137 362 137 318 113 c 0,75,76
 279 92 279 92 242 92 c 0,32,33
EndSplineSet
EndChar

StartChar: trademark
Encoding: 8482 8482 140
Width: 637
Flags: W
LayerCount: 2
Fore
SplineSet
617 282 m 2,0,1
 617 282 617 282 617 278 c 1,2,3
 605 278 605 278 584 278 c 0,4,5
 560 277 560 277 552 277 c 1,6,-1
 547 280 l 1,7,8
 546 289 546 289 550.5 294 c 128,-1,9
 555 299 555 299 560 304 c 1,10,11
 538 415 538 415 533 430 c 0,12,13
 506 519 506 519 464 519 c 0,14,15
 438 519 438 519 430.5 508.5 c 128,-1,16
 423 498 423 498 423 472 c 2,17,-1
 423 317 l 2,18,19
 423 313 423 313 427 304 c 1,20,21
 436 297 436 297 437 277 c 1,22,23
 429 276 429 276 427 276 c 2,24,-1
 373 276 l 1,25,26
 373 278 373 278 380 303 c 1,27,-1
 382 304 l 1,28,29
 383 310 383 310 385 317 c 1,30,-1
 385 472 l 2,31,32
 385 519 385 519 345 519 c 0,33,34
 307 519 307 519 284 428 c 0,35,36
 283 422 283 422 263 303 c 1,37,38
 268 300 268 300 272 297 c 128,-1,39
 276 294 276 294 276 283 c 2,40,-1
 276 278 l 1,41,42
 267 277 267 277 265 277 c 2,43,-1
 209 277 l 2,44,45
 207 277 207 277 201 278 c 1,46,47
 200 292 200 292 208 305 c 1,48,49
 219 326 219 326 221 329 c 1,50,51
 239 396 239 396 258 462 c 1,52,53
 289 549 289 549 345 549 c 0,54,55
 380 549 380 549 402 528 c 1,56,57
 427 549 427 549 469 549 c 0,58,59
 515 549 515 549 546 492 c 0,60,61
 565 457 565 457 585 380 c 0,62,63
 602 312 602 312 612 302 c 1,64,-1
 612 300 l 1,65,66
 617 293 617 293 617 282 c 2,0,1
226 497 m 1,67,68
 202 514 202 514 146 514 c 0,69,70
 125 514 125 514 125 494 c 2,71,-1
 125 322 l 2,72,73
 125 308 125 308 134.5 300 c 128,-1,74
 144 292 144 292 154 284 c 1,75,76
 116 276 116 276 90 276 c 0,77,78
 69 276 69 276 69 283 c 0,79,80
 69 289 69 289 78 296 c 1,81,82
 96 301 96 301 96 306 c 2,83,-1
 96 495 l 2,84,85
 96 514 96 514 78 514 c 0,86,87
 31 514 31 514 2 496 c 1,88,89
 11 506 11 506 37 548 c 1,90,-1
 197 548 l 1,91,-1
 201 546 l 1,92,93
 208 529 208 529 226 497 c 1,67,68
EndSplineSet
EndChar

StartChar: acute
Encoding: 180 180 141
Width: 318
Flags: W
LayerCount: 2
Fore
SplineSet
246 578 m 1,0,-1
 149 476 l 1,1,-1
 125 490 l 1,2,-1
 194 594 l 1,3,-1
 246 578 l 1,0,-1
EndSplineSet
EndChar

StartChar: dieresis
Encoding: 168 168 142
Width: 298
Flags: W
LayerCount: 2
Fore
SplineSet
253 511 m 0,0,1
 253 495 253 495 240 483.5 c 128,-1,2
 227 472 227 472 212 472 c 0,3,4
 194 472 194 472 181.5 484 c 128,-1,5
 169 496 169 496 169 515 c 0,6,7
 169 549 169 549 216 549 c 0,8,9
 230 549 230 549 241.5 537 c 128,-1,10
 253 525 253 525 253 511 c 0,0,1
127 511 m 0,11,12
 127 495 127 495 114 483.5 c 128,-1,13
 101 472 101 472 86 472 c 0,14,15
 68 472 68 472 55.5 484 c 128,-1,16
 43 496 43 496 43 515 c 0,17,18
 43 549 43 549 90 549 c 0,19,20
 104 549 104 549 115.5 537 c 128,-1,21
 127 525 127 525 127 511 c 0,11,12
EndSplineSet
EndChar

StartChar: AE
Encoding: 198 198 143
Width: 629
Flags: W
LayerCount: 2
Fore
SplineSet
614 92 m 1,0,1
 614 73 614 73 578 -4 c 1,2,-1
 278 -4 l 1,3,-1
 278 -2 l 1,4,-1
 273 -2 l 1,5,6
 277 11 277 11 284 38 c 1,7,-1
 287 40 l 1,8,9
 297 68 297 68 297 123 c 0,10,11
 297 203 297 203 275 203 c 0,12,13
 270 203 270 203 193 180.5 c 128,-1,14
 116 158 116 158 112 156 c 0,15,16
 96 144 96 144 80 62 c 0,17,18
 56 -65 56 -65 13 -168 c 0,19,20
 -2 -203 -2 -203 -10 -221 c 0,21,22
 -30 -262 -30 -262 -37 -265 c 1,23,-1
 -42 -262 l 1,24,25
 -79 -216 -79 -216 -77 -167 c 1,26,-1
 -77 -160 l 1,27,28
 -62 -154 -62 -154 -37 -136 c 1,29,30
 6 -82 6 -82 39 120 c 1,31,32
 59 260 59 260 79 401 c 1,33,34
 88 457 88 457 123 514 c 0,35,36
 166 583 166 583 213 583 c 0,37,38
 231 583 231 583 267 581.5 c 128,-1,39
 303 580 303 580 321 580 c 0,40,41
 344 580 344 580 392 581.5 c 128,-1,42
 440 583 440 583 463 583 c 0,43,44
 515 583 515 583 554 578 c 1,45,46
 563 557 563 557 573 536 c 1,47,48
 584 509 584 509 585 493 c 1,49,-1
 584 491 l 1,50,51
 576 495 576 495 554 515 c 0,52,53
 542 525 542 525 514 525 c 2,54,-1
 363 525 l 2,55,56
 345 525 345 525 345 502 c 2,57,-1
 346 349 l 2,58,59
 346 304 346 304 369 304 c 0,60,61
 384 304 384 304 439.5 333.5 c 128,-1,62
 495 363 495 363 516 363 c 0,63,64
 525 363 525 363 525 306 c 0,65,66
 525 265 525 265 517 260 c 1,67,68
 508 268 508 268 500 275.5 c 128,-1,69
 492 283 492 283 477 283 c 0,70,71
 460 283 460 283 427 269.5 c 128,-1,72
 394 256 394 256 381 244 c 1,73,74
 346 233 346 233 346 200 c 2,75,-1
 346 83 l 2,76,77
 346 49 346 49 368 49 c 2,78,-1
 543 49 l 2,79,80
 562 49 562 49 591 78 c 2,81,-1
 592 79 l 1,82,83
 599 91 599 91 613 97 c 1,84,85
 614 92 614 92 614 92 c 1,0,1
288 410 m 0,86,87
 288 530 288 530 248 530 c 0,88,89
 233 530 233 530 218 528 c 0,90,91
 159 519 159 519 130 408 c 0,92,93
 109 331 109 331 109 245 c 0,94,95
 109 228 109 228 111 214 c 1,96,97
 189 236 189 236 198 238 c 0,98,99
 262 258 262 258 275 270.5 c 128,-1,100
 288 283 288 283 288 410 c 0,86,87
EndSplineSet
EndChar

StartChar: Oslash
Encoding: 216 216 144
Width: 378
Flags: W
LayerCount: 2
Fore
SplineSet
389 590 m 1,0,1
 389 583 389 583 335 493 c 1,2,3
 379 411 379 411 379 290 c 0,4,5
 379 184 379 184 344 105 c 0,6,7
 297 1 297 1 204 1 c 0,8,9
 131 1 131 1 86 64 c 1,10,11
 77 50 77 50 17 -49 c 1,12,13
 11 -17 11 -17 -6 4 c 1,14,-1
 -6 8 l 1,15,16
 15 44 15 44 57 116 c 1,17,18
 23 193 23 193 23 292 c 0,19,20
 23 399 23 399 61 478 c 1,21,22
 109 581 109 581 204 581 c 0,23,24
 262 581 262 581 303 539 c 1,25,26
 335 598 335 598 382 598 c 1,27,28
 382 598 382 598 387 597 c 1,29,30
 388 594 388 594 389 590 c 1,0,1
276 492 m 1,31,32
 247 525 247 525 204 525 c 0,33,34
 129 525 129 525 92 440 c 0,35,36
 65 376 65 376 65 289 c 0,37,38
 65 223 65 223 86 166 c 1,39,-1
 276 492 l 1,31,32
331 297 m 0,40,41
 331 380 331 380 305 442 c 1,42,-1
 113 111 l 1,43,44
 148 61 148 61 204 61 c 0,45,46
 275 61 275 61 308 149 c 0,47,48
 331 211 331 211 331 297 c 0,40,41
EndSplineSet
EndChar

StartChar: plusminus
Encoding: 177 177 145
Width: 356
Flags: W
LayerCount: 2
Fore
SplineSet
302 48 m 2,0,-1
 267 53 l 2,1,2
 253 55 253 55 238 55 c 0,3,4
 207 55 207 55 158 46 c 0,5,6
 120 39 120 39 82 32 c 0,7,8
 77 31 77 31 66.5 25 c 128,-1,9
 56 19 56 19 51 20 c 0,10,11
 43 21 43 21 43 55 c 2,12,-1
 43 72 l 2,13,14
 43 77 43 77 45 83.5 c 128,-1,15
 47 90 47 90 52 89 c 1,16,17
 59 89 59 89 77 87 c 0,18,19
 93 85 93 85 170 94 c 0,20,21
 243 103 243 103 265 109 c 1,22,-1
 264 109 l 1,23,24
 285 113 285 113 304 119 c 1,25,26
 313 117 313 117 313 80 c 0,27,28
 313 47 313 47 302 48 c 2,0,-1
291 240 m 0,29,30
 285 240 285 240 276.5 249 c 128,-1,31
 268 258 268 258 258 258 c 256,32,33
 248 258 248 258 195 243 c 1,34,35
 195 228 195 228 195 201 c 128,-1,36
 195 174 195 174 195 160 c 0,37,38
 195 121 195 121 193 115 c 1,39,40
 188 116 188 116 167 124 c 128,-1,41
 146 132 146 132 143 134 c 1,42,-1
 144 230 l 1,43,44
 107 221 107 221 97 218 c 0,45,46
 66 209 66 209 56.5 201.5 c 128,-1,47
 47 194 47 194 42 194 c 0,48,49
 34 194 34 194 34 237 c 0,50,51
 34 275 34 275 41 275 c 0,52,53
 42 275 42 275 52 270 c 128,-1,54
 62 265 62 265 68 265 c 0,55,56
 84 265 84 265 106 271 c 0,57,58
 125 276 125 276 144 281 c 1,59,60
 144 291 144 291 143 309.5 c 128,-1,61
 142 328 142 328 142 338 c 0,62,63
 142 362 142 362 154 386 c 0,64,65
 167 414 167 414 188 419 c 1,66,67
 197 415 197 415 197 366 c 0,68,69
 197 354 197 354 196 330 c 128,-1,70
 195 306 195 306 195 294 c 1,71,72
 216 299 216 299 256 313 c 1,73,-1
 255 313 l 1,74,75
 267 320 267 320 292 333 c 1,76,77
 302 332 302 332 302 284 c 0,78,79
 302 240 302 240 291 240 c 0,29,30
EndSplineSet
EndChar

StartChar: yen
Encoding: 165 165 146
Width: 437
Flags: W
LayerCount: 2
Fore
SplineSet
331 214 m 2,0,-1
 297 219 l 2,1,2
 270 223 270 223 235 219 c 1,3,4
 232 202 232 202 232 186 c 0,5,6
 232 61 232 61 241 43 c 0,7,8
 254 18 254 18 254 1 c 1,9,10
 248 0 248 0 167 0 c 1,11,12
 167 12 167 12 175.5 28.5 c 128,-1,13
 184 45 184 45 184 52 c 2,14,-1
 180 204 l 1,15,-1
 177 210 l 1,16,17
 155 205 155 205 111 198 c 0,18,19
 107 197 107 197 96 191 c 128,-1,20
 85 185 85 185 81 186 c 0,21,22
 73 187 73 187 72 221 c 1,23,-1
 72 238 l 2,24,25
 72 243 72 243 74.5 249 c 128,-1,26
 77 255 77 255 81 255 c 0,27,28
 88 255 88 255 107 253 c 0,29,30
 117 251 117 251 156 255 c 1,31,-1
 32 523 l 2,32,33
 16 558 16 558 16 585 c 1,34,35
 25 586 25 586 27 586 c 2,36,-1
 90 586 l 2,37,38
 97 586 97 586 103 584 c 1,39,40
 103 557 103 557 84 539 c 1,41,-1
 82 531 l 1,42,43
 130 418 130 418 139 396 c 0,44,45
 184 295 184 295 202 276 c 1,46,47
 209 283 209 283 217 314 c 0,48,49
 233 379 233 379 298.5 491 c 128,-1,50
 364 603 364 603 396 617 c 1,51,52
 414 607 414 607 432 597 c 1,53,54
 456 581 456 581 460 571 c 1,55,56
 455 571 455 571 444 571 c 1,57,58
 390 566 390 566 324 443 c 1,59,60
 283 364 283 364 250 268 c 1,61,-1
 249 266 l 1,62,63
 283 271 283 271 294 274 c 1,64,-1
 293 274 l 1,65,66
 314 278 314 278 333 285 c 1,67,68
 343 283 343 283 343 246 c 0,69,70
 343 212 343 212 331 214 c 2,0,-1
EndSplineSet
EndChar

StartChar: ordmasculine
Encoding: 186 186 148
Width: 378
Flags: W
LayerCount: 2
Fore
SplineSet
384 400 m 0,0,1
 384 335 384 335 348 290 c 0,2,3
 309 241 309 241 246 241 c 0,4,5
 197 241 197 241 162.5 277 c 128,-1,6
 128 313 128 313 128 362 c 2,7,-1
 128 389 l 1,8,9
 150 427 150 427 177 454 c 1,10,11
 195 451 195 451 205 433 c 1,12,-1
 208 431 l 1,13,-1
 228 398 l 1,14,-1
 224 392 l 1,15,-1
 223 393 l 1,16,17
 175 392 175 392 175 362 c 0,18,19
 175 333 175 333 196 310.5 c 128,-1,20
 217 288 217 288 246 288 c 0,21,22
 287 288 287 288 313 324 c 0,23,24
 337 357 337 357 337 400 c 0,25,26
 337 454 337 454 302 492.5 c 128,-1,27
 267 531 267 531 214 531 c 0,28,29
 155 531 155 531 108 460 c 1,30,31
 67 396 67 396 67 333 c 0,32,33
 67 256 67 256 121 194 c 0,34,35
 144 167 144 167 235 95 c 0,36,37
 310 36 310 36 338 -13 c 1,38,39
 336 -30 336 -30 324 -49 c 128,-1,40
 312 -68 312 -68 298 -72 c 1,41,-1
 294 -64 l 1,42,43
 292 -40 292 -40 219 19 c 0,44,45
 126 95 126 95 87 144 c 0,46,47
 16 233 16 233 16 333 c 0,48,49
 16 420 16 420 71 498 c 0,50,51
 131 584 131 584 214 584 c 0,52,53
 289 584 289 584 338 529 c 0,54,55
 384 476 384 476 384 400 c 0,0,1
EndSplineSet
EndChar

StartChar: ae
Encoding: 230 230 149
Width: 544
Flags: W
LayerCount: 2
Fore
SplineSet
524 120 m 1,0,1
 523 78 523 78 467 36 c 0,2,3
 415 -3 415 -3 371 -3 c 0,4,5
 319 -3 319 -3 278 29 c 1,6,-1
 288 7 l 1,7,-1
 279 0 l 1,8,-1
 144 0 l 2,9,10
 93 0 93 0 57 25 c 0,11,12
 16 53 16 53 16 102 c 0,13,14
 16 157 16 157 68 197 c 1,15,16
 116 225 116 225 166.5 255 c 128,-1,17
 217 285 217 285 217 319 c 0,18,19
 217 333 217 333 202.5 347 c 128,-1,20
 188 361 188 361 174 361 c 2,21,-1
 98 361 l 2,22,23
 83 361 83 361 62 328 c 1,24,25
 54 357 54 357 54 398 c 0,26,27
 54 416 54 416 81 416 c 2,28,-1
 207 416 l 2,29,30
 253 416 253 416 262 360 c 1,31,32
 301 413 301 413 375 413 c 0,33,34
 425 413 425 413 472 363.5 c 128,-1,35
 519 314 519 314 519 264 c 1,36,37
 442 214 442 214 290 112 c 1,38,39
 294 88 294 88 321 75 c 0,40,41
 344 63 344 63 371 63 c 0,42,43
 426 63 426 63 445 92 c 1,44,45
 460 130 460 130 475 168 c 1,46,-1
 479 170 l 1,47,48
 504 160 504 160 524 120 c 1,0,1
458 285 m 1,49,50
 456 318 456 318 423 341.5 c 128,-1,51
 390 365 390 365 355 365 c 0,52,53
 310 365 310 365 284 307 c 0,54,55
 264 262 264 262 264 209 c 0,56,57
 264 165 264 165 277 163 c 1,58,59
 337 202 337 202 456 281 c 1,60,-1
 458 285 l 1,49,50
217 58 m 1,61,-1
 217 213 l 1,62,-1
 215 216 l 1,63,-1
 210 216 l 2,64,65
 169 216 169 216 119 180 c 0,66,67
 65 142 65 142 65 103 c 0,68,69
 65 98 65 98 65 89 c 0,70,71
 66 80 66 80 66 75 c 1,72,73
 130 47 130 47 167 47 c 0,74,75
 202 47 202 47 216 56 c 1,76,-1
 217 58 l 1,61,-1
EndSplineSet
EndChar

StartChar: oslash
Encoding: 248 248 150
Width: 318
Flags: W
LayerCount: 2
Fore
SplineSet
313 454 m 2,0,1
 311 450 311 450 310 448 c 2,2,-1
 313 454 l 2,0,1
314 459 m 1,3,4
 314 453 314 453 263 369 c 1,5,6
 306 308 306 308 306 207 c 0,7,8
 306 130 306 130 274 72 c 0,9,10
 235 1 235 1 165 1 c 0,11,12
 110 1 110 1 73 43 c 1,13,14
 50 1 50 1 16 -50 c 1,15,16
 12 -22 12 -22 -6 4 c 1,17,-1
 -6 8 l 1,18,19
 10 36 10 36 43 92 c 1,20,21
 19 144 19 144 19 215 c 0,22,23
 19 292 19 292 53 351 c 0,24,25
 93 421 93 421 165 421 c 0,26,27
 199 421 199 421 226 405 c 1,28,29
 234 422 234 422 255 454 c 1,30,-1
 245 437 l 2,31,32
 245 438 245 438 245 438 c 1,33,-1
 254 445 l 1,34,35
 280 468 280 468 307 468 c 1,36,37
 307 468 307 468 312 466 c 1,38,39
 313 464 313 464 314 459 c 1,3,4
198 357 m 1,40,41
 183 365 183 365 165 365 c 0,42,43
 116 365 116 365 91 310 c 0,44,45
 72 268 72 268 72 212 c 0,46,47
 72 181 72 181 79 154 c 1,48,-1
 198 357 l 1,40,41
255 214 m 0,49,50
 255 275 255 275 233 318 c 1,51,52
 190 244 190 244 104 95 c 1,53,54
 127 61 127 61 165 61 c 0,55,56
 213 61 213 61 237 117 c 0,57,58
 255 159 255 159 255 214 c 0,49,50
EndSplineSet
EndChar

StartChar: questiondown
Encoding: 191 191 151
Width: 297
Flags: W
LayerCount: 2
Fore
SplineSet
28 45 m 0,0,1
 28 124 28 124 59 157 c 1,2,-1
 59 158 l 1,3,4
 98 204 98 204 137 251 c 0,5,6
 186 309 186 309 186 356 c 0,7,8
 186 363 186 363 183.5 376.5 c 128,-1,9
 181 390 181 390 181 397 c 0,10,11
 181 410 181 410 210 410 c 0,12,13
 244 410 244 410 244 341 c 0,14,15
 244 332 244 332 233 297 c 0,16,17
 221 258 221 258 179 210 c 0,18,19
 113 135 113 135 109 130 c 0,20,21
 75 82 75 82 75 36 c 0,22,23
 75 -18 75 -18 155 -18 c 0,24,25
 192 -18 192 -18 214 7 c 0,26,27
 228 23 228 23 244 65 c 1,28,-1
 245 66 l 1,29,30
 256 63 256 63 270 42 c 128,-1,31
 284 21 284 21 284 9 c 0,32,33
 284 -14 284 -14 231 -44 c 0,34,35
 182 -71 182 -71 155 -71 c 0,36,37
 28 -71 28 -71 28 45 c 0,0,1
165 493 m 0,38,39
 165 524 165 524 203 528 c 1,40,-1
 203 529 l 1,41,-1
 204 528 l 1,42,43
 220 528 220 528 233.5 516 c 128,-1,44
 247 504 247 504 247 488 c 0,45,46
 247 454 247 454 207 454 c 2,47,-1
 198 454 l 2,48,49
 184 454 184 454 174.5 466.5 c 128,-1,50
 165 479 165 479 165 493 c 0,38,39
EndSplineSet
EndChar

StartChar: exclamdown
Encoding: 161 161 152
Width: 127
Flags: W
LayerCount: 2
Fore
SplineSet
32 -55 m 0,0,1
 32 8 32 8 36.5 133 c 128,-1,2
 41 258 41 258 41 320 c 128,-1,3
 41 382 41 382 47 415 c 1,4,-1
 60 395 l 1,5,6
 84 381 84 381 88 371 c 0,7,8
 89 367 89 367 89 336 c 0,9,10
 89 278 89 278 94.5 162 c 128,-1,11
 100 46 100 46 100 -12 c 0,12,13
 100 -26 100 -26 78 -48.5 c 128,-1,14
 56 -71 56 -71 42 -71 c 0,15,16
 32 -71 32 -71 32 -55 c 0,0,1
26 492 m 0,17,18
 26 523 26 523 64 527 c 1,19,-1
 64 528 l 1,20,-1
 65 527 l 1,21,22
 82 527 82 527 95.5 515 c 128,-1,23
 109 503 109 503 109 486 c 0,24,25
 109 471 109 471 96.5 462 c 128,-1,26
 84 453 84 453 68 453 c 2,27,-1
 59 453 l 2,28,29
 45 453 45 453 35.5 465.5 c 128,-1,30
 26 478 26 478 26 492 c 0,17,18
EndSplineSet
EndChar

StartChar: florin
Encoding: 402 402 154
Width: 291
Flags: W
LayerCount: 2
Fore
SplineSet
359 550 m 1,0,1
 339 554 339 554 327 554 c 0,2,3
 293 554 293 554 233 508.5 c 128,-1,4
 173 463 173 463 173 429 c 0,5,6
 173 420 173 420 189 420 c 0,7,8
 201 420 201 420 225 422 c 128,-1,9
 249 424 249 424 261 424 c 0,10,11
 291 424 291 424 291 408 c 0,12,13
 291 403 291 403 275 339 c 1,14,15
 266 351 266 351 258 353 c 0,16,17
 256 353 256 353 235 353 c 0,18,19
 159 353 159 353 154 333 c 2,20,-1
 67 -42 l 2,21,22
 59 -76 59 -76 21 -136 c 1,23,24
 -22 -201 -22 -201 -49 -207 c 1,25,-1
 -50 -208 l 1,26,27
 -61 -196 -61 -196 -71.5 -182.5 c 128,-1,28
 -82 -169 -82 -169 -82 -156 c 1,29,-1
 -79 -148 l 1,30,31
 -5 -106 -5 -106 29 13 c 1,32,33
 50 114 50 114 70 214 c 1,34,35
 79 244 79 244 87 274 c 0,36,37
 96 309 96 309 96 334 c 0,38,39
 96 343 96 343 86 343 c 0,40,41
 80 343 80 343 25 340 c 1,42,-1
 25 341 l 1,43,44
 24 368 24 368 42 411 c 1,45,-1
 58 410 l 1,46,47
 112 410 112 410 119 425 c 1,48,49
 121 434 121 434 125 451 c 0,50,51
 138 498 138 498 209.5 565.5 c 128,-1,52
 281 633 281 633 327 633 c 0,53,54
 335 633 335 633 347 597.5 c 128,-1,55
 359 562 359 562 359 550 c 1,0,1
EndSplineSet
EndChar

StartChar: guillemotleft
Encoding: 171 171 155
Width: 339
Flags: W
LayerCount: 2
Fore
SplineSet
307 44 m 1,0,1
 308 30 308 30 281 30 c 0,2,3
 264 30 264 30 254.5 40 c 128,-1,4
 245 50 245 50 203 124 c 128,-1,5
 161 198 161 198 161 207 c 0,6,7
 161 225 161 225 198 291 c 0,8,9
 230 350 230 350 248 373 c 0,10,11
 258 386 258 386 276 386 c 0,12,13
 299 386 299 386 302 375 c 1,14,15
 287 340 287 340 257 292 c 0,16,17
 232 251 232 251 207 211 c 1,18,19
 234 170 234 170 260 129 c 0,20,21
 292 80 292 80 307 44 c 1,0,1
175 44 m 1,22,23
 176 30 176 30 149 30 c 0,24,25
 132 30 132 30 122.5 40 c 128,-1,26
 113 50 113 50 71 124 c 128,-1,27
 29 198 29 198 29 207 c 0,28,29
 29 225 29 225 66 291 c 0,30,31
 98 350 98 350 116 373 c 0,32,33
 126 386 126 386 144 386 c 0,34,35
 167 386 167 386 170 375 c 1,36,37
 155 340 155 340 125 292 c 0,38,39
 100 251 100 251 75 211 c 1,40,41
 102 170 102 170 128 129 c 0,42,43
 160 80 160 80 175 44 c 1,22,23
EndSplineSet
EndChar

StartChar: guillemotright
Encoding: 187 187 156
Width: 346
Flags: W
LayerCount: 2
Fore
SplineSet
326 207 m 0,0,1
 326 199 326 199 284.5 125 c 128,-1,2
 243 51 243 51 233.5 40.5 c 128,-1,3
 224 30 224 30 206 30 c 0,4,5
 180 30 180 30 180 44 c 1,6,7
 195 80 195 80 227 129 c 0,8,9
 253 170 253 170 280 211 c 1,10,-1
 186 375 l 1,11,12
 193 386 193 386 211 386 c 0,13,14
 231 386 231 386 239 373 c 2,15,-1
 308 255 l 2,16,17
 326 224 326 224 326 207 c 0,0,1
194 207 m 0,18,19
 194 199 194 199 152.5 125 c 128,-1,20
 111 51 111 51 101.5 40.5 c 128,-1,21
 92 30 92 30 74 30 c 0,22,23
 48 30 48 30 48 44 c 1,24,25
 63 80 63 80 95 129 c 0,26,27
 121 170 121 170 148 211 c 1,28,-1
 54 375 l 1,29,30
 61 386 61 386 79 386 c 0,31,32
 99 386 99 386 107 373 c 2,33,-1
 176 255 l 2,34,35
 194 224 194 224 194 207 c 0,18,19
EndSplineSet
EndChar

StartChar: ellipsis
Encoding: 8230 8230 157
Width: 453
Flags: W
LayerCount: 2
Fore
SplineSet
408 18 m 0,0,1
 408 -11 408 -11 367 -21 c 1,2,3
 324 -14 324 -14 324 22 c 0,4,5
 324 56 324 56 371 56 c 0,6,7
 389 56 389 56 399 40 c 1,8,-1
 400 40 l 1,9,10
 408 29 408 29 408 18 c 0,0,1
254 17 m 0,11,12
 254 -12 254 -12 213 -22 c 1,13,14
 170 -15 170 -15 170 21 c 0,15,16
 170 55 170 55 217 55 c 0,17,18
 234 55 234 55 245 39 c 1,19,-1
 246 39 l 1,20,21
 254 28 254 28 254 17 c 0,11,12
109 18 m 0,22,23
 109 -11 109 -11 68 -21 c 1,24,25
 25 -14 25 -14 25 22 c 0,26,27
 25 56 25 56 72 56 c 0,28,29
 90 56 90 56 100 40 c 1,30,-1
 101 40 l 1,31,32
 109 29 109 29 109 18 c 0,22,23
EndSplineSet
EndChar

StartChar: OE
Encoding: 338 338 162
Width: 661
Flags: W
LayerCount: 2
Fore
SplineSet
651 95 m 1,0,1
 651 75 651 75 615 -1 c 1,2,-1
 315 -1 l 1,3,4
 315 8 315 8 324 27 c 128,-1,5
 333 46 333 46 332 63 c 1,6,-1
 332 83 l 1,7,8
 286 1 286 1 204 1 c 0,9,10
 110 1 110 1 61 105 c 0,11,12
 23 185 23 185 23 292 c 256,13,14
 23 399 23 399 61 478 c 1,15,16
 109 581 109 581 204 581 c 0,17,18
 285 581 285 581 332 499 c 1,19,-1
 332 520 l 2,20,21
 332 533 332 533 324 553 c 128,-1,22
 316 573 316 573 315 582 c 1,23,24
 514 586 514 586 496 586 c 1,25,26
 550 586 550 586 591 581 c 1,27,28
 601 560 601 560 610 539 c 0,29,30
 621 514 621 514 622 496 c 1,31,-1
 621 494 l 1,32,33
 614 498 614 498 592 517 c 0,34,35
 580 528 580 528 551 528 c 2,36,-1
 400 528 l 2,37,38
 383 528 383 528 383 505 c 2,39,-1
 383 352 l 2,40,41
 383 307 383 307 406 307 c 0,42,43
 422 307 422 307 477 336.5 c 128,-1,44
 532 366 532 366 553 366 c 0,45,46
 563 366 563 366 563 309 c 0,47,48
 563 268 563 268 554 263 c 1,49,50
 545 271 545 271 537 278.5 c 128,-1,51
 529 286 529 286 514 286 c 0,52,53
 484 286 484 286 436 259 c 0,54,55
 383 230 383 230 383 203 c 2,56,-1
 383 86 l 2,57,58
 383 52 383 52 405 52 c 2,59,-1
 580 52 l 2,60,61
 598 52 598 52 622 75 c 0,62,63
 630 84 630 84 650 100 c 1,64,65
 651 95 651 95 651 95 c 1,0,1
331 297 m 0,66,67
 331 378 331 378 306 440 c 0,68,69
 273 525 273 525 204 525 c 0,70,71
 129 525 129 525 92 440 c 0,72,73
 65 376 65 376 65 289 c 0,74,75
 65 208 65 208 95 144 c 0,76,77
 133 61 133 61 204 61 c 256,78,79
 275 61 275 61 308 149 c 0,80,81
 331 211 331 211 331 297 c 0,66,67
EndSplineSet
EndChar

StartChar: oe
Encoding: 339 339 163
Width: 574
Flags: W
LayerCount: 2
Fore
SplineSet
561 131 m 1,0,1
 560 88 560 88 506 48 c 128,-1,2
 452 8 452 8 408 8 c 0,3,4
 369 8 369 8 333 27.5 c 128,-1,5
 297 47 297 47 279 81 c 1,6,7
 240 1 240 1 165 1 c 0,8,9
 91 1 91 1 51 75 c 0,10,11
 19 134 19 134 19 215 c 0,12,13
 19 292 19 292 53 351 c 0,14,15
 93 421 93 421 165 421 c 0,16,17
 243 421 243 421 280 339 c 1,18,19
 320 424 320 424 412 424 c 0,20,21
 463 424 463 424 508.5 375.5 c 128,-1,22
 554 327 554 327 556 275 c 1,23,24
 480 224 480 224 327 123 c 1,25,26
 331 99 331 99 359 85 c 0,27,28
 381 74 381 74 408 74 c 0,29,30
 463 74 463 74 482 103 c 1,31,32
 497 141 497 141 512 179 c 1,33,-1
 516 181 l 1,34,35
 542 168 542 168 561 131 c 1,0,1
495 296 m 1,36,37
 494 328 494 328 459 353 c 0,38,39
 427 375 427 375 393 375 c 0,40,41
 350 375 350 375 322 329 c 0,42,43
 297 289 297 289 297 244 c 0,44,45
 297 232 297 232 305 182 c 0,46,47
 306 175 306 175 314 174 c 1,48,49
 374 212 374 212 493 292 c 1,50,-1
 495 296 l 1,36,37
255 214 m 0,51,52
 255 270 255 270 237 311 c 0,53,54
 213 365 213 365 165 365 c 0,55,56
 116 365 116 365 91 310 c 0,57,58
 72 268 72 268 72 212 c 0,59,60
 72 158 72 158 92 115 c 0,61,62
 117 61 117 61 165 61 c 256,63,64
 213 61 213 61 237 117 c 0,65,66
 255 159 255 159 255 214 c 0,51,52
EndSplineSet
EndChar

StartChar: endash
Encoding: 8211 8211 164
Width: 408
Flags: W
LayerCount: 2
Fore
SplineSet
383 306 m 0,0,1
 383 291 383 291 380 271 c 0,2,3
 375 245 375 245 368 245 c 256,4,5
 361 245 361 245 351 248.5 c 128,-1,6
 341 252 341 252 323 252 c 0,7,8
 288 252 288 252 194 242.5 c 128,-1,9
 100 233 100 233 65 233 c 0,10,11
 58 233 58 233 48 227.5 c 128,-1,12
 38 222 38 222 33 222 c 0,13,14
 26 222 26 222 26 234 c 0,15,16
 26 248 26 248 30 268 c 0,17,18
 34 294 34 294 41 294 c 0,19,20
 43 294 43 294 52.5 291 c 128,-1,21
 62 288 62 288 68 288 c 0,22,23
 261 288 261 288 328 304 c 1,24,25
 344 309 344 309 378 320 c 1,26,27
 383 316 383 316 383 306 c 0,0,1
EndSplineSet
EndChar

StartChar: emdash
Encoding: 8212 8212 165
Width: 501
Flags: W
LayerCount: 2
Fore
SplineSet
483 316 m 0,0,1
 483 301 483 301 480 281 c 0,2,3
 475 255 475 255 468 255 c 256,4,5
 461 255 461 255 451 258.5 c 128,-1,6
 441 262 441 262 423 262 c 0,7,8
 388 262 388 262 244 247.5 c 128,-1,9
 100 233 100 233 65 233 c 0,10,11
 58 233 58 233 48 227.5 c 128,-1,12
 38 222 38 222 33 222 c 0,13,14
 26 222 26 222 26 234 c 0,15,16
 26 248 26 248 30 268 c 0,17,18
 34 294 34 294 41 294 c 0,19,20
 43 294 43 294 52.5 291 c 128,-1,21
 62 288 62 288 68 288 c 0,22,23
 141 288 141 288 249 294 c 0,24,25
 380 302 380 302 428 314 c 0,26,27
 444 319 444 319 478 330 c 1,28,29
 483 326 483 326 483 316 c 0,0,1
EndSplineSet
EndChar

StartChar: quotedblleft
Encoding: 8220 8220 166
Width: 269
Flags: W
LayerCount: 2
Fore
SplineSet
241 511 m 0,0,1
 241 476 241 476 201 476 c 0,2,3
 182 476 182 476 169 491.5 c 128,-1,4
 156 507 156 507 156 526 c 0,5,6
 156 549 156 549 175 581.5 c 128,-1,7
 194 614 194 614 215 622 c 1,8,-1
 219 613 l 1,9,10
 219 600 219 600 209 582 c 1,11,12
 195 560 195 560 192 551 c 1,13,14
 241 551 241 551 241 511 c 0,0,1
109 511 m 0,15,16
 109 476 109 476 69 476 c 0,17,18
 50 476 50 476 37.5 491 c 128,-1,19
 25 506 25 506 25 526 c 0,20,21
 25 550 25 550 43.5 580.5 c 128,-1,22
 62 611 62 611 83 622 c 1,23,24
 88 620 88 620 88 612 c 0,25,26
 88 598 88 598 76 580 c 128,-1,27
 64 562 64 562 61 551 c 1,28,29
 109 551 109 551 109 511 c 0,15,16
EndSplineSet
EndChar

StartChar: quotedblright
Encoding: 8221 8221 167
Width: 280
Flags: W
LayerCount: 2
Fore
SplineSet
247 584 m 0,0,1
 247 565 247 565 227 528 c 0,2,3
 205 487 205 487 188 487 c 0,4,5
 184 487 184 487 184 497 c 256,6,7
 184 507 184 507 196 522 c 128,-1,8
 208 537 208 537 208 551 c 0,9,10
 208 552 208 552 185 563 c 128,-1,11
 162 574 162 574 162 601 c 0,12,13
 162 615 162 615 175 624 c 128,-1,14
 188 633 188 633 202 633 c 2,15,-1
 211 633 l 2,16,17
 224 633 224 633 235.5 615.5 c 128,-1,18
 247 598 247 598 247 584 c 0,0,1
111 583 m 2,19,20
 111 564 111 564 91 527 c 0,21,22
 69 487 69 487 53 487 c 0,23,24
 48 487 48 487 48 499 c 0,25,26
 48 508 48 508 60 522.5 c 128,-1,27
 72 537 72 537 72 551 c 0,28,29
 72 553 72 553 46.5 565 c 128,-1,30
 21 577 21 577 26 602 c 0,31,32
 32 633 32 633 67 633 c 2,33,-1
 76 633 l 2,34,35
 90 633 90 633 99 617 c 0,36,37
 100 616 100 616 111 590 c 1,38,-1
 111 583 l 2,19,20
EndSplineSet
EndChar

StartChar: quoteleft
Encoding: 8216 8216 168
Width: 127
Flags: W
LayerCount: 2
Fore
SplineSet
109 541 m 0,0,1
 109 506 109 506 69 506 c 0,2,3
 50 506 50 506 37.5 521 c 128,-1,4
 25 536 25 536 25 556 c 0,5,6
 25 580 25 580 43.5 610.5 c 128,-1,7
 62 641 62 641 83 652 c 1,8,9
 88 650 88 650 88 642 c 0,10,11
 88 632 88 632 79.5 623 c 128,-1,12
 71 614 71 614 63 606 c 1,13,-1
 63 605 l 1,14,-1
 59 599 l 1,15,-1
 57 589 l 1,16,-1
 61 581 l 1,17,18
 109 581 109 581 109 541 c 0,0,1
EndSplineSet
EndChar

StartChar: quoteright
Encoding: 8217 8217 169
Width: 127
Flags: W
LayerCount: 2
Fore
SplineSet
111 583 m 2,0,1
 111 564 111 564 91 527 c 0,2,3
 69 487 69 487 53 487 c 0,4,5
 48 487 48 487 48 499 c 0,6,7
 48 507 48 507 69 528 c 1,8,-1
 69 529 l 1,9,10
 78 539 78 539 78 551 c 0,11,12
 78 561 78 561 52 558 c 1,13,14
 26 584 26 584 26 602 c 1,15,-1
 28 607 l 1,16,-1
 28 609 l 1,17,18
 37 633 37 633 67 633 c 2,19,-1
 76 633 l 2,20,21
 90 633 90 633 99 617 c 0,22,23
 100 616 100 616 111 590 c 1,24,-1
 111 583 l 2,0,1
EndSplineSet
EndChar

StartChar: divide
Encoding: 247 247 170
Width: 307
Flags: W
LayerCount: 2
Fore
SplineSet
180 296 m 0,0,1
 180 260 180 260 140 260 c 0,2,3
 123 260 123 260 110 272.5 c 128,-1,4
 97 285 97 285 97 302 c 0,5,6
 97 317 97 317 109.5 326 c 128,-1,7
 122 335 122 335 138 335 c 2,8,-1
 147 335 l 2,9,10
 160 335 160 335 170 322.5 c 128,-1,11
 180 310 180 310 180 296 c 0,0,1
293 206 m 0,12,13
 293 193 293 193 284 160 c 0,14,15
 274 122 274 122 267 122 c 256,16,17
 260 122 260 122 252 134.5 c 128,-1,18
 244 147 244 147 226 147 c 0,19,20
 195 147 195 147 133.5 137.5 c 128,-1,21
 72 128 72 128 41 128 c 0,22,23
 34 128 34 128 23.5 122 c 128,-1,24
 13 116 13 116 7 116 c 256,25,26
 1 116 1 116 1 126 c 0,27,28
 1 137 1 137 9 167.5 c 128,-1,29
 17 198 17 198 24 198 c 0,30,31
 26 198 26 198 34.5 191 c 128,-1,32
 43 184 43 184 49 184 c 0,33,34
 174 184 174 184 248 202 c 1,35,-1
 247 202 l 1,36,37
 260 207 260 207 288 216 c 1,38,39
 293 214 293 214 293 206 c 0,12,13
185 17 m 0,40,41
 185 -15 185 -15 147 -18 c 1,42,-1
 147 -19 l 1,43,-1
 146 -18 l 1,44,45
 129 -18 129 -18 115.5 -6 c 128,-1,46
 102 6 102 6 102 23 c 0,47,48
 102 38 102 38 114.5 47 c 128,-1,49
 127 56 127 56 143 56 c 2,50,-1
 152 56 l 2,51,52
 166 56 166 56 175.5 43.5 c 128,-1,53
 185 31 185 31 185 17 c 0,40,41
EndSplineSet
EndChar

StartChar: fraction
Encoding: 8260 8260 173
Width: 394
Flags: W
LayerCount: 2
Fore
SplineSet
389 590 m 1,0,1
 389 581 389 581 218 290 c 0,2,3
 75 46 75 46 17 -49 c 1,4,5
 13 -18 13 -18 -6 4 c 1,6,-1
 -6 8 l 1,7,8
 24 65 24 65 163 306 c 0,9,10
 309 559 309 559 320 568 c 0,11,12
 356 598 356 598 382 598 c 1,13,14
 382 598 382 598 387 597 c 1,15,16
 388 594 388 594 389 590 c 1,0,1
EndSplineSet
EndChar

StartChar: currency
Encoding: 164 164 174
Width: 327
Flags: W
LayerCount: 2
Fore
SplineSet
216 282 m 0,0,1
 216 306 216 306 197.5 322 c 128,-1,2
 179 338 179 338 155 338 c 0,3,4
 133 338 133 338 115.5 324.5 c 128,-1,5
 98 311 98 311 98 290 c 0,6,7
 98 266 98 266 117 247.5 c 128,-1,8
 136 229 136 229 160 229 c 0,9,10
 182 229 182 229 199 244.5 c 128,-1,11
 216 260 216 260 216 282 c 0,0,1
107 195 m 1,12,-1
 37 122 l 1,13,-1
 13 136 l 1,14,-1
 82 222 l 1,15,16
 59 255 59 255 59 293 c 0,17,18
 59 320 59 320 74 343 c 1,19,-1
 11 411 l 1,20,-1
 52 436 l 1,21,-1
 98 367 l 1,22,23
 124 386 124 386 157 386 c 0,24,25
 189 386 189 386 216 367 c 1,26,-1
 278 445 l 1,27,-1
 311 422 l 1,28,-1
 238 346 l 1,29,30
 262 315 262 315 262 277 c 0,31,32
 262 244 262 244 242 216 c 1,33,-1
 290 143 l 1,34,-1
 266 129 l 1,35,-1
 212 188 l 1,36,37
 190 174 190 174 166 174 c 0,38,39
 134 174 134 174 107 195 c 1,12,-1
EndSplineSet
EndChar

StartChar: guilsinglleft
Encoding: 8249 8249 175
Width: 231
Flags: W
LayerCount: 2
Fore
SplineSet
182 44 m 1,0,1
 183 30 183 30 156 30 c 0,2,3
 139 30 139 30 129 40 c 128,-1,4
 119 50 119 50 77.5 124 c 128,-1,5
 36 198 36 198 36 207 c 0,6,7
 36 225 36 225 72 291 c 0,8,9
 105 350 105 350 123 373 c 0,10,11
 133 386 133 386 151 386 c 0,12,13
 174 386 174 386 177 375 c 1,14,15
 162 340 162 340 132 292 c 0,16,17
 107 251 107 251 82 211 c 1,18,19
 109 170 109 170 135 129 c 0,20,21
 167 80 167 80 182 44 c 1,0,1
EndSplineSet
EndChar

StartChar: guilsinglright
Encoding: 8250 8250 176
Width: 231
Flags: W
LayerCount: 2
Fore
SplineSet
194 207 m 0,0,1
 194 199 194 199 152.5 125 c 128,-1,2
 111 51 111 51 101.5 40.5 c 128,-1,3
 92 30 92 30 74 30 c 0,4,5
 48 30 48 30 48 44 c 1,6,7
 63 80 63 80 95 129 c 0,8,9
 121 170 121 170 148 211 c 1,10,-1
 54 375 l 1,11,12
 61 386 61 386 79 386 c 0,13,14
 99 386 99 386 107 373 c 2,15,-1
 176 255 l 2,16,17
 194 224 194 224 194 207 c 0,0,1
EndSplineSet
EndChar

StartChar: daggerdbl
Encoding: 8225 8225 177
Width: 343
Flags: W
LayerCount: 2
Fore
SplineSet
288 441 m 1,0,-1
 263 387 l 1,1,-1
 171 385 l 1,2,-1
 171 239 l 1,3,-1
 288 241 l 1,4,-1
 263 187 l 1,5,-1
 171 185 l 1,6,7
 170 126 170 126 169.5 103.5 c 128,-1,8
 169 81 169 81 169 27 c 2,9,-1
 169 16 l 2,10,11
 169 -3 169 -3 163 -6 c 1,12,13
 112 43 112 43 112 50 c 0,14,15
 112 53 112 53 114.5 58 c 128,-1,16
 117 63 117 63 117 65 c 0,17,18
 123 90 123 90 124 185 c 1,19,20
 116 189 116 189 86 189 c 0,21,22
 65 189 65 189 27 187 c 1,23,-1
 34 236 l 1,24,25
 67 241 67 241 124 239 c 1,26,27
 124 228 124 228 123 385 c 1,28,29
 115 389 115 389 86 389 c 0,30,31
 65 389 65 389 27 387 c 1,32,-1
 34 436 l 1,33,34
 67 441 67 441 123 439 c 1,35,-1
 123 498 l 2,36,37
 123 525 123 525 136 542 c 0,38,39
 141 549 141 549 171 573 c 1,40,-1
 171 439 l 1,41,-1
 288 441 l 1,0,-1
EndSplineSet
EndChar

StartChar: periodcentered
Encoding: 183 183 178
AltUni2: 002219.ffffffff.0
Width: 144
Flags: W
LayerCount: 2
Fore
SplineSet
129 262 m 0,0,1
 129 240 129 240 112 224.5 c 128,-1,2
 95 209 95 209 73 209 c 0,3,4
 49 209 49 209 30 227.5 c 128,-1,5
 11 246 11 246 11 270 c 0,6,7
 11 292 11 292 28.5 305 c 128,-1,8
 46 318 46 318 68 318 c 0,9,10
 92 318 92 318 110.5 302 c 128,-1,11
 129 286 129 286 129 262 c 0,0,1
EndSplineSet
EndChar

StartChar: quotesinglbase
Encoding: 8218 8218 179
Width: 150
Flags: W
LayerCount: 2
Fore
SplineSet
111 35 m 1,0,1
 111 13 111 13 92 -25 c 0,2,3
 71 -68 71 -68 53 -68 c 0,4,5
 48 -68 48 -68 48 -58 c 0,6,7
 48 -34 48 -34 69 -28 c 1,8,-1
 69 -26 l 1,9,10
 70 -24 70 -24 78 -8 c 1,11,12
 78 2 78 2 69 4 c 0,13,14
 66 4 66 4 52 3 c 1,15,16
 26 29 26 29 26 44 c 0,17,18
 26 46 26 46 27 49 c 128,-1,19
 28 52 28 52 28 54 c 0,20,21
 37 78 37 78 67 78 c 2,22,-1
 76 78 l 2,23,24
 95 78 95 78 111 35 c 1,0,1
EndSplineSet
EndChar

StartChar: quotedblbase
Encoding: 8222 8222 180
Width: 280
Flags: W
LayerCount: 2
Fore
SplineSet
247 29 m 0,0,1
 247 9 247 9 227 -28 c 0,2,3
 206 -68 206 -68 188 -68 c 1,4,-1
 184 -59 l 1,5,6
 185 -34 185 -34 205 -28 c 1,7,-1
 205 -26 l 1,8,9
 207 -24 207 -24 214 -8 c 1,10,11
 214 -2 214 -2 188 8.5 c 128,-1,12
 162 19 162 19 162 38 c 0,13,14
 162 78 162 78 202 78 c 2,15,-1
 211 78 l 2,16,17
 222 78 222 78 234.5 59.5 c 128,-1,18
 247 41 247 41 247 29 c 0,0,1
111 35 m 1,19,20
 111 13 111 13 92 -25 c 0,21,22
 71 -68 71 -68 53 -68 c 0,23,24
 48 -68 48 -68 48 -58 c 0,25,26
 48 -34 48 -34 69 -28 c 1,27,-1
 69 -26 l 1,28,29
 70 -24 70 -24 78 -8 c 1,30,31
 78 2 78 2 69 4 c 0,32,33
 66 4 66 4 52 3 c 1,34,35
 26 29 26 29 26 44 c 0,36,37
 26 46 26 46 27 49 c 128,-1,38
 28 52 28 52 28 54 c 0,39,40
 37 78 37 78 67 78 c 2,41,-1
 76 78 l 2,42,43
 95 78 95 78 111 35 c 1,19,20
EndSplineSet
EndChar

StartChar: perthousand
Encoding: 8240 8240 181
Width: 902
Flags: W
LayerCount: 2
Fore
SplineSet
874 141 m 0,0,1
 874 83 874 83 845 42 c 0,2,3
 812 -4 812 -4 756 -4 c 0,4,5
 699 -4 699 -4 665 42 c 0,6,7
 634 83 634 83 634 142 c 0,8,9
 634 202 634 202 665 242 c 0,10,11
 699 286 699 286 756 286 c 0,12,13
 814 286 814 286 846 241 c 0,14,15
 874 200 874 200 874 141 c 0,0,1
595 145 m 0,16,17
 595 87 595 87 565 46 c 0,18,19
 533 1 533 1 477 1 c 0,20,21
 420 1 420 1 386 46 c 0,22,23
 355 88 355 88 355 147 c 256,24,25
 355 206 355 206 386 246 c 0,26,27
 420 291 420 291 477 291 c 256,28,29
 534 291 534 291 566 245 c 0,30,31
 595 205 595 205 595 145 c 0,16,17
490 529 m 2,32,33
 490 524 490 524 335 258.5 c 128,-1,34
 180 -7 180 -7 172 -14 c 1,35,-1
 153 36 l 1,36,37
 178 85 178 85 221 155 c 0,38,39
 291 270 291 270 292 273 c 2,40,-1
 387 435 l 2,41,42
 405 467 405 467 423 499 c 1,43,44
 449 536 449 536 481 536 c 1,45,46
 481 536 481 536 489 535 c 1,47,48
 490 529 490 529 490 529 c 2,32,33
273 402 m 0,49,50
 273 344 273 344 243 303 c 0,51,52
 211 258 211 258 155 258 c 0,53,54
 98 258 98 258 64 303 c 0,55,56
 33 345 33 345 33 404 c 256,57,58
 33 463 33 463 64 503 c 0,59,60
 98 548 98 548 155 548 c 256,61,62
 212 548 212 548 244 502 c 0,63,64
 273 461 273 461 273 402 c 0,49,50
819 142 m 0,65,66
 819 177 819 177 805 202 c 0,67,68
 788 234 788 234 756 234 c 256,69,70
 724 234 724 234 706 203 c 0,71,72
 692 178 692 178 692 143 c 256,73,74
 692 108 692 108 706 82 c 1,75,76
 724 52 724 52 756 52 c 0,77,78
 787 52 787 52 805 83 c 0,79,80
 819 109 819 109 819 142 c 0,65,66
539 147 m 256,81,82
 539 181 539 181 526 207 c 1,83,84
 509 238 509 238 477 238 c 256,85,86
 445 238 445 238 427 207 c 0,87,88
 412 182 412 182 412 147 c 256,89,90
 412 112 412 112 427 87 c 1,91,92
 444 56 444 56 477 56 c 0,93,94
 508 56 508 56 525 87 c 0,95,96
 539 113 539 113 539 147 c 256,81,82
217 404 m 256,97,98
 217 438 217 438 204 463 c 0,99,100
 186 495 186 495 155 495 c 0,101,102
 123 495 123 495 105 464 c 0,103,104
 90 439 90 439 90 404 c 256,105,106
 90 369 90 369 105 344 c 1,107,108
 122 313 122 313 155 313 c 0,109,110
 186 313 186 313 203 344 c 0,111,112
 217 370 217 370 217 404 c 256,97,98
EndSplineSet
EndChar

StartChar: dotlessi
Encoding: 305 305 197
Width: 132
Flags: W
LayerCount: 2
Fore
SplineSet
105 0 m 1,0,1
 99 -1 99 -1 92 -1 c 2,2,-1
 18 -1 l 1,3,4
 18 11 18 11 21 21 c 0,5,6
 27 36 27 36 28 40 c 1,7,-1
 30 42 l 1,8,9
 35 60 35 60 35 60 c 1,10,-1
 35 353 l 2,11,12
 35 362 35 362 26.5 381 c 128,-1,13
 18 400 18 400 18 415 c 1,14,-1
 70 415 l 1,15,16
 70 415 70 415 105 414 c 1,17,18
 105 385 105 385 92 373 c 1,19,20
 89 364 89 364 86 353 c 1,21,-1
 86 60 l 2,22,23
 86 54 86 54 95.5 36 c 128,-1,24
 105 18 105 18 105 0 c 1,0,1
EndSplineSet
EndChar

StartChar: circumflex
Encoding: 710 710 198
Width: 311
Flags: W
LayerCount: 2
Fore
SplineSet
211 490 m 1,0,-1
 187 476 l 1,1,-1
 122 544 l 1,2,-1
 58 476 l 1,3,-1
 34 490 l 1,4,-1
 103 594 l 1,5,-1
 124 599 l 1,6,-1
 142 594 l 1,7,-1
 211 490 l 1,0,-1
EndSplineSet
EndChar

StartChar: tilde
Encoding: 732 732 199
Width: 334
Flags: W
LayerCount: 2
Fore
SplineSet
261 534 m 0,0,1
 261 528 261 528 247 511 c 0,2,3
 218 474 218 474 192 474 c 0,4,5
 165 474 165 474 149 488 c 128,-1,6
 133 502 133 502 106 502 c 0,7,8
 95 502 95 502 79.5 490.5 c 128,-1,9
 64 479 64 479 61 479 c 0,10,11
 55 479 55 479 53 498 c 0,12,13
 50 519 50 519 60 527 c 0,14,15
 90 550 90 550 104 550 c 0,16,17
 130 550 130 550 149.5 534.5 c 128,-1,18
 169 519 169 519 183 519 c 0,19,20
 192 519 192 519 204 523 c 0,21,22
 211 525 211 525 227 539 c 128,-1,23
 243 553 243 553 248 555 c 1,24,25
 261 544 261 544 261 534 c 0,0,1
EndSplineSet
EndChar

StartChar: macron
Encoding: 175 175 200
AltUni2: 0002c9.ffffffff.0
Width: 250
Flags: W
LayerCount: 2
Fore
SplineSet
0 470 m 1,0,-1
 229 470 l 1,1,-1
 229 433 l 1,2,-1
 0 433 l 1,3,-1
 0 470 l 1,0,-1
EndSplineSet
EndChar

StartChar: breve
Encoding: 728 728 201
Width: 311
Flags: W
LayerCount: 2
Fore
SplineSet
44 570 m 1,0,-1
 69 583 l 1,1,2
 108 542 108 542 136 543 c 1,3,4
 165 543 165 543 203 582 c 1,5,-1
 229 570 l 1,6,7
 218 552 218 552 207 538 c 0,8,9
 180 505 180 505 156 498 c 0,10,11
 142 494 142 494 135 494 c 0,12,13
 127 494 127 494 116 498 c 0,14,15
 81 511 81 511 44 570 c 1,0,-1
EndSplineSet
EndChar

StartChar: cedilla
Encoding: 184 184 202
Width: 279
Flags: W
LayerCount: 2
Fore
SplineSet
280 303 m 0,0,1
 280 259 280 259 253.5 213.5 c 128,-1,2
 227 168 227 168 189 140 c 1,3,4
 162 125 162 125 135 111 c 1,5,6
 99 90 99 90 98 68 c 1,7,8
 109 44 109 44 194 -58 c 0,9,10
 270 -150 270 -150 270 -173 c 0,11,12
 270 -212 270 -212 241 -239 c 1,13,-1
 238 -239 l 1,14,15
 228 -224 228 -224 213 -191 c 128,-1,16
 198 -158 198 -158 188 -143 c 0,17,18
 131 -64 131 -64 74 14 c 1,19,20
 13 108 13 108 13 196 c 0,21,22
 13 264 13 264 53 335 c 0,23,24
 99 416 99 416 162 416 c 0,25,26
 216 416 216 416 248 386.5 c 128,-1,27
 280 357 280 357 280 303 c 0,0,1
229 298 m 0,28,29
 229 358 229 358 164 358 c 0,30,31
 116 358 116 358 84 311 c 0,32,33
 56 269 56 269 56 219 c 0,34,35
 56 159 56 159 73 128 c 1,36,37
 123 140 123 140 176 194.5 c 128,-1,38
 229 249 229 249 229 298 c 0,28,29
EndSplineSet
EndChar

StartChar: caron
Encoding: 711 711 203
Width: 311
Flags: W
LayerCount: 2
Fore
SplineSet
37 609 m 1,0,-1
 61 623 l 1,1,-1
 126 555 l 1,2,-1
 190 623 l 1,3,-1
 214 609 l 1,4,-1
 145 505 l 1,5,-1
 124 501 l 1,6,-1
 106 505 l 1,7,-1
 37 609 l 1,0,-1
EndSplineSet
EndChar

StartChar: Scaron
Encoding: 352 352 204
Width: 349
Flags: W
LayerCount: 2
Fore
SplineSet
352 250 m 0,0,1
 352 175 352 175 303 74 c 1,2,3
 258 -11 258 -11 212 -95 c 1,4,5
 163 -191 163 -191 163 -252 c 0,6,7
 163 -259 163 -259 157 -260 c 1,8,-1
 156 -259 l 1,9,10
 139 -260 139 -260 122 -229 c 0,11,12
 108 -202 108 -202 106 -182 c 1,13,-1
 107 -180 l 1,14,15
 107 -163 107 -163 156 -73 c 1,16,17
 228 56 228 56 248 98 c 0,18,19
 298 201 298 201 298 250 c 0,20,21
 298 393 298 393 195 393 c 0,22,23
 148 393 148 393 115.5 359 c 128,-1,24
 83 325 83 325 83 278 c 2,25,-1
 83 62 l 2,26,27
 83 56 83 56 92.5 37 c 128,-1,28
 102 18 102 18 102 1 c 1,29,30
 96 0 96 0 89 0 c 2,31,-1
 15 0 l 1,32,-1
 15 16 l 1,33,34
 32 54 32 54 32 62 c 2,35,-1
 32 497 l 2,36,37
 32 504 32 504 24 510 c 1,38,39
 15 513 15 513 15 522 c 0,40,41
 15 535 15 535 74 581 c 1,42,-1
 81 583 l 1,43,-1
 85 578 l 1,44,-1
 85 392 l 1,45,46
 132 448 132 448 196 448 c 0,47,48
 287 448 287 448 323 391 c 0,49,50
 352 346 352 346 352 250 c 0,0,1
EndSplineSet
EndChar

StartChar: scaron
Encoding: 353 353 205
Width: 306
Flags: WO
LayerCount: 2
Fore
SplineSet
304 16 m 0
 304 -33 304 -33 255 -79 c 0
 226 -107 226 -107 153 -151.5 c 0
 80 -196 80 -196 58 -219 c 1
 38 -191 38 -191 38 -143 c 0
 38 -120 38 -120 49 -120 c 0
 101 -120 101 -120 168 -77 c 1
 242 -31 242 -31 242 18 c 0
 242 72 242 72 181 110 c 1
 125 141 125 141 69 172 c 1
 8 213 8 213 8 275 c 0
 8 332 8 332 43.5 374 c 0
 79 416 79 416 135 416 c 0
 167 416 167 416 200 403 c 0
 242 387 242 387 242 361 c 0
 242 317 242 317 220 300 c 1
 215 303 l 1
 195 338 195 338 186 348 c 0
 167 369 167 369 138 369 c 0
 103 369 103 369 83 340 c 0
 66 315 66 315 66 279 c 0
 66 248 66 248 128 212 c 0
 224 155 224 155 242 139 c 0
 304 86 304 86 304 16 c 0
EndSplineSet
Refer: 141 180 N 1 0 0 1 0 -30 2
EndChar

StartChar: Eth
Encoding: 208 208 207
Width: 455
Flags: W
LayerCount: 2
Fore
SplineSet
437 253 m 0,0,1
 437 104 437 104 341 44 c 0,2,3
 266 -3 266 -3 107 -3 c 2,4,-1
 59 -3 l 1,5,6
 63 11 63 11 69 38 c 1,7,-1
 71 40 l 1,8,9
 76 51 76 51 76 59 c 2,10,-1
 76 233 l 1,11,12
 57 234 57 234 20 223 c 1,13,14
 11 216 11 216 7 216 c 0,15,16
 -1 216 -1 216 -1 262 c 0,17,18
 -1 285 -1 285 3 287 c 1,19,20
 3 287 3 287 33 287 c 0,21,22
 78 287 78 287 76 287 c 1,23,-1
 76 518 l 2,24,25
 76 530 76 530 65 542 c 0,26,27
 50 558 50 558 50 574 c 1,28,29
 50 574 50 574 52 580 c 1,30,31
 59 581 59 581 59 581 c 1,32,33
 71 581 71 581 93 571.5 c 128,-1,34
 115 562 115 562 127 562 c 0,35,36
 239 562 239 562 338 463.5 c 128,-1,37
 437 365 437 365 437 253 c 0,0,1
372 250 m 0,38,39
 372 365 372 365 250 452 c 0,40,41
 201 487 201 487 163 487 c 0,42,43
 127 487 127 487 127 453 c 2,44,-1
 127 288 l 1,45,46
 171 288 171 288 197 294 c 0,47,48
 210 296 210 296 235 309 c 1,49,50
 242 307 242 307 242 268 c 0,51,52
 242 236 242 236 229 236 c 0,53,54
 223 236 223 236 216 237.5 c 128,-1,55
 209 239 209 239 199 239 c 0,56,57
 140 239 140 239 127 237 c 1,58,-1
 127 101 l 2,59,60
 127 69 127 69 199 69 c 0,61,62
 279 69 279 69 325.5 119 c 128,-1,63
 372 169 372 169 372 250 c 0,38,39
EndSplineSet
EndChar

StartChar: eth
Encoding: 240 240 208
Width: 279
Flags: W
LayerCount: 2
Fore
SplineSet
264 227 m 0,0,1
 264 143 264 143 236 87 c 0,2,3
 199 15 199 15 124 15 c 0,4,5
 73 15 73 15 43 54 c 0,6,7
 15 90 15 90 15 142 c 0,8,9
 15 172 15 172 36 217 c 0,10,11
 55 258 55 258 78 284 c 1,12,13
 100 303 100 303 123 322 c 0,14,15
 154 347 154 347 154 367 c 1,16,-1
 153 372 l 1,17,18
 144 385 144 385 101 421 c 1,19,20
 63 398 63 398 62 398 c 0,21,22
 38 383 38 383 29.5 371 c 128,-1,23
 21 359 21 359 17 359 c 0,24,25
 11 359 11 359 0 391 c 0,26,27
 -8 417 -8 417 -10 430 c 1,28,-1
 -6 436 l 1,29,30
 -3 436 -3 436 4 435 c 128,-1,31
 11 434 11 434 15 434 c 0,32,33
 25 434 25 434 58 455 c 1,34,35
 12 487 12 487 3 495 c 0,36,37
 -30 525 -30 525 -30 550 c 0,38,39
 -30 581 -30 581 -13 601 c 1,40,-1
 -10 602 l 1,41,42
 4 581 4 581 37 544 c 1,43,44
 60 524 60 524 107 483 c 1,45,46
 143 504 143 504 193 551 c 1,47,-1
 194 551 l 2,48,49
 201 551 201 551 213 515.5 c 128,-1,50
 225 480 225 480 225 470 c 0,51,52
 225 461 225 461 215 461 c 0,53,54
 210 461 210 461 202.5 465.5 c 128,-1,55
 195 470 195 470 191 470 c 0,56,57
 176 470 176 470 145 448 c 1,58,59
 264 332 264 332 264 227 c 0,0,1
226 206 m 0,60,61
 226 273 226 273 189 318 c 1,62,63
 148 300 148 300 107.5 242.5 c 128,-1,64
 67 185 67 185 67 141 c 0,65,66
 67 73 67 73 123 73 c 0,67,68
 174 73 174 73 202 116 c 0,69,70
 226 152 226 152 226 206 c 0,60,61
EndSplineSet
EndChar

StartChar: Yacute
Encoding: 221 221 209
Width: 437
Flags: W
LayerCount: 2
Fore
SplineSet
460 571 m 1,0,1
 455 571 455 571 444 571 c 1,2,3
 390 566 390 566 324 443 c 0,4,5
 282 364 282 364 250 268 c 0,6,7
 232 214 232 214 232 186 c 0,8,9
 232 61 232 61 241 43 c 0,10,11
 254 18 254 18 254 1 c 1,12,13
 248 0 248 0 167 0 c 1,14,15
 167 12 167 12 175.5 28.5 c 128,-1,16
 184 45 184 45 184 52 c 2,17,-1
 180 204 l 1,18,-1
 32 523 l 2,19,20
 16 558 16 558 16 585 c 1,21,22
 25 586 25 586 27 586 c 2,23,-1
 90 586 l 2,24,25
 97 586 97 586 103 584 c 1,26,27
 103 557 103 557 84 539 c 1,28,-1
 82 531 l 1,29,30
 130 418 130 418 139 396 c 0,31,32
 184 295 184 295 202 276 c 1,33,34
 209 283 209 283 217 314 c 0,35,36
 233 379 233 379 298.5 491 c 128,-1,37
 364 603 364 603 396 617 c 1,38,39
 414 607 414 607 432 597 c 1,40,41
 456 581 456 581 460 571 c 1,0,1
315 717 m 1,42,-1
 218 615 l 1,43,-1
 194 629 l 1,44,-1
 263 733 l 1,45,-1
 315 717 l 1,42,-1
EndSplineSet
EndChar

StartChar: yacute
Encoding: 253 253 210
Width: 300
Flags: W
LayerCount: 2
Fore
SplineSet
246 578 m 1,0,-1
 149 476 l 1,1,-1
 125 490 l 1,2,-1
 194 594 l 1,3,-1
 246 578 l 1,0,-1
304 415 m 1,4,5
 305 401 305 401 297 392 c 0,6,7
 287 380 287 380 285 373 c 2,8,-1
 190 48 l 1,9,10
 180 8 180 8 170 -31 c 0,11,12
 157 -78 157 -78 139 -107 c 1,13,-1
 139 -108 l 1,14,15
 128 -124 128 -124 83 -164 c 1,16,17
 42 -199 42 -199 35 -218 c 1,18,-1
 -20 -175 l 1,19,20
 -18 -158 -18 -158 19 -137 c 0,21,22
 68 -109 68 -109 87 -88 c 0,23,24
 123 -48 123 -48 123 16 c 0,25,26
 123 45 123 45 115 68 c 2,27,-1
 37 294 l 2,28,29
 28 319 28 319 -2 339 c 1,30,31
 4 354 4 354 22 374 c 128,-1,32
 40 394 40 394 53 398 c 1,33,-1
 55 396 l 1,34,35
 58 387 58 387 161 87 c 1,36,37
 182 163 182 163 204 239 c 1,38,39
 234 348 234 348 234 384 c 1,40,41
 233 387 233 387 232 391 c 1,42,43
 215 400 215 400 217 416 c 1,44,-1
 265 416 l 2,45,46
 269 416 269 416 304 415 c 1,4,5
EndSplineSet
EndChar

StartChar: Thorn
Encoding: 222 222 211
Width: 310
Flags: W
LayerCount: 2
Fore
SplineSet
311 356 m 0,0,1
 311 271 311 271 255 217 c 0,2,3
 228 191 228 191 151 150 c 0,4,5
 94 120 94 120 94 96 c 2,6,-1
 94 -4 l 1,7,8
 88 -18 88 -18 66 -32 c 128,-1,9
 44 -46 44 -46 28 -47 c 1,10,-1
 24 -44 l 1,11,-1
 24 -45 l 1,12,-1
 29 -28 l 1,13,-1
 31 -27 l 1,14,15
 39 -10 39 -10 39 3 c 2,16,-1
 40 528 l 1,17,-1
 28 542 l 1,18,-1
 27 544 l 1,19,-1
 19 556 l 1,20,21
 25 571 25 571 71 571 c 0,22,23
 91 571 91 571 91 565 c 2,24,-1
 91 503 l 1,25,26
 90 496 90 496 108 494 c 0,27,28
 121 492 121 492 143 493 c 0,29,30
 172 495 172 495 168 495 c 1,31,32
 223 495 223 495 267 452.5 c 128,-1,33
 311 410 311 410 311 356 c 0,0,1
267 357 m 0,34,35
 267 405 267 405 216 429 c 0,36,37
 176 447 176 447 122 447 c 0,38,39
 89 447 89 447 89 440 c 0,40,41
 89 405 89 405 89 340 c 0,42,43
 89 265 89 265 89 240 c 2,44,-1
 89 200 l 2,45,46
 89 194 89 194 97 194 c 0,47,48
 154 194 154 194 210.5 247 c 128,-1,49
 267 300 267 300 267 357 c 0,34,35
EndSplineSet
EndChar

StartChar: thorn
Encoding: 254 254 212
Width: 310
Flags: W
LayerCount: 2
Fore
SplineSet
312 277 m 0,0,1
 312 193 312 193 256 124 c 0,2,3
 229 91 229 91 151 29 c 0,4,5
 95 -15 95 -15 95 -40 c 2,6,-1
 95 -204 l 1,7,8
 89 -218 89 -218 66.5 -232 c 128,-1,9
 44 -246 44 -246 29 -247 c 1,10,-1
 25 -244 l 1,11,-1
 25 -245 l 1,12,-1
 30 -228 l 1,13,-1
 32 -227 l 1,14,15
 40 -210 40 -210 40 -197 c 2,16,-1
 40 528 l 1,17,18
 34 535 34 535 19 556 c 1,19,20
 25 571 25 571 71 571 c 0,21,22
 91 571 91 571 91 565 c 2,23,-1
 91 424 l 2,24,25
 91 417 91 417 109 415 c 0,26,27
 121 413 121 413 143 415 c 1,28,29
 172 416 172 416 169 416 c 1,30,31
 224 416 224 416 268 373.5 c 128,-1,32
 312 331 312 331 312 277 c 0,0,1
268 278 m 0,33,34
 268 326 268 326 216 350 c 0,35,36
 177 368 177 368 123 368 c 0,37,38
 90 368 90 368 90 361 c 2,39,-1
 89 74 l 2,40,41
 89 69 89 69 97 69 c 0,42,43
 154 69 154 69 213 146 c 0,44,45
 268 219 268 219 268 278 c 0,33,34
EndSplineSet
EndChar

StartChar: minus
Encoding: 173 173 213
AltUni2: 002212.ffffffff.0
Width: 387
Flags: W
LayerCount: 2
Fore
SplineSet
311 244 m 2,0,-1
 277 249 l 2,1,2
 263 251 263 251 247 251 c 0,3,4
 216 251 216 251 168 242 c 0,5,6
 130 235 130 235 91 228 c 0,7,8
 87 227 87 227 76 221 c 128,-1,9
 65 215 65 215 61 216 c 0,10,11
 53 217 53 217 52 251 c 1,12,-1
 52 268 l 2,13,14
 52 273 52 273 54.5 279 c 128,-1,15
 57 285 57 285 61 285 c 0,16,17
 68 285 68 285 87 283 c 0,18,19
 103 281 103 281 180 290 c 0,20,21
 253 299 253 299 274 304 c 1,22,-1
 273 304 l 1,23,24
 294 308 294 308 313 315 c 1,25,26
 323 313 323 313 323 276 c 0,27,28
 323 242 323 242 311 244 c 2,0,-1
EndSplineSet
EndChar

StartChar: multiply
Encoding: 215 215 214
Width: 363
Flags: W
LayerCount: 2
Fore
SplineSet
336 86 m 1,0,-1
 254 86 l 2,1,2
 251 86 251 86 241 87 c 1,3,4
 241 97 241 97 252 102 c 1,5,-1
 254 106 l 1,6,7
 243 126 243 126 220 150 c 0,8,9
 200 170 200 170 181 190 c 1,10,11
 159 169 159 169 138 148 c 0,12,13
 106 115 106 115 104 104 c 1,14,15
 115 94 115 94 115 85 c 1,16,17
 81 84 81 84 79 84 c 2,18,-1
 20 84 l 1,19,20
 20 98 20 98 49 113 c 1,21,-1
 49 114 l 1,22,-1
 151 221 l 1,23,24
 126 249 126 249 101 277 c 1,25,26
 79 297 79 297 33 311 c 1,27,28
 35 320 35 320 61 335 c 128,-1,29
 87 350 87 350 97 350 c 0,30,31
 102 350 102 350 137 306 c 0,32,33
 159 279 159 279 180 252 c 1,34,35
 197 270 197 270 214 287 c 1,36,37
 237 312 237 312 241 324 c 1,38,39
 241 324 241 324 228 332 c 0,40,41
 220 336 220 336 221 344 c 1,42,-1
 277 344 l 2,43,44
 278 344 278 344 316 344 c 1,45,46
 316 331 316 331 296 317 c 0,47,48
 281 307 281 307 253 272 c 0,49,50
 232 247 232 247 211 221 c 1,51,-1
 306 118 l 2,52,53
 306 117 306 117 325 105 c 0,54,55
 337 97 337 97 336 86 c 1,0,-1
EndSplineSet
EndChar

StartChar: onesuperior
Encoding: 185 185 215
Width: 180
Flags: W
LayerCount: 2
Fore
SplineSet
130 271 m 1,0,1
 124 270 124 270 118 270 c 2,2,-1
 50 270 l 1,3,4
 50 271 50 271 59 300 c 1,5,-1
 61 301 l 1,6,7
 69 320 69 320 69 386 c 0,8,9
 69 408 69 408 67.5 452 c 128,-1,10
 66 496 66 496 66 518 c 0,11,12
 66 522 66 522 58.5 527 c 128,-1,13
 51 532 51 532 51 536 c 0,14,15
 51 543 51 543 75.5 561.5 c 128,-1,16
 100 580 100 580 109 580 c 1,17,-1
 113 577 l 1,18,-1
 112 315 l 2,19,20
 112 310 112 310 121 297 c 128,-1,21
 130 284 130 284 130 271 c 1,0,1
EndSplineSet
EndChar

StartChar: twosuperior
Encoding: 178 178 216
Width: 395
Flags: W
LayerCount: 2
Fore
SplineSet
423 578 m 2,0,1
 423 569 423 569 404 536 c 128,-1,2
 385 503 385 503 376 492 c 1,3,4
 350 533 350 533 271 532 c 1,5,6
 55 301 55 301 55 179 c 0,7,8
 55 123 55 123 97.5 87 c 128,-1,9
 140 51 140 51 196 51 c 0,10,11
 244 51 244 51 282 86 c 128,-1,12
 320 121 320 121 320 168 c 0,13,14
 320 207 320 207 291.5 235.5 c 128,-1,15
 263 264 263 264 224 264 c 0,16,17
 206 264 206 264 185 248 c 128,-1,18
 164 232 164 232 164 214 c 0,19,20
 164 209 164 209 168 202 c 1,21,-1
 168 199 l 1,22,-1
 165 197 l 1,23,24
 153 204 153 204 135 222 c 128,-1,25
 117 240 117 240 117 250 c 0,26,27
 117 282 117 282 157 299 c 0,28,29
 188 312 188 312 225 312 c 0,30,31
 286 312 286 312 327 270.5 c 128,-1,32
 368 229 368 229 368 168 c 0,33,34
 368 91 368 91 320.5 45.5 c 128,-1,35
 273 0 273 0 196 0 c 256,36,37
 119 0 119 0 63.5 52 c 128,-1,38
 8 104 8 104 8 180 c 0,39,40
 8 245 8 245 54 327 c 0,41,42
 81 374 81 374 140 451 c 0,43,44
 188 513 188 513 190 527 c 1,45,-1
 183 532 l 1,46,47
 119 532 119 532 91 511 c 0,48,49
 83 504 83 504 68 490 c 1,50,51
 36 532 36 532 27 577 c 1,52,-1
 31 582 l 1,53,54
 43 584 43 584 61 584 c 2,55,-1
 403 584 l 2,56,57
 415 584 415 584 423 581 c 1,58,-1
 423 578 l 2,0,1
EndSplineSet
EndChar

StartChar: threesuperior
Encoding: 179 179 217
Width: 347
Flags: W
LayerCount: 2
Fore
SplineSet
444 -163 m 256,0,1
 444 -177 444 -177 424 -225 c 1,2,3
 369 -225 369 -225 307 -166 c 1,4,5
 251 -111 251 -111 196 -56 c 1,6,7
 124 2 124 2 47 1 c 1,8,-1
 12 1 l 1,9,10
 12 17 12 17 26 24 c 0,11,12
 48 35 48 35 48 60 c 2,13,-1
 48 524 l 2,14,15
 48 537 48 537 40 555.5 c 128,-1,16
 32 574 32 574 31 583 c 1,17,18
 35 583 35 583 44 584 c 0,19,20
 52 584 52 584 57 584 c 2,21,-1
 285 584 l 2,22,23
 298 584 298 584 307 582 c 1,24,25
 314 571 314 571 326.5 540 c 128,-1,26
 339 509 339 509 340 498 c 1,27,-1
 338 494 l 1,28,29
 323 507 323 507 309.5 518 c 128,-1,30
 296 529 296 529 267 529 c 2,31,-1
 117 529 l 2,32,33
 99 529 99 529 99 492 c 0,34,35
 99 477 99 477 97.5 448 c 128,-1,36
 96 419 96 419 96 404 c 0,37,38
 96 308 96 308 117 308 c 0,39,40
 135 308 135 308 187 337.5 c 128,-1,41
 239 367 239 367 253 367 c 0,42,43
 260 367 260 367 260 312 c 0,44,45
 260 268 260 268 251 265 c 1,46,47
 251 265 251 265 235 280 c 0,48,49
 227 288 227 288 215 288 c 0,50,51
 193 288 193 288 146 260 c 128,-1,52
 99 232 99 232 99 215 c 2,53,-1
 99 80 l 2,54,55
 99 54 99 54 119 54 c 0,56,57
 161 54 161 54 222 0 c 1,58,59
 274 -51 274 -51 326 -102 c 1,60,61
 385 -156 385 -156 423 -156 c 0,62,63
 427 -156 427 -156 434 -153 c 0,64,65
 444 -149 444 -149 444 -163 c 256,0,1
EndSplineSet
EndChar

StartChar: onehalf
Encoding: 189 189 218
Width: 460
Flags: W
LayerCount: 2
Fore
SplineSet
100 271 m 1,0,1
 94 270 94 270 88 270 c 2,2,-1
 20 270 l 1,3,4
 20 271 20 271 29 300 c 1,5,-1
 31 301 l 1,6,7
 39 320 39 320 39 386 c 0,8,9
 39 408 39 408 37.5 452 c 128,-1,10
 36 496 36 496 36 518 c 0,11,12
 36 522 36 522 28.5 527 c 128,-1,13
 21 532 21 532 21 536 c 0,14,15
 21 543 21 543 45.5 561.5 c 128,-1,16
 70 580 70 580 79 580 c 1,17,-1
 83 577 l 1,18,-1
 82 315 l 2,19,20
 82 310 82 310 91 297 c 128,-1,21
 100 284 100 284 100 271 c 1,0,1
349 591 m 0,22,23
 351 581 351 581 234 290 c 0,24,25
 135 46 135 46 95 -49 c 1,26,27
 84 -18 84 -18 62 5 c 1,28,-1
 61 9 l 1,29,30
 80 66 80 66 175 306 c 0,31,32
 275 559 275 559 284 569 c 0,33,34
 315 599 315 599 341 599 c 1,35,36
 341 599 341 599 346 598 c 1,37,38
 348 595 348 595 349 591 c 0,22,23
319 48 m 1,39,40
 323 46 323 46 329 46 c 0,41,42
 394 46 394 46 429 70 c 1,43,44
 434 62 434 62 434 42 c 0,45,46
 434 16 434 16 429 10 c 0,47,48
 420 0 420 0 352 0 c 2,49,-1
 233 0 l 1,50,51
 234 14 234 14 243 37 c 1,52,53
 258 57 258 57 288 81 c 0,54,55
 313 101 313 101 339 120 c 1,56,57
 401 171 401 171 401 218 c 0,58,59
 401 258 401 258 343 258 c 0,60,61
 302 258 302 258 280 200 c 1,62,-1
 277 197 l 1,63,64
 267 202 267 202 256.5 217 c 128,-1,65
 246 232 246 232 246 242 c 0,66,67
 246 260 246 260 286 282 c 0,68,69
 323 302 323 302 343 302 c 0,70,71
 441 302 441 302 441 212 c 0,72,73
 441 164 441 164 409 128 c 0,74,75
 398 116 398 116 339 70 c 0,76,77
 321 57 321 57 319 48 c 1,39,40
EndSplineSet
EndChar

StartChar: onequarter
Encoding: 188 188 219
Width: 420
Flags: W
LayerCount: 2
Fore
SplineSet
100 271 m 1,0,1
 94 270 94 270 88 270 c 2,2,-1
 20 270 l 1,3,4
 20 271 20 271 29 300 c 1,5,-1
 31 301 l 1,6,7
 39 320 39 320 39 386 c 0,8,9
 39 408 39 408 37.5 452 c 128,-1,10
 36 496 36 496 36 518 c 0,11,12
 36 522 36 522 28.5 527 c 128,-1,13
 21 532 21 532 21 536 c 0,14,15
 21 543 21 543 45.5 561.5 c 128,-1,16
 70 580 70 580 79 580 c 1,17,-1
 83 577 l 1,18,-1
 82 315 l 2,19,20
 82 310 82 310 91 297 c 128,-1,21
 100 284 100 284 100 271 c 1,0,1
349 591 m 0,22,23
 351 581 351 581 234 290 c 0,24,25
 135 46 135 46 95 -49 c 1,26,27
 84 -18 84 -18 62 5 c 1,28,-1
 61 9 l 1,29,30
 80 66 80 66 175 306 c 0,31,32
 275 559 275 559 284 569 c 0,33,34
 315 599 315 599 341 599 c 1,35,36
 341 599 341 599 346 598 c 1,37,38
 348 595 348 595 349 591 c 0,22,23
365 301 m 1,39,40
 363 288 363 288 320 205 c 0,41,42
 315 194 315 194 279 146 c 1,43,-1
 280 146 l 1,44,-1
 330 146 l 1,45,-1
 329 177 l 2,46,47
 329 182 329 182 372 211 c 1,48,-1
 373 146 l 1,49,-1
 410 146 l 1,50,-1
 409 106 l 1,51,-1
 372 106 l 1,52,-1
 372 12 l 2,53,54
 372 -5 372 -5 362 -5 c 0,55,56
 356 -5 356 -5 340 6.5 c 128,-1,57
 324 18 324 18 324 24 c 0,58,59
 324 27 324 27 329 36 c 1,60,-1
 329 106 l 1,61,-1
 224 106 l 1,62,63
 217 115 217 115 217 121 c 0,64,65
 217 125 217 125 242 160 c 0,66,67
 272 201 272 201 273 204 c 0,68,69
 295 239 295 239 311 285 c 0,70,71
 314 292 314 292 317 297 c 0,72,73
 328 312 328 312 354 312 c 1,74,75
 358 311 358 311 364 310 c 1,76,77
 366 304 366 304 365 301 c 1,78,-1
 365 301 l 1,39,40
EndSplineSet
EndChar

StartChar: threequarters
Encoding: 190 190 220
Width: 474
Flags: W
LayerCount: 2
Fore
SplineSet
399 591 m 0,0,1
 401 581 401 581 284 290 c 0,2,3
 185 46 185 46 145 -49 c 1,4,5
 134 -18 134 -18 112 5 c 1,6,-1
 111 9 l 1,7,8
 130 66 130 66 225 306 c 0,9,10
 325 559 325 559 334 569 c 0,11,12
 365 599 365 599 391 599 c 1,13,14
 391 599 391 599 396 598 c 1,15,16
 398 595 398 595 399 591 c 0,0,1
460 146 m 1,17,-1
 459 106 l 1,18,-1
 422 106 l 1,19,-1
 422 12 l 2,20,21
 422 -5 422 -5 412 -5 c 0,22,23
 406 -5 406 -5 390 6.5 c 128,-1,24
 374 18 374 18 374 24 c 0,25,26
 374 27 374 27 379 36 c 1,27,-1
 379 106 l 1,28,-1
 274 106 l 1,29,30
 267 115 267 115 267 121 c 0,31,32
 267 125 267 125 292 160 c 0,33,34
 322 201 322 201 323 204 c 0,35,36
 345 239 345 239 361 285 c 0,37,38
 364 292 364 292 367 297 c 0,39,40
 378 312 378 312 404 312 c 1,41,42
 408 311 408 311 414 310 c 1,43,44
 416 304 416 304 415 301 c 1,45,-1
 415 301 l 1,46,47
 413 288 413 288 370 205 c 0,48,49
 365 194 365 194 329 146 c 1,50,-1
 330 146 l 1,51,-1
 380 146 l 1,52,-1
 379 177 l 2,53,54
 379 182 379 182 422 211 c 1,55,-1
 423 146 l 1,56,-1
 460 146 l 1,17,-1
91 264 m 0,57,58
 36 264 36 264 11 297 c 1,59,60
 15 305 15 305 28.5 314.5 c 128,-1,61
 42 324 42 324 52 326 c 1,62,63
 57 300 57 300 93 300 c 0,64,65
 126 300 126 300 145 317 c 128,-1,66
 164 334 164 334 164 357 c 0,67,68
 164 379 164 379 149 396 c 0,69,70
 131 416 131 416 102 416 c 0,71,72
 84 416 84 416 66 407 c 1,73,-1
 62 408 l 1,74,-1
 62 439 l 1,75,76
 76 446 76 446 103 461 c 0,77,78
 143 484 143 484 143 517 c 0,79,80
 143 544 143 544 106 544 c 0,81,82
 68 544 68 544 51 506 c 1,83,84
 43 508 43 508 33 517.5 c 128,-1,85
 23 527 23 527 23 532 c 0,86,87
 23 550 23 550 55 565 c 128,-1,88
 87 580 87 580 120 578 c 0,89,90
 148 576 148 576 166 556 c 0,91,92
 181 538 181 538 181 517 c 0,93,94
 181 466 181 466 135 445 c 1,95,96
 147 441 147 441 169 429 c 1,97,98
 206 406 206 406 206 355 c 0,99,100
 206 316 206 316 175 290 c 128,-1,101
 144 264 144 264 91 264 c 0,57,58
EndSplineSet
EndChar

StartChar: gbreve
Encoding: 287 287 222
Width: 331
Flags: W
LayerCount: 2
Fore
SplineSet
313 218 m 0,0,1
 313 136 313 136 277 79 c 0,2,3
 235 13 235 13 158 9 c 1,4,5
 151 -8 151 -8 150 -40 c 1,6,7
 204 -41 204 -41 238 -75 c 128,-1,8
 272 -109 272 -109 272 -163 c 0,9,10
 272 -226 272 -226 227 -261 c 0,11,12
 186 -293 186 -293 122 -293 c 1,13,14
 122 -293 122 -293 117 -292 c 1,15,-1
 117 -232 l 1,16,17
 135 -233 135 -233 143 -233 c 0,18,19
 176 -233 176 -233 195.5 -211 c 128,-1,20
 215 -189 215 -189 215 -155 c 0,21,22
 215 -119 215 -119 178 -100 c 0,23,24
 148 -85 148 -85 108 -85 c 0,25,26
 91 -85 91 -85 75 -88 c 1,27,28
 108 -31 108 -31 108 21 c 1,29,30
 64 29 64 29 37 88 c 0,31,32
 14 137 14 137 14 188 c 0,33,34
 14 272 14 272 43 335 c 0,35,36
 81 416 81 416 156 416 c 0,37,38
 167 416 167 416 195 405 c 1,39,40
 198 428 198 428 200 438 c 0,41,42
 203 453 203 453 210 468 c 1,43,-1
 218 469 l 1,44,45
 235 470 235 470 250 461 c 128,-1,46
 265 452 265 452 265 435 c 0,47,48
 265 433 265 433 250.5 411.5 c 128,-1,49
 236 390 236 390 233 383 c 1,50,51
 313 336 313 336 313 218 c 0,0,1
263 207 m 0,52,53
 263 320 263 320 213 336 c 1,54,55
 206 315 206 315 188 275 c 1,56,-1
 187 275 l 2,57,58
 155 275 155 275 149 286 c 1,59,60
 154 308 154 308 167 350 c 1,61,62
 155 355 155 355 144 355 c 0,63,64
 105 355 105 355 87 292 c 0,65,66
 74 249 74 249 74 195 c 0,67,68
 74 91 74 91 124 91 c 1,69,70
 128 112 128 112 133 132 c 0,71,72
 140 162 140 162 151 162 c 0,73,74
 188 162 188 162 188 137 c 0,75,76
 188 127 188 127 182 110 c 0,77,78
 175 89 175 89 174 82 c 1,79,80
 219 82 219 82 243 124 c 0,81,82
 263 158 263 158 263 207 c 0,52,53
55 540 m 1,83,-1
 80 553 l 1,84,85
 117 513 117 513 148 513 c 0,86,87
 178 513 178 513 215 552 c 1,88,-1
 240 540 l 1,89,90
 201 466 201 466 149 466 c 0,91,92
 94 466 94 466 55 540 c 1,83,-1
EndSplineSet
EndChar

StartChar: Idotaccent
Encoding: 304 304 223
Width: 132
Flags: W
LayerCount: 2
Fore
SplineSet
118 1 m 1,0,1
 113 0 113 0 106 0 c 2,2,-1
 31 0 l 1,3,4
 31 12 31 12 34 22 c 0,5,6
 40 38 40 38 41 41 c 1,7,-1
 43 43 l 1,8,9
 48 57 48 57 48 62 c 2,10,-1
 48 521 l 2,11,12
 48 518 48 518 40 546 c 1,13,14
 31 555 31 555 31 578 c 2,15,-1
 31 583 l 1,16,17
 41 584 41 584 42 584 c 2,18,-1
 105 584 l 2,19,20
 112 584 112 584 118 582 c 1,21,22
 118 566 118 566 108.5 547 c 128,-1,23
 99 528 99 528 99 521 c 2,24,-1
 99 62 l 2,25,26
 99 55 99 55 108.5 37 c 128,-1,27
 118 19 118 19 118 1 c 1,0,1
124 672 m 0,28,29
 124 654 124 654 110.5 641.5 c 128,-1,30
 97 629 97 629 80 629 c 0,31,32
 61 629 61 629 46 644 c 128,-1,33
 31 659 31 659 31 679 c 0,34,35
 31 696 31 696 44.5 707 c 128,-1,36
 58 718 58 718 76 718 c 0,37,38
 95 718 95 718 109.5 704.5 c 128,-1,39
 124 691 124 691 124 672 c 0,28,29
EndSplineSet
EndChar

StartChar: Scedilla
Encoding: 350 350 224
Width: 418
Flags: W
LayerCount: 2
Fore
SplineSet
412 155 m 0,0,1
 412 89 412 89 358 47 c 0,2,3
 311 10 311 10 240 2 c 1,4,5
 250 -13 250 -13 250 -36 c 0,6,7
 250 -53 250 -53 228.5 -92 c 128,-1,8
 207 -131 207 -131 192 -131 c 0,9,10
 187 -131 187 -131 187 -119 c 0,11,12
 187 -108 187 -108 194 -90 c 128,-1,13
 201 -72 201 -72 201 -62 c 1,14,15
 165 -55 165 -55 165 -23 c 0,16,17
 165 -8 165 -8 174 2 c 1,18,19
 105 11 105 11 59 46 c 1,20,21
 6 88 6 88 6 152 c 0,22,23
 6 210 6 210 51 245 c 0,24,25
 92 277 92 277 154 277 c 0,26,27
 205 277 205 277 243.5 245.5 c 128,-1,28
 282 214 282 214 282 165 c 0,29,30
 282 144 282 144 262 115 c 128,-1,31
 242 86 242 86 222 86 c 0,32,33
 210 86 210 86 200 99 c 128,-1,34
 190 112 190 112 188 125 c 1,35,-1
 195 132 l 1,36,37
 231 129 231 129 231 170 c 0,38,39
 231 199 231 199 207.5 215.5 c 128,-1,40
 184 232 184 232 152 232 c 0,41,42
 52 232 52 232 52 145 c 0,43,44
 52 94 52 94 111 66 c 0,45,46
 157 44 157 44 215 44 c 0,47,48
 267 44 267 44 309 72 c 0,49,50
 357 104 357 104 357 153 c 0,51,52
 357 209 357 209 278 253 c 1,53,54
 205 291 205 291 131 329 c 1,55,56
 52 379 52 379 52 448 c 0,57,58
 52 520 52 520 130 564 c 0,59,60
 166 584 166 584 234 584 c 0,61,62
 267 584 267 584 305 569 c 0,63,64
 352 551 352 551 352 523 c 0,65,66
 352 474 352 474 333 457 c 1,67,-1
 329 460 l 1,68,-1
 327 466 l 1,69,-1
 325 467 l 1,70,71
 312 498 312 498 280.5 516 c 128,-1,72
 249 534 249 534 213 534 c 0,73,74
 178 534 178 534 144 509 c 0,75,76
 107 483 107 483 107 449 c 0,77,78
 107 396 107 396 186 355 c 1,79,80
 259 319 259 319 333 282 c 1,81,82
 412 231 412 231 412 155 c 0,0,1
183 53 m 0,83,-1
EndSplineSet
EndChar

StartChar: scedilla
Encoding: 351 351 225
Width: 335
Flags: W
LayerCount: 2
Fore
SplineSet
205 -41 m 0,0,1
 205 -59 205 -59 184 -96 c 0,2,3
 162 -136 162 -136 147 -136 c 0,4,5
 142 -136 142 -136 142 -124 c 0,6,7
 142 -114 142 -114 149 -95.5 c 128,-1,8
 156 -77 156 -77 156 -67 c 1,9,10
 120 -61 120 -61 120 -28 c 0,11,12
 120 -8 120 -8 136 2 c 1,13,14
 86 10 86 10 51 48 c 128,-1,15
 16 86 16 86 16 136 c 0,16,17
 16 212 16 212 97 212 c 0,18,19
 153 212 153 212 153 166 c 0,20,21
 153 146 153 146 144 140 c 1,22,23
 125 161 125 161 113 161 c 0,24,25
 98 161 98 161 85.5 151.5 c 128,-1,26
 73 142 73 142 73 127 c 0,27,28
 73 99 73 99 104 77 c 0,29,30
 132 58 132 58 162 58 c 0,31,32
 194 58 194 58 228 78 c 0,33,34
 266 100 266 100 266 130 c 0,35,36
 266 174 266 174 205 198 c 1,37,38
 148 217 148 217 91 236 c 1,39,40
 30 263 30 263 30 316 c 0,41,42
 30 380 30 380 79 402 c 0,43,44
 110 416 110 416 184 416 c 0,45,46
 209 416 209 416 244 402 c 0,47,48
 286 385 286 385 286 365 c 0,49,50
 286 325 286 325 266 304 c 1,51,-1
 259 306 l 1,52,53
 232 347 232 347 221 355 c 0,54,55
 203 369 203 369 160 369 c 0,56,57
 138 369 138 369 113 356 c 0,58,59
 85 341 85 341 85 321 c 0,60,61
 85 296 85 296 146 276 c 0,62,63
 235 246 235 246 259 231 c 0,64,65
 320 194 320 194 320 127 c 0,66,67
 320 84 320 84 276 47 c 0,68,69
 237 13 237 13 187 3 c 1,70,71
 205 -11 205 -11 205 -41 c 0,0,1
183 53 m 0,72,-1
EndSplineSet
EndChar

StartChar: mu1
Encoding: 181 181 227
AltUni2: 0003bc.ffffffff.0
Width: 514
Flags: W
LayerCount: 2
Fore
SplineSet
544 -184 m 1,0,1
 541 -185 541 -185 538 -186 c 1,2,3
 523 -186 523 -186 488 -164 c 1,4,5
 450 -142 450 -142 450 -129 c 2,6,-1
 450 -85 l 2,7,8
 450 367 450 367 352 367 c 0,9,10
 323 367 323 367 307 346 c 128,-1,11
 291 325 291 325 291 295 c 2,12,-1
 291 62 l 2,13,14
 291 53 291 53 301 36.5 c 128,-1,15
 311 20 311 20 310 1 c 1,16,17
 304 0 304 0 297 0 c 2,18,-1
 223 0 l 1,19,20
 223 10 223 10 233 41 c 1,21,-1
 235 43 l 1,22,23
 240 55 240 55 240 62 c 2,24,-1
 240 295 l 2,25,26
 240 323 240 323 223 345 c 128,-1,27
 206 367 206 367 179 367 c 0,28,29
 119 367 119 367 94 193 c 0,30,31
 84 123 84 123 78 -33 c 0,32,33
 77 -75 77 -75 72 -129 c 1,34,35
 67 -143 67 -143 27.5 -161 c 128,-1,36
 -12 -179 -12 -179 -30 -179 c 0,37,38
 -31 -179 -31 -179 -33 -178 c 1,39,40
 -3 -134 -3 -134 6 -82 c 1,41,42
 15 5 15 5 24 93 c 0,43,44
 39 234 39 234 66 310 c 0,45,46
 105 416 105 416 171 416 c 0,47,48
 200 416 200 416 220 407 c 1,49,50
 234 402 234 402 263 381 c 1,51,52
 288 403 288 403 306.5 409.5 c 128,-1,53
 325 416 325 416 358 416 c 0,54,55
 422 416 422 416 459 319 c 0,56,57
 486 248 486 248 499 118 c 1,58,59
 506 34 506 34 513 -50 c 1,60,61
 517 -77 517 -77 527 -118 c 1,62,63
 541 -167 541 -167 544 -184 c 1,0,1
EndSplineSet
EndChar

StartChar: c144
Encoding: 144 144 228
Width: 349
Flags: W
LayerCount: 2
Fore
SplineSet
352 250 m 0,0,1
 352 175 352 175 303 74 c 1,2,3
 258 -11 258 -11 212 -95 c 1,4,5
 163 -191 163 -191 163 -252 c 0,6,7
 163 -259 163 -259 157 -260 c 1,8,-1
 156 -259 l 1,9,10
 139 -260 139 -260 122 -229 c 0,11,12
 108 -202 108 -202 106 -182 c 1,13,-1
 107 -180 l 1,14,15
 107 -163 107 -163 156 -73 c 1,16,17
 228 56 228 56 248 98 c 0,18,19
 298 201 298 201 298 250 c 0,20,21
 298 393 298 393 195 393 c 0,22,23
 148 393 148 393 115.5 359 c 128,-1,24
 83 325 83 325 83 278 c 2,25,-1
 83 62 l 2,26,27
 83 56 83 56 92.5 37 c 128,-1,28
 102 18 102 18 102 1 c 1,29,30
 96 0 96 0 89 0 c 2,31,-1
 15 0 l 1,32,-1
 15 16 l 1,33,34
 32 54 32 54 32 62 c 2,35,-1
 32 497 l 2,36,37
 32 504 32 504 24 510 c 1,38,39
 15 513 15 513 15 522 c 0,40,41
 15 535 15 535 74 581 c 1,42,-1
 81 583 l 1,43,-1
 85 578 l 1,44,-1
 85 392 l 1,45,46
 132 448 132 448 196 448 c 0,47,48
 287 448 287 448 323 391 c 0,49,50
 352 346 352 346 352 250 c 0,0,1
EndSplineSet
EndChar

StartChar: u20AC
Encoding: 8364 8364 229
Width: 458
Flags: W
LayerCount: 2
Fore
SplineSet
416 -136 m 1,0,1
 408 -120 408 -120 329 -82 c 0,2,3
 237 -38 237 -38 189 5 c 0,4,5
 111 75 111 75 94 173 c 1,6,7
 57 171 57 171 55 171 c 0,8,9
 33 168 33 168 17 161 c 0,10,11
 7 157 7 157 2 157 c 1,12,-1
 -2 166 l 1,13,14
 0 181 0 181 8 205 c 0,15,16
 18 235 18 235 25 236 c 1,17,18
 27 235 27 235 37 227 c 0,19,20
 44 221 44 221 49 222 c 2,21,-1
 89 223 l 1,22,23
 89 258 89 258 95 300 c 1,24,25
 71 299 71 299 24 289 c 1,26,27
 14 285 14 285 9 285 c 1,28,-1
 5 294 l 1,29,30
 7 309 7 309 15 333 c 0,31,32
 25 363 25 363 32 364 c 1,33,34
 36 363 36 363 47 355 c 0,35,36
 54 349 54 349 66 349 c 1,37,38
 58 349 58 349 107 352 c 1,39,40
 133 444 133 444 202 517 c 0,41,42
 276 594 276 594 366 612 c 1,43,-1
 376 600 l 1,44,45
 379 588 379 588 398 560 c 128,-1,46
 417 532 417 532 418 522 c 1,47,-1
 417 521 l 1,48,49
 386 531 386 531 355 531 c 0,50,51
 291 531 291 531 237 473 c 0,52,53
 192 424 192 424 169 355 c 1,54,55
 216 354 216 354 308 363 c 1,56,-1
 307 363 l 1,57,58
 321 368 321 368 350 376 c 1,59,60
 354 374 354 374 354 366 c 0,61,62
 354 352 354 352 343 320 c 0,63,64
 332 285 332 285 321 285 c 0,65,66
 316 285 316 285 310.5 296 c 128,-1,67
 305 307 305 307 288 310 c 0,68,69
 283 310 283 310 266 310 c 0,70,71
 245 310 245 310 211 307 c 0,72,73
 170 304 170 304 156 304 c 1,74,75
 150 270 150 270 148 227 c 1,76,77
 189 226 189 226 269 234 c 1,78,-1
 268 234 l 1,79,80
 282 238 282 238 311 247 c 1,81,82
 315 244 315 244 315 236 c 0,83,84
 315 222 315 222 304 191 c 1,85,86
 293 156 293 156 282 156 c 0,87,88
 277 156 277 156 271.5 166.5 c 128,-1,89
 266 177 266 177 251 180 c 0,90,91
 244 181 244 181 218 181 c 0,92,93
 189 181 189 181 152 178 c 1,94,95
 165 98 165 98 234.5 36 c 128,-1,96
 304 -26 304 -26 384 -26 c 0,97,98
 388 -26 388 -26 402 -12 c 128,-1,99
 416 2 416 2 426 2 c 256,100,101
 436 2 436 2 436 -21 c 0,102,103
 436 -56 436 -56 416 -136 c 1,0,1
EndSplineSet
EndChar
